<svg width="24" height="24" viewBox="0 0 24 24" fill="none" xmlns="http://www.w3.org/2000/svg">
<g clip-path="url(#clip0_1488_138608)">
<circle cx="12" cy="12" r="12" fill="url(#paint0_linear_1488_138608)"/>
<path fill-rule="evenodd" clip-rule="evenodd" d="M17.1415 14.7506C17.2257 14.0743 17.0355 13.4798 16.5614 13.0034C16.412 12.8552 16.2314 12.7176 16.0492 12.5786C15.9697 12.518 15.8899 12.4571 15.8121 12.395C15.8327 12.3908 15.8499 12.3808 15.8643 12.3726C15.8786 12.3643 15.8901 12.3576 15.8991 12.3601C17.5289 12.0009 17.9942 9.75737 17.1656 8.72009C16.8316 8.30058 16.4141 7.97519 15.9361 7.73064C15.744 7.63568 15.5561 7.54793 15.3646 7.45846C15.2142 7.38822 15.0615 7.31692 14.9028 7.24024C14.9854 6.9319 15.0895 6.56042 15.1965 6.17889C15.3094 5.77614 15.4255 5.36202 15.5227 4.99932L14.1643 4.63536C14.0696 4.98902 13.9559 5.39401 13.8454 5.78775C13.7409 6.1602 13.6392 6.52262 13.559 6.82195L12.4905 6.53563C12.6603 5.90174 12.8933 5.03241 13.0958 4.34904L11.7556 3.98993C11.6553 4.36423 11.5398 4.77591 11.4281 5.17386C11.3237 5.54611 11.2226 5.90637 11.1405 6.21274C10.6764 6.08838 10.2227 5.9619 9.77117 5.83604C9.32412 5.71143 8.87926 5.58742 8.42873 5.4667C8.2977 5.9557 8.17153 6.42659 8.02724 6.89262L8.57057 7.03821C8.73357 7.08189 8.91468 7.13041 9.07283 7.1922C9.53402 7.3546 9.70152 7.67124 9.57535 8.14213L7.97295 13.905C7.86134 14.3216 7.6317 14.4542 7.21514 14.3425L6.30958 14.0999C6.07344 14.619 5.84215 15.1199 5.5879 15.6341C6.03825 15.7645 6.48982 15.8904 6.94138 16.0162C7.39295 16.1421 7.84451 16.2679 8.29486 16.3983C8.11045 17.0865 7.87266 17.974 7.66044 18.6935L9.00066 19.0527C9.09896 18.6858 9.21062 18.2877 9.32085 17.8946C9.42827 17.5116 9.53437 17.1333 9.62538 16.7936C9.80818 16.8521 9.98355 16.9039 10.1545 16.9544C10.3348 17.0077 10.5101 17.0596 10.6842 17.1162C10.5926 17.458 10.487 17.8345 10.3806 18.2133C10.2729 18.5972 10.1645 18.9835 10.0692 19.339L11.4094 19.6981C11.5084 19.3288 11.6209 18.9278 11.7312 18.5347C11.8372 18.1566 11.9413 17.7857 12.0293 17.4572C12.0638 17.4664 12.0929 17.4664 12.1142 17.4664C12.1265 17.4664 12.1362 17.4664 12.1428 17.4682C12.3927 17.4912 12.6457 17.5234 12.8991 17.5556C13.3177 17.6088 13.7373 17.6622 14.1451 17.6747C15.0135 17.6938 15.7917 17.3977 16.336 16.67C16.8186 16.1005 17.0477 15.4631 17.1415 14.7506ZM12.4347 8.22545C13.1414 8.40504 13.833 8.58077 14.4175 9.05136C14.8664 9.40457 15.0083 9.88906 14.8362 10.3865C14.6593 10.902 14.2495 11.1998 13.6757 11.2402C12.8701 11.2767 12.1094 11.0729 11.3222 10.8231C11.4429 10.3726 11.5657 9.93231 11.6891 9.48981C11.8138 9.04286 11.9391 8.59353 12.0634 8.12941C12.1873 8.1626 12.3112 8.19409 12.4347 8.22545ZM10.9126 15.3885C11.6556 15.5702 12.4115 15.755 13.197 15.6348C13.7624 15.5533 14.1492 15.2688 14.2996 14.7073C14.4501 14.1459 14.2622 13.6879 13.8314 13.3395C13.0927 12.7528 12.2134 12.5259 11.3288 12.2975C11.1976 12.2637 11.0663 12.2298 10.9353 12.1947C10.7928 12.6903 10.656 13.1826 10.5193 13.6749C10.3825 14.1673 10.2457 14.6596 10.1032 15.1552C10.2349 15.1905 10.3555 15.228 10.4714 15.2641C10.5787 15.2976 10.6821 15.3297 10.7866 15.3577C10.8285 15.3679 10.8705 15.3782 10.9126 15.3885Z" fill="white"/>
</g>
<defs>
<linearGradient id="paint0_linear_1488_138608" x1="12" y1="0" x2="12" y2="24" gradientUnits="userSpaceOnUse">
<stop stop-color="#FFAB45"/>
<stop offset="1" stop-color="#FFA02E"/>
</linearGradient>
<clipPath id="clip0_1488_138608">
<rect width="24" height="24" fill="white"/>
</clipPath>
</defs>
</svg>
