<svg width="24" height="24" viewBox="0 0 24 24" fill="none" xmlns="http://www.w3.org/2000/svg">
<g clip-path="url(#clip0_1488_138335)">
<path d="M12 24C18.6274 24 24 18.6274 24 12C24 5.37258 18.6274 0 12 0C5.37258 0 0 5.37258 0 12C0 18.6274 5.37258 24 12 24Z" fill="#988430"/>
<g clip-path="url(#clip1_1488_138335)">
<path d="M12 23.3706C18.28 23.3706 23.3709 18.2797 23.3709 11.9998C23.3709 5.71982 18.28 0.628906 12 0.628906C5.72006 0.628906 0.62915 5.71982 0.62915 11.9998C0.62915 18.2797 5.72006 23.3706 12 23.3706Z" fill="#BA9F33"/>
<path fill-rule="evenodd" clip-rule="evenodd" d="M5.24659 10.7185C5.17862 10.6564 5.10681 10.5942 5.04076 10.5321C4.97471 10.47 4.90687 10.4078 4.83891 10.3457L4.63692 10.1537C4.6039 10.1207 4.56895 10.0917 4.53593 10.0585C4.5029 10.0294 4.46412 9.99642 4.4311 9.96724C4.16306 9.7129 3.8935 9.45857 3.62918 9.2041C3.90297 9.4546 4.171 9.7033 4.44479 9.95751L4.5399 10.0527C4.57292 10.0856 4.60787 10.1148 4.64089 10.1478L4.84274 10.3342C4.91071 10.3963 4.97676 10.4585 5.04473 10.5262C5.1127 10.5939 5.17874 10.6563 5.24671 10.7182L5.24659 10.7185ZM1.68934 10.6801C1.68934 10.6801 2.66406 10.7809 3.13983 10.8489C3.58054 10.9111 4.95922 11.1227 4.95922 11.1227L1.68934 10.6801ZM1.68934 10.6801C1.96313 10.7034 2.23692 10.7324 2.51071 10.7616C2.65049 10.7752 2.7845 10.7907 2.91852 10.8042L3.12422 10.8277C3.19218 10.8373 3.25823 10.847 3.3262 10.8567L4.14182 10.9868L4.5495 11.0547C4.68351 11.078 4.81753 11.1034 4.9573 11.1267C4.82329 11.1131 4.68351 11.0936 4.5495 11.0742L4.14182 11.0159L3.3262 10.8956C3.25823 10.8859 3.19218 10.8722 3.12422 10.8626L2.91839 10.8389C2.78438 10.8253 2.6446 10.8059 2.51058 10.7903C2.23679 10.7574 1.963 10.7223 1.68921 10.6797L1.68934 10.6801ZM4.8622 11.3766C4.8622 11.3766 3.82143 11.6408 3.46994 11.7418C3.12434 11.8369 2.07769 12.1554 2.07769 12.1554L4.86207 11.3768L4.8622 11.3766Z" fill="#CFB66C"/>
<path fill-rule="evenodd" clip-rule="evenodd" d="M4.86203 11.3765C4.63099 11.4444 4.40123 11.5105 4.16686 11.5727L3.47169 11.7591C3.24065 11.827 3.01089 11.8931 2.78049 11.9611L2.43489 12.0562C2.32033 12.0892 2.20385 12.1183 2.08545 12.1514C2.19988 12.113 2.31649 12.0737 2.43105 12.0407L2.77665 11.9301C3.00769 11.8581 3.23745 11.7902 3.46785 11.7184C3.70273 11.6601 3.9339 11.5979 4.16878 11.5416C4.39201 11.4853 4.62702 11.4291 4.86203 11.3766V11.3765ZM2.22331 12.796C2.33774 12.7533 3.65819 12.1378 3.965 11.9941C4.1186 11.9222 4.56507 11.7637 4.56507 11.7637L2.22331 12.796Z" fill="#CFB66C"/>
<path fill-rule="evenodd" clip-rule="evenodd" d="M2.22327 12.7962C2.32414 12.7578 2.41937 12.7108 2.51639 12.6662L2.80375 12.5322L3.38052 12.2545C3.57252 12.1633 3.75914 12.0625 3.95716 11.9768C4.05815 11.9341 4.15914 11.8992 4.26001 11.8662L4.41361 11.8177C4.46596 11.8041 4.5146 11.7885 4.56721 11.7749C4.37521 11.8662 4.1731 11.9439 3.98084 12.0331C3.78884 12.1283 3.59249 12.206 3.39434 12.2914L2.80798 12.5496C2.61111 12.6293 2.41911 12.7147 2.22314 12.7962H2.22327ZM2.35127 13.3338C2.35127 13.3338 3.5473 12.6329 3.95895 12.4076C4.1745 12.2873 4.87159 11.9416 4.87159 11.9416L2.35127 13.3338Z" fill="#CFB66C"/>
<path fill-rule="evenodd" clip-rule="evenodd" d="M2.35156 13.3341C2.55342 13.2098 2.75924 13.0836 2.96507 12.9555L3.27227 12.769C3.3771 12.7069 3.47809 12.6486 3.58497 12.5866C3.6898 12.5244 3.79079 12.4623 3.89755 12.404C3.94837 12.3727 4.00161 12.3454 4.05678 12.3225L4.21985 12.241C4.4354 12.1361 4.65095 12.0293 4.87815 11.938C4.67233 12.0682 4.46062 12.1789 4.24903 12.2933C4.1442 12.3516 4.03732 12.404 3.93249 12.4623C3.82766 12.5205 3.72667 12.5827 3.61979 12.639C3.51495 12.7011 3.41396 12.7594 3.30721 12.8157L2.99067 12.9885L2.35182 13.3341H2.35156ZM4.86215 12.0952C4.86215 12.0952 4.11847 12.6661 3.87771 12.8486C3.63694 13.0311 2.9282 13.5437 2.9282 13.5437L4.86215 12.0952Z" fill="#CFB66C"/>
<path fill-rule="evenodd" clip-rule="evenodd" d="M9.13006 16.6988L8.74951 15.9784L8.97082 15.0774L10.5494 14.4677L9.87758 13.0892L10.2096 11.6969L10.833 10.4502L12.7592 10.1474L14.1747 8.79785L17.231 9.02889L17.831 12.2969L16.6757 16.4114L16.0175 18.5416L13.3494 18.6426L12.1107 17.7843L10.6602 17.1784L9.13006 16.6988Z" fill="#E2CC85"/>
<path fill-rule="evenodd" clip-rule="evenodd" d="M13.8098 16.6755C13.8098 16.6755 13.4407 16.8445 12.8114 16.8055C12.6292 16.5609 11.3536 16.4464 11.3536 16.4464C11.3536 16.4464 11.1943 16.3979 10.9127 16.5143C10.6293 16.6295 10.3613 16.6153 10.1108 16.6774C9.86032 16.7395 9.61161 16.4133 9.41961 16.3454C9.22761 16.2736 8.97302 16.1008 8.97302 16.1008L8.43542 16.0483L7.35587 15.592L5.6408 13.8833L5.17475 14.6129L5.03101 15.5158L5.54953 16.5858L6.94563 17.8576L9.66793 18.5488L11.2815 18.0734L13.3029 17.219L13.8098 16.6754V16.6755Z" fill="#F1D789"/>
<path fill-rule="evenodd" clip-rule="evenodd" d="M4.13792 10.6368L4.48352 9.59027L4.89529 8.91443L6.22137 8.80371L5.82329 9.96493L4.71469 11.9378L5.17485 13.6989L4.35936 14.1066L4.10873 13.7222L3.90688 12.8407L3.89331 11.8504L4.13792 10.6368Z" fill="#F4ECB4"/>
<path fill-rule="evenodd" clip-rule="evenodd" d="M5.62515 16.604L5.37081 16.2487C5.37081 16.2487 5.30284 16.0797 5.34175 15.9321C5.38016 15.7826 5.37465 15.7729 5.35532 15.7166C5.336 15.6602 5.17279 15.4661 5.18252 15.299C5.19212 15.1301 5.16895 15.0738 5.29311 14.9399C5.42316 14.8098 5.38438 14.5845 5.38438 14.5845L5.55334 14.6894L5.59174 14.6311C5.59174 14.6311 5.65382 14.6796 5.65382 14.7554C5.66739 14.6506 5.61107 14.1651 5.7392 14.0545C5.86733 13.9439 6.09453 14.5729 6.09453 14.5729L5.95476 13.6602L5.59545 12.7244L4.9566 11.87L4.9182 10.9282V10.8467C4.9182 10.8467 4.62494 11.2972 4.54341 11.6531C4.48517 11.8977 4.62494 12.1948 4.59589 12.5463C4.57246 12.8958 4.54341 12.8686 4.62878 13.0071C4.71416 13.1456 4.92204 13.4304 4.8405 13.6362C4.76869 13.813 4.52395 13.6887 4.52395 13.6887C4.52395 13.6887 4.47544 13.8323 4.40939 13.8848C4.38609 13.7994 4.36088 13.745 4.31428 13.6928C4.31032 13.7258 4.30072 13.7705 4.30072 13.7705C4.30072 13.7705 4.25796 13.6364 4.21521 13.4675C4.1571 13.2423 4.09489 12.9452 4.03857 12.786C4.01527 12.8773 3.95703 13.1549 3.95703 13.1549L3.99006 13.5822L4.14929 14.1685L4.30289 14.5525L4.4524 15.0224L4.58232 15.3381L4.68715 15.5788L4.77842 16.1207L5.21913 16.5866L5.45414 16.6915L5.6249 16.6041L5.62515 16.604Z" fill="#F3E19D"/>
<path fill-rule="evenodd" clip-rule="evenodd" d="M4.36901 9.78229C4.36901 9.78229 4.05247 10.3199 3.96133 10.8618C3.87019 11.4038 3.78853 11.9765 3.84613 12.7143C3.90437 13.4581 4.01509 13.9143 4.10443 14.2405C4.25803 14.7824 4.65586 15.5358 4.65586 15.5358L4.66943 15.5066C4.60256 15.3798 4.54919 15.2464 4.5102 15.1085C4.45772 14.9027 4.43826 14.6581 4.38975 14.5473C4.347 14.4368 4.27519 14.3415 4.24024 14.2056C4.20722 14.0755 4.20184 13.8697 4.10047 13.7164C4.05771 13.6542 4.00523 13.4911 3.98974 13.328C3.97029 13.0833 3.99947 12.8095 3.97618 12.5843C3.93342 12.2096 3.90437 11.9552 3.94315 11.759C3.98194 11.5628 4.18405 11.0057 4.30834 10.563C4.38988 10.2794 4.34124 10.0406 4.49074 9.79394C4.64025 9.54933 4.73164 9.33378 4.76454 9.18427C4.80294 9.04834 4.3685 9.78229 4.3685 9.78229H4.36901Z" fill="#F2E8B0"/>
<path fill-rule="evenodd" clip-rule="evenodd" d="M5.86998 9.56689C5.86998 9.56689 5.70691 9.61553 5.62921 9.70091C5.55151 9.78244 5.51849 9.85041 5.41365 9.98826C5.30882 10.1261 5.30293 10.2388 5.21743 10.4116C5.13205 10.5805 4.94363 10.8348 4.92033 10.9261C4.89704 11.0174 4.85825 11.4445 4.80974 11.6465C4.76699 11.8485 4.85825 12.097 4.85825 12.097L4.96885 12.0736C4.96885 12.0736 4.96885 12.2173 5.07957 12.3145C5.19016 12.4096 5.20962 11.9921 5.20962 11.9921L5.62319 10.596L6.24643 10.1727L6.3144 9.83095L5.86972 9.56689H5.86998Z" fill="#F5EEC0"/>
<path fill-rule="evenodd" clip-rule="evenodd" d="M6.1729 10.2C6.1729 10.2 5.87965 10.2193 5.73603 10.3243C5.67779 10.3669 5.6545 10.4019 5.59242 10.4543C5.47786 10.5495 5.36125 10.6369 5.30506 10.7615C5.24285 10.8857 5.17488 11.0741 5.12829 11.4295C5.10883 11.579 5.10883 11.7168 5.09527 11.8373C5.07581 12.0003 5.04675 12.1304 5.06224 12.2213C5.0817 12.4076 5.27395 12.5048 5.29264 12.7164L5.69072 12.5145L6.06551 11.0367L6.86167 10.5375L6.41111 10.0327L6.17239 10.1991L6.1729 10.2Z" fill="#E6DB9D"/>
<path fill-rule="evenodd" clip-rule="evenodd" d="M4.07264 20.1511C4.0743 20.1365 4.07597 20.1219 4.07763 20.107C4.13574 19.6078 4.1456 19.2294 4.18822 18.9925C4.2503 18.6566 4.29305 18.5317 4.28333 18.406C4.26976 18.2041 4.25427 18.0565 4.27373 17.9011C4.30278 17.6953 4.50477 17.4507 4.49901 17.2818C4.49504 17.1477 4.42707 17.0604 4.36883 16.9789C4.31059 16.8974 4.264 16.8294 4.264 16.8294C4.264 16.8294 4.66208 16.5556 4.65824 15.4526C4.66637 15.4549 4.67419 15.4582 4.68153 15.4624L4.87763 16.0195L5.01165 16.1826L5.52621 17.1419L6.18835 17.7847L7.16691 18.4428L7.78054 19.1106L7.84262 20.8912L7.0407 21.932L6.90937 22.1698C5.86601 21.646 4.90924 20.9652 4.07251 20.151L4.07264 20.1511Z" fill="#E5CB7A"/>
<path fill-rule="evenodd" clip-rule="evenodd" d="M6.52246 21.854C6.52246 21.854 6.53603 21.6327 6.71856 21.489C6.74774 21.5375 6.76707 21.5842 6.76131 21.619C6.79433 21.5609 7.02537 21.1881 7.54773 21.0909C8.0701 20.9958 8.19631 20.6153 8.19631 20.6153L9.30491 19.6075L10.5729 18.4405L12.1146 17.8987L12.8351 17.722C12.8351 17.722 12.8487 17.7744 12.8216 17.8909C12.9554 17.8813 13.2525 17.8133 13.5613 17.7045C13.6855 17.656 13.8022 17.6366 13.8642 17.7007C13.9555 17.7861 13.9691 17.9881 13.9748 18.1084C14.1243 18.0754 14.2971 17.9317 14.4356 17.9453C14.6571 17.9686 14.8532 18.2288 15.0784 18.2288C15.3755 18.2288 15.5094 18.0463 15.7173 17.9026C15.8416 17.8172 16.0201 17.7106 16.1211 17.6385C16.3619 17.4617 18.9095 16.6831 18.9095 16.6831L19.8026 16.7413L19.9464 17.7006L19.8696 20.2081C19.8601 20.2172 19.8506 20.2267 19.841 20.2357L15.7799 22.3568L10.1505 23.2198C8.88946 23.0138 7.67257 22.5952 6.55164 21.9819L6.52284 21.8539L6.52246 21.854Z" fill="#D8C173"/>
<path fill-rule="evenodd" clip-rule="evenodd" d="M4.41406 20.47C4.49406 20.3027 4.566 20.1628 4.57867 20.1128C4.58865 20.2137 4.60696 20.435 4.64382 20.6702C4.56643 20.6044 4.48984 20.5377 4.41406 20.4699V20.47Z" fill="#F1D789"/>
<path fill-rule="evenodd" clip-rule="evenodd" d="M8.52629 22.8298L9.25435 22.6273L9.31643 22.6468C9.31643 22.6468 9.34945 22.6662 9.34945 22.7322C9.44072 22.6798 9.51842 22.6894 9.57474 22.6546C9.60379 22.7167 9.63285 22.9225 9.7611 22.9477C9.89499 22.9769 10.0387 22.8895 10.1844 22.7789C10.328 22.6643 10.4916 22.5206 10.6154 22.4623C10.6608 22.5458 10.701 22.6321 10.7358 22.7205C10.8989 22.5905 11.1824 22.0623 11.5863 22.0719C11.703 21.7961 11.898 21.5605 12.1472 21.3943C12.5219 21.14 12.7568 21.1205 13.0501 21.1438C13.1665 20.9925 13.3101 20.8641 13.4734 20.7652C13.5219 20.7846 13.6559 20.8662 13.8229 20.7885C13.9919 20.7109 14.1821 20.4098 14.4326 20.3711C14.5676 20.3525 14.7048 20.3813 14.8209 20.4526C14.8209 20.4526 15.5505 19.7282 16.054 19.4875C16.0345 19.4292 15.9957 19.2098 16.5859 18.7243C16.619 18.7535 16.5957 18.835 16.619 18.8395C16.6286 18.8395 16.7726 18.7774 16.9548 18.6375C17.1801 18.4687 17.4499 18.2919 17.613 18.2434C17.9202 18.1522 18.2461 18.3385 18.2461 18.3385C18.2738 18.3191 18.3047 18.3046 18.3374 18.2958C18.4149 18.2822 18.4712 18.2725 18.514 18.2574C18.5102 18.3584 18.5665 18.5312 18.514 18.6807C18.5748 18.7149 18.6392 18.7422 18.706 18.7622C18.6731 18.834 18.6012 19.0165 18.4808 19.104C18.5817 19.1525 18.5953 19.2088 18.739 19.2576C18.6808 19.3391 18.5854 19.479 18.5429 19.5648C18.5002 19.656 18.3467 20.0347 18.2787 20.1783C18.2069 20.322 18.1099 20.5861 18.0632 20.6391C18.0165 20.6921 17.8476 20.9167 17.7176 21.0273C17.8328 20.9846 18.3041 20.8409 18.504 20.7865C18.4445 20.8738 18.1428 21.3215 17.8528 21.7519C16.464 22.5843 14.9138 23.1111 13.3055 23.2973C11.6971 23.4835 10.0676 23.3248 8.52539 22.8317L8.52629 22.8298Z" fill="#E0CD81"/>
<path fill-rule="evenodd" clip-rule="evenodd" d="M6.22086 10.1476C6.22086 10.1476 6.05203 10.1476 6.019 10.1709C5.98598 10.1942 6.18796 10.2429 6.25004 10.2662C6.31213 10.2895 6.44614 10.3962 6.48109 10.4817C6.51411 10.5633 7.69466 11.0389 7.69466 11.0389L8.52961 10.9962L8.81748 10.5985L8.2699 10.1188L8.6539 8.98682L8.14522 9.06835L6.92192 9.79795L6.30829 10.033L6.22086 10.1476Z" fill="#DFC57C"/>
<path fill-rule="evenodd" clip-rule="evenodd" d="M8.05432 10.5223C8.06639 10.5418 8.08339 10.5579 8.10361 10.5688C8.12383 10.5797 8.14656 10.5851 8.16952 10.5844C8.34232 10.5844 8.50142 10.6271 8.56747 10.7144C8.67819 10.8543 8.98501 11.3009 8.98501 11.3009L9.71896 11.565L9.76632 10.7007L8.9644 10.1436L8.05176 10.4794V10.5222H8.05381L8.05432 10.5223Z" fill="#E5CC7C"/>
<path fill-rule="evenodd" clip-rule="evenodd" d="M7.91036 10.8428C7.91036 10.8428 8.04425 10.8525 8.21321 10.7903C8.38217 10.7281 8.6598 10.5942 8.78025 10.6467C8.94908 10.7185 8.91414 10.9438 9.09679 11.1459C9.20739 11.2702 9.40937 11.2663 9.52393 11.4004C9.63849 11.5344 10.0326 11.4722 10.0326 11.4722L10.1821 12.2786L9.58217 13.0476L9.38595 14.0029H8.57468L7.83356 13.7088L7.46851 12.8256L7.65103 11.9325L7.91036 10.8428Z" fill="#D2C281"/>
<path fill-rule="evenodd" clip-rule="evenodd" d="M9.47974 10.8816C9.49986 10.8878 9.52077 10.8911 9.54182 10.8914C9.51853 10.9108 9.46989 10.9534 9.48934 11.0642C9.5088 11.1749 9.57088 11.3147 9.51853 11.4C9.56032 11.4457 9.59149 11.5001 9.60979 11.5593C9.64282 11.6545 9.65254 11.7418 9.86797 11.7555C9.83688 11.7746 9.80821 11.7974 9.78259 11.8234C9.78259 11.8234 9.9321 11.9535 10.0079 12.0738C10.0854 12.0705 10.2913 12.0065 10.2913 12.0065L10.334 12.0357L10.4253 11.9973C10.4253 11.9973 10.3399 11.9642 10.402 11.7565C10.4602 11.574 10.5127 11.5837 10.5172 11.5701C10.5217 11.5566 10.5599 11.3643 10.5599 11.2866C10.589 11.1858 10.6123 10.8789 10.6123 10.8789L10.5502 10.2013L10.2008 9.98963L9.91661 9.71533L9.64858 10.2202L9.47206 10.3961L9.4585 10.833L9.47974 10.8816Z" fill="#E2C270"/>
<path fill-rule="evenodd" clip-rule="evenodd" d="M10.3203 10.3144C10.3203 10.3144 10.3824 10.4911 10.4058 10.627C10.4141 10.6006 10.4186 10.5731 10.4194 10.5455C10.4194 10.5455 10.4679 10.8135 10.4775 10.9242C10.497 10.9202 10.5159 10.9145 10.5202 10.9338C10.5246 10.9531 10.5689 11.1688 10.5586 11.2891C10.6395 11.1557 10.7514 11.0439 10.8848 10.963C10.9625 10.9144 11.0538 10.862 11.149 10.858C11.2985 10.8542 11.4072 10.9533 11.5858 10.9533C12.0168 10.9533 12.4072 10.6367 12.6946 10.5397C12.9062 10.4678 13.0887 10.4154 13.2168 10.2988C13.279 10.2464 13.3898 10.13 13.4906 9.95704C13.6246 9.72664 13.7644 9.52607 13.9043 9.50085C13.841 9.51248 13.7766 9.51703 13.7123 9.51442C13.7123 9.51442 13.7551 9.47167 13.8275 9.41343C13.9 9.35519 13.9867 9.28338 14.1109 9.28338C14.3323 9.28338 14.4429 9.31627 14.5672 9.31627C14.6915 9.31243 14.7633 9.28338 14.7633 9.28338C14.7633 9.28338 14.8935 9.37464 15.1866 9.37464C15.4799 9.37848 15.676 9.4037 15.8294 9.41739C15.9829 9.43109 16.4973 9.37464 16.6449 9.37899C16.7411 9.3827 16.8356 9.40582 16.9227 9.44696L16.4469 8.06456L14.7378 6.5708L13.7204 7.29119L12.1552 8.85624L10.6407 9.41739L10.3242 9.77272V10.3144H10.3203Z" fill="#CCB360"/>
<path fill-rule="evenodd" clip-rule="evenodd" d="M13.7185 9.52243C13.7185 9.52243 13.7613 9.47981 13.833 9.42157C13.9046 9.36333 13.9923 9.29139 14.1165 9.29139C14.3378 9.29139 14.4485 9.32441 14.5728 9.32441C14.6971 9.32057 14.7689 9.29139 14.7689 9.29139C14.7689 9.29139 14.8992 9.38253 15.1922 9.38253C15.4855 9.38637 15.6816 9.41158 15.835 9.42515C15.9885 9.43872 16.5029 9.38253 16.6505 9.38675C16.7467 9.39037 16.8412 9.4135 16.9282 9.45472L16.7126 8.83136L16.4622 8.35571L15.7476 7.57312C15.7476 7.57312 14.89 7.06829 14.8835 7.06445C14.8796 7.06061 14.5864 6.98291 14.5864 6.98291L13.8097 7.4528L13.1049 9.27616L13.0913 9.66016L13.5475 9.87571C13.6621 9.68371 13.7884 9.53011 13.9068 9.51065C13.7999 9.5223 13.7184 9.5223 13.7184 9.5223L13.7185 9.52243Z" fill="#D5B457"/>
<path fill-rule="evenodd" clip-rule="evenodd" d="M13.7087 9.65228C13.6407 9.65612 13.5845 9.64255 13.5689 9.59404C13.5107 9.43096 13.4641 9.40767 13.4153 9.40767C13.3666 9.40767 13.3008 9.5125 13.2617 9.5221C13.2227 9.5317 13.1764 9.40178 13.1764 9.40178L13.1336 9.38232C13.1336 9.38232 12.8831 9.5454 12.7065 9.73765C12.5298 9.92991 12.2404 10.2562 12.1104 10.3143C11.9803 10.3724 11.5336 10.392 11.3808 10.425C11.2279 10.458 11.0585 10.5688 11.0352 10.594C11.0119 10.6192 11.1033 10.6463 11.1168 10.6715C11.1304 10.6948 10.9672 10.6851 10.9536 10.7099C10.944 10.7294 10.992 10.84 11.0159 10.8963C11.0575 10.8756 11.1032 10.8643 11.1497 10.8633C11.2992 10.8594 11.408 10.9585 11.5866 10.9585C12.0177 10.9585 12.408 10.642 12.6953 10.5448C12.907 10.473 13.0896 10.4205 13.2177 10.3041C13.2798 10.2517 13.3905 10.1351 13.4915 9.96229C13.5652 9.84389 13.6371 9.73317 13.7091 9.65164L13.7087 9.65228Z" fill="#D2B257"/>
<path fill-rule="evenodd" clip-rule="evenodd" d="M7.52628 19.2623C7.52628 19.2623 7.48788 19.1186 7.13204 18.7477C7.03105 18.6429 6.96897 18.5557 6.901 18.4934C6.73204 18.334 6.63297 18.2914 6.51265 18.2001C6.24859 18.004 5.96123 18.004 5.73991 17.7633C5.5186 17.5225 5.26068 17.0625 5.08148 16.5923C4.90484 16.1224 4.8562 15.9729 4.8562 15.9593C4.8562 15.9458 4.90484 15.8545 4.96692 15.8681C5.029 15.8816 5.029 16.002 5.04462 16.0311C5.07555 16.0788 5.11063 16.1236 5.14945 16.165C5.24071 16.27 5.37076 16.3954 5.43681 16.5826C5.42324 16.4233 5.36884 16.2467 5.36884 16.2467C5.36884 16.2467 5.7106 16.4623 6.0018 16.6874C6.29505 16.9127 6.41537 16.9904 6.501 17.134C6.58663 17.2776 6.78836 17.6564 6.885 17.7671C6.98164 17.8778 8.3058 18.2952 8.3058 18.2952L8.93569 18.7649L9.24839 19.4503L9.00366 19.8343L8.53377 19.9353L7.77063 19.5936L7.52628 19.2622V19.2623Z" fill="#D2B159"/>
<path fill-rule="evenodd" clip-rule="evenodd" d="M5.83105 16.9011C5.83105 16.9011 5.99029 17.1555 6.37864 17.3963C6.72821 17.608 7.28155 17.8002 7.77486 17.9148C8.05825 17.9827 8.34177 18.0351 8.59611 18.0391C9.28155 18.0487 9.75336 17.8527 10.3379 17.7886C10.6545 17.7555 11.0428 17.7303 11.4467 17.635C11.9651 17.5107 12.2719 17.3708 12.6894 17.1742C12.9923 17.0344 13.27 16.9296 13.4952 16.7955C13.8117 16.6092 14.0428 16.4014 14.3108 16.3394C14.2778 16.4306 14.2428 16.5937 13.9788 16.7627C14.1185 16.7587 14.3108 16.7491 14.3108 16.7491C14.3108 16.7491 14.1244 16.8597 13.7962 17.1083C13.5943 17.2619 13.3263 17.5218 13.0526 17.6946C12.8758 17.8053 12.6835 17.8866 12.5573 17.9529C12.2501 18.1219 12.1262 18.2073 11.9244 18.4137C11.9962 18.4099 12.0021 18.4137 12.0021 18.4137C12.0021 18.4137 11.7476 18.4467 11.5652 18.5438C11.5268 18.5438 11.4602 18.5302 11.3438 18.5632C11.2525 18.5923 11.132 18.6585 11.0079 18.6933C10.8311 18.7458 10.773 18.7225 10.773 18.7225L10.8021 18.7807C10.8021 18.7807 10.5717 18.7767 10.4949 18.7845C10.5084 18.7884 10.5046 18.7943 10.5046 18.7943C10.4911 18.7965 10.4781 18.8011 10.4662 18.8078C10.4292 18.8318 10.3886 18.8495 10.3459 18.8602C10.3226 18.864 10.3031 18.864 10.2739 18.8699C10.2837 18.8932 10.3594 19.0235 10.3944 19.1003C10.3653 19.1198 9.92833 19.4499 9.92833 19.4499C9.94189 19.4712 9.95297 19.494 9.96136 19.5179C9.97493 19.5605 9.98081 19.6227 9.99438 19.6517C10.0273 19.71 10.0467 19.7197 10.0467 19.7197C10.0467 19.7197 9.99438 19.7294 9.90299 19.7527C9.82542 19.7722 9.73019 19.8051 9.59579 19.8245C9.55455 19.8299 9.51307 19.8331 9.4715 19.8343C9.49096 19.877 9.57633 20.0401 9.41902 20.2284C9.26171 20.4167 9.2132 20.4441 9.16469 20.5644C9.14027 20.5459 9.11427 20.5296 9.08699 20.5157C9.03464 20.4924 8.9627 20.4576 8.93749 20.4109C8.92279 20.4732 8.90332 20.5342 8.87925 20.5934C8.83073 20.7235 8.75893 20.8517 8.74536 20.9488C8.69288 20.8905 8.59585 20.776 8.46184 20.7993C8.32782 20.8226 8.22107 21.0051 8.19777 21.0576C8.19777 21.0245 8.17448 20.9993 8.16872 21.0381C8.16475 21.0809 8.09102 21.5273 7.67937 21.8885C7.67553 21.7973 7.67553 21.5953 7.66581 21.5294C7.62741 21.5678 7.58043 21.6245 7.30075 21.7449C7.02696 21.8652 7.07035 21.9857 7.07035 21.9857C7.07035 21.9857 7.04706 21.7937 7.19464 21.5915C7.34414 21.3896 7.43541 21.2944 7.43541 21.2789C7.43299 21.2631 7.42626 21.2483 7.41595 21.2361C7.39649 21.2167 7.35771 21.1934 7.35771 21.1779C7.38101 21.1683 7.61205 21.0576 7.59848 20.8283C7.58491 20.6226 7.49761 20.5157 7.43541 20.4401C7.42581 20.4304 7.5268 20.3586 7.5131 20.3353C7.50337 20.3217 7.37922 20.2303 7.3636 20.1817C7.36727 20.1526 7.37379 20.124 7.38305 20.0963C7.39662 20.0535 7.40635 20.0243 7.40251 19.9953C7.39278 19.9468 7.3403 19.8128 7.32481 19.7992C7.33838 19.803 7.43541 19.7992 7.43541 19.7992C7.43541 19.7992 7.35784 19.6749 7.34414 19.6167C7.33045 19.5584 7.30139 19.405 7.2859 19.3759C7.31893 19.3797 7.40046 19.3855 7.40046 19.3759C7.40443 19.3467 7.32865 19.2982 7.36206 19.2607C7.38536 19.2645 7.43003 19.284 7.47265 19.3384C7.44936 19.2762 7.41057 19.1559 7.32891 19.1074C7.36731 19.0938 7.49787 19.0587 7.61243 19.1267C7.72699 19.1947 7.76603 19.2898 7.76603 19.2898C7.76603 19.2898 7.834 19.3422 7.93896 19.4199C8.05928 19.515 8.21262 19.6503 8.45736 19.7461C8.50984 19.7753 8.64373 19.7753 8.74088 19.7558C8.78318 19.7457 8.82374 19.7294 8.8612 19.7073C8.87473 19.6993 8.88906 19.6928 8.90395 19.6878C8.88308 19.6459 8.85907 19.6057 8.83214 19.5674C8.86517 19.5674 8.90395 19.5714 8.90395 19.5714C8.90395 19.5714 8.92725 19.5189 8.82241 19.4178C8.84571 19.3945 8.87489 19.3794 8.87489 19.3401C8.84187 19.3362 8.78363 19.2877 8.77006 19.2683C8.78939 19.2547 8.81857 19.21 8.8516 19.1964C8.82241 19.1731 8.75061 19.076 8.71758 19.0664C8.74913 19.0547 8.77966 19.0404 8.80885 19.0236C8.80885 19.0236 8.64577 18.9809 8.59329 18.9459C8.54081 18.9075 8.46325 18.8411 8.41665 18.8217C8.36801 18.8022 8.28264 18.7926 8.24769 18.7537C8.28059 18.7634 8.33307 18.7537 8.37198 18.7537C8.40104 18.7537 8.41473 18.7575 8.42434 18.7575C8.42049 18.744 8.42049 18.7148 8.49627 18.7052C8.53272 18.6997 8.56809 18.6885 8.6011 18.6722C8.6011 18.6722 8.52917 18.6683 8.4475 18.5906C8.36584 18.5129 8.298 18.4508 8.25141 18.4411C8.20289 18.4314 8.11163 18.4741 8.05531 18.4702C7.97761 18.4606 7.94459 18.4217 7.94459 18.4217C7.94459 18.4217 7.68641 18.445 7.11361 18.0955C6.61838 17.7925 6.40283 17.5246 6.40283 17.5246C6.35648 17.5078 6.31169 17.487 6.26894 17.4624C6.08257 17.3654 5.82427 17.1634 5.83208 16.8992L5.83105 16.9011Z" fill="#C2A44D"/>
<path fill-rule="evenodd" clip-rule="evenodd" d="M12.9747 5.24672C13.0197 5.26131 13.0596 5.28823 13.0899 5.32441C13.1812 5.42925 13.2394 5.62726 13.0317 5.83897C13.1132 5.86803 13.1469 5.87737 13.2181 5.86803C13.1463 5.95353 12.9832 6.13606 12.9735 6.29529C12.9637 6.42534 13.0453 6.46425 13.0453 6.46425C13.0453 6.46425 12.921 6.60787 12.9152 6.84825C12.9739 6.78206 13.0381 6.721 13.1072 6.66573C13.251 6.55117 13.449 6.42112 13.583 6.33958C13.5812 6.37376 13.5858 6.40797 13.5966 6.44045C13.5966 6.44045 13.8469 6.23462 14.0574 6.32601C14.1525 6.36877 14.1097 6.50265 14.1097 6.50265C14.1097 6.50265 14.2399 6.45414 14.3312 6.54541C14.4224 6.63667 14.5515 6.87206 14.6176 6.96333C14.6467 7.00608 14.7225 7.08761 14.8 7.21382C14.906 7.39052 14.9945 7.57713 15.0642 7.77101C15.0681 7.67001 15.0933 7.51283 15.3808 7.61177C15.6682 7.71277 15.9943 7.92448 16.2681 8.34137C16.5419 8.75827 16.6097 9.22893 16.7476 9.40813C16.8874 9.58093 17.0311 9.86829 17.0408 9.98873C17.0506 10.1092 16.9981 10.4974 17.2855 11.5479C17.367 11.2218 17.4913 10.4974 17.4913 10.4974L17.5592 9.85856L17.6369 7.88185L15.5728 6.16704L13.9592 4.99609L12.9087 5.09709L12.9746 5.24659L12.9747 5.24672Z" fill="#CAA13E"/>
<path fill-rule="evenodd" clip-rule="evenodd" d="M16.8098 8.18819C16.8098 8.18819 16.7806 7.99619 16.2952 7.66979C15.8097 7.34748 15.4311 7.34748 15.0817 7.07369C14.8136 6.85814 14.5341 6.3629 14.3521 6.19983C14.1753 6.03868 14.1462 5.57263 14.1462 5.57263L14.7423 5.07343L15.6289 3.79202L16.3783 2.9668L16.7375 3.466L17.2367 4.05237L17.5143 5.22908L17.6153 6.95145L16.8089 8.18832L16.8098 8.18819Z" fill="#B59544"/>
<path fill-rule="evenodd" clip-rule="evenodd" d="M17.4098 10.253C17.4245 9.99175 17.3922 9.73003 17.3146 9.48022C17.1866 9.08214 16.9069 8.37532 16.777 8.11062C16.7245 7.81737 16.7634 7.79407 16.8197 7.76105C16.876 7.72802 17.0877 7.60745 17.2037 7.18441C17.3197 6.76137 17.6795 6.74754 17.6795 6.74754L17.9008 6.58447L18.2368 7.42518L18.5299 8.18447L18.6212 8.76508L18.6892 9.26018L18.5299 10.3068L17.7436 11.0175L17.4097 10.253H17.4098Z" fill="#C89D3A"/>
<path fill-rule="evenodd" clip-rule="evenodd" d="M6.43701 21.9183V21.8968C6.45335 21.8865 6.46778 21.8736 6.47964 21.8584C6.4932 21.8389 6.50306 21.8156 6.51266 21.8099C6.53212 21.8001 6.62338 21.7714 6.67189 21.7807C6.7204 21.7899 6.84866 21.8427 6.91663 21.8389C7.0564 21.8351 7.21948 21.7282 7.47778 21.7768C7.86613 21.8486 7.9574 22.1127 8.18268 22.2622C8.33628 22.3672 8.49525 22.3205 8.51855 22.3205H8.5709C8.58063 22.3205 8.65244 22.2389 8.69135 22.2429C8.76904 22.2467 8.77672 22.3109 8.82524 22.3147C8.9398 22.3283 9.16124 22.2564 9.27196 22.2856C9.30479 22.2959 9.33464 22.314 9.35898 22.3383C9.38332 22.3626 9.40142 22.3925 9.41173 22.4253C9.43503 22.4971 9.41557 22.5884 9.35925 22.6408C9.23893 22.7514 9.12437 22.8564 9.10108 22.948C9.13071 22.9706 9.15916 22.9947 9.18632 23.0202C8.22558 22.7755 7.30121 22.4053 6.43701 21.9194V21.9183Z" fill="#CEB052"/>
<path fill-rule="evenodd" clip-rule="evenodd" d="M16.7766 18.0389C16.7766 18.0389 17.0795 17.635 17.1844 17.435C17.2893 17.2288 16.8524 14.6176 16.8524 14.6176L17.7301 11.7419L17.7067 10.806C17.7067 10.806 17.7494 9.94184 17.8504 9.56706C17.9709 9.78261 18.3457 10.0428 18.4272 10.1807C18.4656 9.9165 18.596 9.35931 18.5767 8.76514C18.6485 8.87573 18.8213 9.98843 18.8213 9.98843L18.9941 10.7379L19.2194 11.534L19.4699 12.3749L19.6194 12.9555L19.7048 13.0952L19.7768 13.3399L19.8447 13.604L20.0408 14.2234L20.156 14.7321L20.2473 15.6545C20.2671 15.7251 20.2814 15.7972 20.29 15.87C20.2939 15.971 20.2765 16.0293 20.2765 16.0468C20.2765 16.0643 20.3095 16.2681 20.2959 16.4216C20.2765 16.5752 20.2765 16.6954 20.156 16.8056C20.0356 16.9158 19.9599 17.5745 19.9599 17.5745L19.7444 17.4309C19.7444 17.4309 19.7871 17.2346 19.6861 17.0561C19.5851 16.8775 19.389 16.8405 19.2783 16.8697C19.1677 16.893 18.9464 16.9278 18.8745 16.99C18.8065 17.0521 18.6396 17.2444 18.4861 17.3318C18.2941 17.447 17.9812 17.4561 17.8143 17.4949C17.6454 17.5333 17.459 17.6485 17.2628 17.7822C17.1089 17.8818 16.9465 17.9675 16.7774 18.0382L16.7766 18.0389Z" fill="#CCA847"/>
<path fill-rule="evenodd" clip-rule="evenodd" d="M16.7766 22.2816C16.7766 22.2816 16.7894 22.2899 16.8141 22.3035C18.1936 21.6571 19.4297 20.741 20.4493 19.6091C20.4382 19.2161 20.4237 18.8133 20.4078 18.664C20.3749 18.3475 20.3982 18.0252 20.3885 17.8388C20.3788 17.6524 20.274 16.8932 20.2254 16.6971C20.173 16.501 20.0718 16.4038 20.0565 16.4038C20.0429 16.4078 19.9613 16.7728 19.9613 16.8646C19.9613 16.9564 19.9418 17.1773 19.9418 17.2336C19.9282 17.2297 19.9225 17.1952 19.9225 17.1812C19.903 17.2297 19.8797 17.3152 19.87 17.3249C19.8603 17.3346 19.8836 17.2434 19.87 17.2239C19.8564 17.2044 19.8316 17.2142 19.837 17.1657C19.8393 17.1369 19.8438 17.1084 19.8505 17.0803C19.8505 17.0803 19.7923 17.1657 19.7497 17.3831C19.7069 17.5987 19.7069 17.6046 19.6914 17.6239C19.6779 17.6473 19.6002 17.7249 19.5962 17.7541C19.5924 17.8064 19.6681 17.8589 19.6739 17.888C19.6777 17.9366 19.6059 18.1618 19.5826 18.272C19.5593 18.3822 19.5691 18.5981 19.5442 18.7088C19.5248 18.8098 19.5058 18.8681 19.4394 18.9107C19.4879 18.9204 19.5345 18.934 19.5345 18.934C19.5345 18.934 19.6025 19.2213 19.4297 19.4661C19.3676 19.5515 19.3521 19.5904 19.2861 19.6681C19.1559 19.8117 19.0549 19.9753 19.0452 20.0816C19.0384 20.0502 19.0339 20.0184 19.0316 19.9864C19.0316 19.9864 18.8297 20.2214 18.7442 20.3554C18.6336 20.5282 18.4802 20.5185 18.437 20.5612C18.3939 20.604 18.3845 20.6816 18.3986 20.7438C18.3602 20.7534 18.288 20.7671 18.2394 20.9166C18.2161 20.9941 18.1579 21.0702 18.0666 21.1224C17.9753 21.1746 17.8646 21.1904 17.8083 21.2039C17.8568 21.2175 17.8763 21.2175 17.8996 21.233C17.8705 21.2815 17.7365 21.3573 17.587 21.4544C17.4375 21.5457 17.3655 21.6796 17.3287 21.767C17.2903 21.8485 17.2336 21.901 17.1423 21.9108C17.1807 21.934 17.2375 21.9883 17.2666 22.0059C17.2238 22.0156 17.1514 22.0156 17.022 22.1263C16.8861 22.2389 16.8395 22.272 16.7773 22.2817L16.7766 22.2816Z" fill="#C39D3C"/>
<path fill-rule="evenodd" clip-rule="evenodd" d="M14.0749 23.1814C14.1492 23.1293 14.2297 23.0866 14.3146 23.0543C14.6175 22.934 14.9378 22.9107 15.064 22.8719C15.1845 22.8335 15.2796 22.7805 15.4291 22.7515C15.4251 22.7855 15.4218 22.8175 15.4182 22.8477C14.9775 22.9863 14.5286 23.0977 14.0742 23.1814H14.0749Z" fill="#D2BA6B"/>
<path fill-rule="evenodd" clip-rule="evenodd" d="M19.6609 15.2158C19.6609 15.2158 19.5988 15.5517 19.4881 15.7634C19.3774 15.9751 19.2577 16.2682 19.2577 16.2682C19.2584 16.2022 19.2662 16.1364 19.281 16.072C19.1412 16.1535 18.8014 16.3498 18.705 16.437C18.6137 16.5186 18.4603 16.6623 18.4215 16.7303C18.5127 16.4624 18.6078 16.2216 18.6235 16.1109C18.4837 16.2119 17.8311 16.7498 17.4914 17.1051L16.4331 17.9614C16.311 18.0273 16.1852 18.0862 16.0564 18.1378C15.874 18.2154 15.6585 18.2814 15.4992 18.3436C15.542 18.229 15.6098 18.1279 15.7051 18.0309C15.8061 17.9358 16.1089 17.6076 16.1555 17.4549C16.1983 17.2957 16.208 17.2006 16.1517 17.0666C16.0992 17.0801 15.9789 17.086 15.8973 17.1093C15.8158 17.1326 15.7284 17.2199 15.7284 17.2199C15.7284 17.2199 15.7904 16.8646 15.9245 16.5287C15.8235 16.5325 15.6507 16.5616 15.6507 16.5616C15.6507 16.5616 15.8914 16.1578 16.3035 15.8763C16.1773 15.9031 16.0538 15.9414 15.9346 15.9907C15.6938 16.0917 15.4297 16.2412 15.2336 16.3227C15.3442 16.1691 16.1209 15.0607 16.5831 14.0276C17.0439 12.9965 17.2161 12.7325 17.3171 12.1791C17.3695 11.9053 17.3555 11.5007 17.3695 11.1384C17.383 10.7791 17.4277 10.4568 17.3986 10.2412C17.519 10.3907 17.9695 10.8121 17.985 11.7539C17.9986 12.6956 17.554 13.9675 17.0821 14.6529C17.1973 14.6859 17.4958 14.7248 17.8025 14.1921C18.1092 13.6593 18.1055 13.5106 18.2162 13.2891C18.2297 13.3999 18.2258 13.4387 18.2258 13.4387C18.2258 13.4387 18.6725 12.897 18.8841 12.2154C18.9268 12.5086 19.053 12.7669 18.8549 13.3048C18.6783 13.7901 18.4472 13.9087 18.4472 13.9087C18.4472 13.9087 18.5618 13.8892 18.7306 13.7882C18.7598 13.86 18.754 13.9418 18.8025 13.9707C18.851 13.9997 18.9171 14.0484 18.9268 14.095C18.9792 14.0173 19.0607 13.9183 19.0861 13.8445C19.0666 13.9981 19.053 14.6698 19.1245 15.0115C19.2741 14.9979 19.4274 14.9882 19.5323 14.7183C19.4605 14.9825 19.4605 15.1416 19.509 15.3668C19.5886 15.3126 19.6604 15.2154 19.6604 15.2154L19.6609 15.2158Z" fill="#C0993A"/>
<path fill-rule="evenodd" clip-rule="evenodd" d="M14.6157 4.51255C14.6157 4.51255 14.4662 4.57463 14.2118 4.57463C13.9905 4.57463 14.0526 4.48926 13.707 4.48926C13.175 4.48926 11.3167 4.79646 10.9904 4.79211C10.7787 4.78827 11.7049 4.88337 11.7049 4.88337L14.072 4.91639L14.5477 4.87799L14.7245 4.51831L14.6157 4.51255Z" fill="#A88F33"/>
<path fill-rule="evenodd" clip-rule="evenodd" d="M8.4777 9.13992C8.4777 9.13992 8.17472 9.37096 8.04659 9.54773C7.91847 9.7245 7.8505 9.84085 7.70483 9.98459C7.73903 9.9859 7.77319 9.98131 7.80583 9.97103C7.80583 9.97103 7.80583 10.0094 7.78253 10.0195C7.80266 10.0173 7.82304 10.0196 7.84218 10.0262C7.86131 10.0329 7.87872 10.0437 7.89312 10.0579C7.85037 10.0812 7.73389 10.1978 7.82515 10.3357C7.89312 10.4405 8.03687 10.4501 8.03687 10.4501C8.03687 10.4501 8.00384 10.5454 8.1417 10.5356C8.43879 10.5221 8.77082 10.3919 8.92416 10.4249C9.07776 10.4633 9.16506 10.4774 9.27373 10.6658C9.38893 10.8522 9.48928 10.8814 9.48928 10.8814C9.48928 10.8814 9.55725 10.7084 9.54176 10.4503C9.59749 10.3111 9.62838 10.1632 9.63303 10.0134L9.53203 9.26971L9.09133 8.7124L8.52045 9.02895L8.4777 9.13954V9.13992Z" fill="#E3C571"/>
<path fill-rule="evenodd" clip-rule="evenodd" d="M9.01929 9.02929C9.01929 9.02929 9.06204 9.13028 9.24073 9.13988C9.22127 9.18263 9.22127 9.18852 9.22716 9.22142C9.231 9.25444 9.23676 9.30295 9.23676 9.30295C9.25643 9.29343 9.27421 9.28042 9.28924 9.26455C9.29897 9.3073 9.27951 9.37514 9.28924 9.42378C9.29524 9.45337 9.30501 9.48206 9.31829 9.50916C9.32113 9.50252 9.32438 9.49606 9.32802 9.48983C9.33186 9.4801 9.36642 9.59466 9.46204 9.68183C9.46196 9.66843 9.46526 9.65522 9.47164 9.64343C9.4731 9.66778 9.48116 9.69127 9.49493 9.7114C9.48778 9.70799 9.48125 9.7034 9.47561 9.69783C9.47561 9.69783 9.48521 10.005 9.53769 10.1639C9.54646 10.1536 9.55426 10.1426 9.56098 10.1309C9.56098 10.1213 9.55714 10.2164 9.54742 10.2845C9.53385 10.3524 9.54357 10.4475 9.54357 10.4475C9.57858 10.42 9.61706 10.3971 9.65801 10.3796C9.71625 10.3561 9.81161 10.2843 9.86972 10.1251C9.90343 10.0349 9.92942 9.94204 9.94742 9.84746C9.96619 9.88361 9.97915 9.92248 9.98582 9.96266C9.98978 10.0112 10.081 9.98596 10.081 9.98596L10.1005 9.77425L10.2157 9.29463L10.3205 8.99754L10.8254 8.21124L11.7375 7.50878L12.5337 7.6913L13.2054 6.77866L12.0482 6.0835L10.953 6.19806L9.95906 7.5747L9.16303 8.82334L9.01929 9.02916V9.02929Z" fill="#D8B65B"/>
<path fill-rule="evenodd" clip-rule="evenodd" d="M14.7553 7.03689C14.7553 7.03689 14.6873 7.05046 14.4912 7.15209C14.2951 7.25372 14.1592 7.28598 14.0834 7.43548C14.0076 7.58498 14.0019 7.70351 14.0019 7.70351C14.0019 7.70351 14.1359 7.64527 14.2136 7.62582C14.2951 7.60649 14.3864 7.61225 14.3767 7.64527C14.3673 7.66792 14.3543 7.68889 14.3383 7.70735C14.3383 7.70735 14.4919 7.70351 14.4878 7.77929C14.4837 7.85506 14.4587 7.93852 14.4296 7.97538C14.4005 8.01378 14.2801 8.07062 14.2666 8.11529C14.2336 8.20655 14.2801 8.21039 14.2626 8.28412C14.249 8.35606 14.185 8.49583 13.9753 8.74044C13.7597 8.98518 13.6681 9.15798 13.6681 9.15798C13.6681 9.15798 13.5632 8.96188 13.5088 8.79292C13.4704 8.81225 13.2642 8.92681 13.2642 8.92681L12.7865 7.26281L12.7961 7.15209C12.7961 7.15209 12.8389 7.09974 12.8486 7.00258C12.7768 6.97929 12.7671 6.95983 12.6718 6.8687C12.5766 6.77756 12.499 6.66671 12.3399 6.59094C12.3166 6.54818 12.2875 6.49007 12.171 6.46665C12.0545 6.44322 11.9846 6.42402 11.9846 6.42402C11.9846 6.42402 12.0467 6.4006 12.0759 6.35209C12.0039 6.36182 11.9458 6.38511 11.7885 6.38127C11.6293 6.3773 11.6117 6.37154 11.5245 6.38511C11.4372 6.39868 11.3325 6.43759 11.2934 6.30358C11.2507 6.27055 11.1594 6.29974 11.0817 6.41417C11.004 6.5286 10.9769 6.61999 10.8274 6.66466C10.8169 6.73057 10.7938 6.79383 10.7594 6.85103C10.7166 6.92297 10.6487 6.99478 10.5574 7.10153C10.4137 7.27049 10.437 7.54812 10.2079 7.75983C9.97681 7.97142 10.2463 7.17334 10.2463 7.17334L10.6151 6.29014L11.6656 5.26294L13.2967 5.15234L13.456 5.99714L14.2521 6.27094L14.755 7.03791L14.7553 7.03689Z" fill="#D3AE4D"/>
<path fill-rule="evenodd" clip-rule="evenodd" d="M15.0136 7.22311L14.3281 6.23483L13.8485 5.8658C13.8485 5.8658 13.5068 5.23681 13.4835 5.21735C13.464 5.20379 13.1417 5.16884 12.9359 5.15527L12.9743 5.25038C13.0192 5.26497 13.0592 5.29189 13.0895 5.32807C13.1808 5.43291 13.239 5.63092 13.0313 5.84263C13.1128 5.87169 13.1465 5.88103 13.2176 5.87169C13.1458 5.95719 12.9828 6.13972 12.973 6.29895C12.9633 6.429 13.0448 6.46779 13.0448 6.46779C13.0448 6.46779 12.9206 6.61153 12.9148 6.85179C12.9735 6.7856 13.0377 6.72453 13.1068 6.66926C13.2505 6.55406 13.4485 6.42452 13.5826 6.34299C13.5807 6.3772 13.5853 6.41146 13.5961 6.44398C13.5961 6.44398 13.8465 6.23815 14.0569 6.32942C14.152 6.37217 14.1093 6.50619 14.1093 6.50619C14.1093 6.50619 14.2394 6.45767 14.3307 6.54894C14.422 6.6402 14.552 6.87508 14.618 6.96647C14.6471 7.00923 14.7229 7.09076 14.8004 7.21684C14.9064 7.39357 14.9949 7.58023 15.0646 7.77415C15.0685 7.69646 15.0841 7.58779 15.2182 7.58779L15.0143 7.22273L15.0136 7.22311Z" fill="#CAA13E"/>
<path fill-rule="evenodd" clip-rule="evenodd" d="M4.73787 10.0309C4.73787 10.0309 4.68936 9.91049 4.73787 9.67561C4.78638 9.44073 4.86216 9.33001 4.88738 8.98441C4.91259 8.63881 5.13788 8.20771 5.13788 8.20771L5.76112 7.92432L6.20195 8.04464L6.332 8.63497L5.77468 8.94217C5.77468 8.94217 5.74563 9.07222 5.58831 9.17705C5.431 9.28188 5.21352 9.36342 5.16117 9.4703C5.12987 9.53575 5.10703 9.60491 5.0932 9.67612C5.0932 9.67612 4.93397 9.6431 4.83886 9.74793C4.73787 9.85481 4.74171 9.94992 4.73787 10.0315V10.0309Z" fill="#F4EFC8"/>
<path fill-rule="evenodd" clip-rule="evenodd" d="M5.99612 9.87383C5.99612 9.87383 5.94364 9.90686 5.90485 9.98903C5.86645 9.92695 5.77468 9.55793 5.77084 9.2259C5.767 8.89387 5.74716 8.81157 5.82396 8.69714C5.90076 8.58271 6.20194 8.46213 6.15919 8.25606C6.11644 8.05996 5.93775 7.97843 5.71836 8.03475C5.56476 8.07315 5.45045 8.3998 5.29122 8.56287C5.17077 8.68716 5.02716 8.6677 4.98837 8.73567C4.93589 8.82693 4.98441 8.91819 4.96892 8.97643C4.96495 8.99589 4.91644 9.10072 4.82901 9.22693C4.65237 9.48126 4.35337 9.84055 4.31445 10.1629C4.32802 9.98033 4.31842 9.97649 4.36693 9.77451L4.33775 9.726L4.52975 9.09688L4.65404 8.57849L4.9318 7.7104L5.42101 6.82311L5.89679 6.29102L6.39189 6.32404L6.45013 7.06771L6.73365 8.46393L7.32975 9.19787L6.37436 9.84081L5.99573 9.87383H5.99612Z" fill="#EBCC73"/>
<path fill-rule="evenodd" clip-rule="evenodd" d="M6.29314 10.1375C6.29314 10.1375 6.2116 10.1569 6.18242 10.1414C6.15323 10.126 6.12431 10.1084 6.13391 10.089C6.14351 10.0695 6.19599 10.0366 6.19599 10.021C6.19706 10.0069 6.1926 9.9929 6.18354 9.98203C6.17448 9.97115 6.16155 9.96424 6.14747 9.96275C6.1028 9.95699 6.08923 9.98604 6.08923 9.98604C6.08923 9.98604 6.04648 9.95315 6.01167 9.94764C6.03226 9.94512 6.05299 9.9438 6.07374 9.94367C6.02009 9.91937 5.96317 9.90302 5.90479 9.89516C5.9533 9.8661 6.04853 9.7806 6.11061 9.7806C6.17269 9.7806 6.2116 9.771 6.20187 9.73797C6.19215 9.70495 6.14363 9.65644 6.09128 9.63698C6.11061 9.61368 6.1243 9.57874 6.07771 9.48338C6.02907 9.38827 6.04853 9.32414 6.06414 9.30097C6.07771 9.27179 6.12623 9.21943 6.14952 9.18641C6.17282 9.15338 6.19227 9.10871 6.23106 9.08541C6.25051 9.07184 6.31259 9.04701 6.3748 9.02333C6.44277 9.00003 6.49909 8.97085 6.53787 9.00003C6.58063 9.02909 6.56117 9.068 6.56117 9.068C6.56117 9.068 6.69518 9.01936 6.8155 9.08157C6.93595 9.13969 7.2292 9.17668 7.2292 9.17668L7.33429 9.3884L6.63912 9.98451L6.35176 10.1283L6.29352 10.1379L6.29314 10.1375Z" fill="#E5C66B"/>
<path fill-rule="evenodd" clip-rule="evenodd" d="M7.2583 9.16311C7.2583 9.16311 7.04275 9.30685 6.99424 9.35921C7.0233 9.36317 7.07181 9.38263 7.05235 9.41169C7.02906 9.44074 6.88928 9.54174 6.81158 9.63697C6.73005 9.73207 6.65235 9.85252 6.62522 9.91076C6.59616 9.96311 6.37472 10.1166 6.29907 10.1359C6.4583 10.1359 6.77869 9.93981 6.89901 9.93981C6.89517 9.99805 6.93203 10.0641 7 10.0699C7.06797 10.0756 7.26406 10.1126 7.52813 9.94954C7.79219 9.79031 7.7049 9.67178 7.81549 9.59421C8.0272 9.45431 8.11258 9.33002 8.22906 9.25245C8.34554 9.17489 8.40582 9.15722 8.40582 9.15722C8.40582 9.15722 8.40966 9.09898 8.44422 9.10487C8.45368 9.10596 8.46267 9.1096 8.4702 9.11543C8.47774 9.12125 8.48354 9.12902 8.48698 9.13789C8.48698 9.13789 8.68896 8.99415 8.94778 8.95537C8.94174 8.95267 8.93691 8.94784 8.93421 8.9418C8.93421 8.9418 8.95354 8.93207 8.9575 8.92234C8.9575 8.92234 8.97107 8.90289 8.9808 8.91261C8.99053 8.92234 9.0041 8.99415 9.02355 9.02333C9.06631 9.00388 9.14784 8.82135 9.14784 8.82135L9.34406 8.2602V7.74756L9.19046 7.77674L8.03846 8.26596L7.33933 8.99031L7.25779 9.16311H7.2583Z" fill="#E6BD62"/>
<path fill-rule="evenodd" clip-rule="evenodd" d="M10.5747 6.64861C10.637 6.63349 10.6967 6.60925 10.7519 6.57667C10.7286 6.63888 10.7286 6.70685 10.6276 6.85443C10.5267 7.00201 10.5228 7.02339 10.4413 7.17673C10.3597 7.33596 10.35 7.56508 10.2723 7.66594C10.3071 7.64902 10.3445 7.63791 10.3829 7.63304C10.3829 7.63304 10.3053 7.70101 10.2723 7.77282C10.2393 7.84463 10.1811 7.99413 10.0374 8.08552C9.89382 8.17691 9.71117 8.23502 9.51507 8.45057C9.31885 8.66215 9.11699 8.93018 9.01587 9.02657C9.06835 8.9353 9.14016 8.75278 9.15961 8.63246C9.17907 8.51214 9.15565 8.36827 9.18867 8.20917C9.22169 8.05006 9.22169 7.93538 9.38067 7.65762C9.53965 7.37986 9.81177 6.41488 9.81177 6.41488L10.3981 6.22852L10.5749 6.64797L10.5747 6.64861Z" fill="#B6933F"/>
<path fill-rule="evenodd" clip-rule="evenodd" d="M10.1513 6.29321C10.1513 6.29321 9.9747 6.54754 9.92618 6.77282C9.87767 6.9981 9.92222 6.97865 9.89316 7.08937C9.87578 7.15687 9.87578 7.22768 9.89316 7.29519C9.95434 7.19663 10.0381 7.11406 10.1375 7.05429C10.3045 6.95343 10.4405 6.88149 10.5215 6.79612C10.603 6.70485 10.671 6.55535 10.8476 6.44079C10.7758 6.43106 10.6749 6.39804 10.6557 6.40239C10.7276 6.32085 10.943 6.19657 11.1605 6.04706C11.376 5.89346 11.3625 5.83151 11.712 5.67816C11.5975 5.69762 11.5431 5.66844 11.4478 5.67816C11.4862 5.59663 11.6206 5.55772 11.755 5.42383C11.8894 5.28994 11.6697 5.0918 11.6697 5.0918L10.6457 5.71119L10.1506 6.29372L10.1513 6.29321Z" fill="#C49937"/>
<path fill-rule="evenodd" clip-rule="evenodd" d="M7.3728 5.83123L7.3961 5.64486L7.68935 5.17498L7.99616 4.34976V3.22158L7.97287 2.56916L8.02138 2.1419L8.05824 2.00609L8.09715 1.95361L8.34752 2.08366L8.69325 2.55355L8.72627 3.46042L8.39027 4.89146L7.43104 5.93811L7.3728 5.83123Z" fill="#DFC068"/>
<path fill-rule="evenodd" clip-rule="evenodd" d="M8.13597 1.90081C8.13597 1.90081 7.98237 1.90478 7.9496 2.54363C7.91683 3.18248 7.90096 3.51835 7.87766 3.8349C7.85437 4.15145 7.80009 4.34357 7.77283 4.53007C7.74557 4.71657 7.73008 4.97078 7.64278 5.12617C7.60438 5.19798 7.52233 5.42326 7.33008 5.59222C7.11453 5.77859 6.79248 5.90877 6.74371 5.9185C6.65821 5.93782 6.22518 5.98058 6.04854 6.07773C5.98646 6.11075 5.87958 6.14954 5.76118 6.26026C5.52618 6.47184 5.2136 6.85047 4.98832 7.30679C4.64272 7.9884 4.29712 9.91263 4.29712 9.91263L4.37482 9.78258C4.37482 9.78258 4.38454 9.60978 4.55734 9.3068C4.7263 9.00395 4.67779 8.66411 4.91267 8.0835C5.00394 7.86219 5.11849 7.57483 5.25827 7.33009C5.47971 6.93201 5.74762 6.59024 6.01757 6.40387C6.45827 6.10103 6.94377 6.03498 6.94377 6.03498L7.46614 5.68937C7.46614 5.68937 7.55741 5.51273 7.67786 5.31075C7.84669 5.02735 8.06185 4.71081 8.10883 4.25065C8.18077 3.56904 8.00784 3.12245 8.01757 2.71861C8.02729 2.31476 8.03113 2.01767 8.1128 1.94574C8.19446 1.8738 8.1361 1.90106 8.1361 1.90106L8.13597 1.90081Z" fill="#A88F33"/>
<path fill-rule="evenodd" clip-rule="evenodd" d="M8.136 4.94945C8.136 4.94945 8.3664 4.38241 8.47188 3.8795C8.49133 3.77851 8.53012 3.67765 8.53985 3.59611C8.58836 3.12034 8.60193 2.92424 8.53985 2.66402C8.49133 2.47202 8.30496 2.29896 8.20781 2.16482C8.1127 2.02491 8.06803 1.97282 8.08748 1.94338C8.10694 1.91394 8.18259 1.86581 8.25632 1.87157C8.33469 1.87385 8.41178 1.89205 8.48291 1.92505C8.55403 1.95806 8.61769 2.00519 8.67003 2.06357C8.81953 2.23637 8.93794 2.82286 8.93794 2.82286L9.06248 3.59675L9.37903 4.57147L8.13625 4.95022L8.136 4.94945Z" fill="#C99E3D"/>
<path fill-rule="evenodd" clip-rule="evenodd" d="M10.3009 4.35911C10.3009 4.35911 10.2581 4.37844 10.1806 4.35911C10.1839 4.39081 10.1784 4.42281 10.1647 4.45158C10.151 4.48035 10.1296 4.50478 10.1029 4.52218C10.0213 4.48916 9.25808 4.55521 9.25808 4.55521C9.25808 4.55521 8.90275 4.493 8.79203 4.02311C8.71446 3.71041 8.85027 3.27943 8.8056 2.99591C8.73763 2.57838 8.64253 2.49671 8.6328 2.36679C8.62307 2.23687 8.61334 2.20372 8.61334 2.12218C8.57059 2.11246 8.54537 2.09889 8.50275 2.09889C8.49302 2.06049 8.51235 2.02695 8.46973 1.95898C8.49302 1.96871 8.65225 1.98817 8.83862 2.16481C8.99222 2.30855 8.99222 2.3609 9.01539 2.39009C9.04445 2.41914 9.27945 2.62049 9.38045 2.82119C9.48144 3.0219 9.67753 3.6619 9.72221 3.76673C9.73577 3.80948 9.76496 3.85223 9.83741 3.94926C9.95005 4.08916 10.115 4.32046 10.3014 4.35886L10.3009 4.35911Z" fill="#B58634"/>
<path fill-rule="evenodd" clip-rule="evenodd" d="M9.04272 2.3999C9.16035 2.58992 9.26603 2.78708 9.35914 2.99024C9.4737 3.24841 9.54167 3.46013 9.68541 3.63293C9.60772 3.40777 9.46986 2.96502 9.38832 2.80771C9.29706 2.64131 9.11069 2.46211 9.04272 2.40003V2.3999Z" fill="#A88F33"/>
<path fill-rule="evenodd" clip-rule="evenodd" d="M7.72242 5.59241C7.72242 5.59241 7.52633 5.64092 7.16127 5.83318C7.04083 5.89526 6.92639 5.94761 6.81568 5.99625C6.52806 6.1263 6.21958 6.24649 5.97485 6.3128C5.99431 6.33609 6.00391 6.34569 6.00391 6.34569C6.00391 6.34569 6.00391 6.44093 6.05639 6.4952C6.02733 6.52438 5.63885 6.78844 5.75354 7.6719C5.83111 7.64284 5.92237 7.60393 5.93594 7.60393C5.95936 7.6079 5.96512 7.6719 5.99418 7.6719C6.02323 7.6719 6.11846 7.6335 6.21946 7.50294C6.21562 7.55542 6.15738 8.08355 6.46995 8.43888C6.52819 8.37091 6.67577 8.14563 6.67577 8.14563L6.67961 8.07382C6.67961 8.07382 6.69318 7.82332 6.77484 7.5942C6.85651 7.36508 7.01561 7.19613 7.01561 7.19613L7.84645 6.00969L7.72216 5.59229L7.72242 5.59241Z" fill="#E6C367"/>
<path fill-rule="evenodd" clip-rule="evenodd" d="M6.94574 7.33425C6.9077 7.36113 6.86579 7.38206 6.82145 7.39633C6.80788 7.34781 6.78843 7.18077 6.90299 7.0177C7.037 6.82148 7.33012 6.56714 7.41166 6.3649C7.46414 6.23473 7.44084 5.90858 7.90689 5.49105C8.37294 5.07351 8.55534 4.92989 8.55534 4.92989L9.30875 4.55127L10.235 4.91633L9.7748 6.71985L9.41755 7.56465L7.99675 7.29674L6.94561 7.33425H6.94574Z" fill="#DCBA5A"/>
<path fill-rule="evenodd" clip-rule="evenodd" d="M7.48804 6.84444L7.66481 6.62312V6.46581C7.66481 6.46581 7.8609 6.41333 8.07249 6.19778C8.28408 5.98223 8.57733 5.56866 8.83563 5.59388C9.09394 5.62306 9.11916 6.15503 9.12888 6.30466C9.13861 6.45429 9.17164 6.79388 9.22399 6.97653C9.28223 7.15906 8.59486 7.85026 8.59486 7.85026L8.12804 8.20559L7.48804 6.84444Z" fill="#E9CE77"/>
<path fill-rule="evenodd" clip-rule="evenodd" d="M8.03491 8.68741C8.03491 8.68741 8.17865 8.46213 8.07331 8.41362C8.13539 8.27384 8.24995 8.12626 8.24995 8.12626C8.24995 8.12626 8.33148 7.9244 8.59554 7.67582C8.85959 7.42725 9.02279 7.26213 9.06554 7.09522C9.09189 6.98644 9.10623 6.87509 9.10829 6.76318C9.13684 6.78651 9.16737 6.80728 9.19955 6.82526C9.2423 6.84472 9.44415 7.01163 9.4151 7.34763C9.38604 7.68363 9.2615 7.82341 9.2615 7.82341C9.2615 7.82341 9.14119 7.94373 9.05581 8.00594C8.96442 8.06802 8.93153 8.13982 8.77806 8.14571C8.79383 8.13317 8.81156 8.12331 8.83054 8.11653C8.83054 8.11653 8.67131 8.0972 8.58581 8.17477C8.50031 8.25234 8.31855 8.49131 8.22729 8.56325C8.13603 8.62149 8.0353 8.68754 8.0353 8.68754L8.03491 8.68741Z" fill="#CDAE50"/>
<path fill-rule="evenodd" clip-rule="evenodd" d="M14.4912 4.91039C14.2618 4.82679 14.0207 4.77962 13.7767 4.77062C13.3689 4.75705 12.7728 4.78035 12.1883 4.78419C11.5592 4.78803 10.9883 4.56863 10.1961 4.52985C10.0661 4.45215 9.73533 4.11231 8.70288 4.8327C8.76496 4.82886 9.45245 4.67347 9.69117 4.9726C9.93194 5.26969 9.86397 5.77452 9.83107 5.89484C9.76886 6.16287 9.56688 6.55315 9.48547 6.82694C9.40406 7.10073 9.42327 7.2446 9.36503 7.4366C9.30679 7.6286 9.17866 7.72396 9.25431 7.94527C9.3553 7.88319 9.4079 7.88319 9.57661 7.50457C9.74531 7.12595 9.71062 6.85599 9.9903 6.53561C10.2641 6.21331 10.7199 5.77247 10.8932 5.66175C11.0665 5.55103 12.4427 4.83654 13.8836 5.51814C14.2311 5.48127 14.4913 4.91027 14.4913 4.91027L14.4912 4.91039Z" fill="#D2A83E"/>
<path fill-rule="evenodd" clip-rule="evenodd" d="M9.2835 4.64642C9.28207 4.63183 9.27885 4.61747 9.2739 4.60367C9.26042 4.57527 9.24273 4.54908 9.22141 4.52597C9.22141 4.52597 8.87965 4.46389 8.70684 4.48322C8.40386 4.51625 8.13006 4.89103 8.00193 5.08329C7.8738 5.27555 7.71456 5.57251 7.54176 5.72599C7.54365 5.71104 7.5402 5.6959 7.53203 5.68324C7.53203 5.68324 7.54176 5.6968 7.52243 5.71626C7.5031 5.73572 7.50297 5.74532 7.5127 5.75466L7.54188 5.78372C7.55148 5.78372 7.81952 5.66327 8.18459 5.32291C8.57295 4.96758 8.87005 4.78531 9.02544 4.72284C9.10831 4.68762 9.19494 4.66199 9.28362 4.64642H9.2835Z" fill="#C29637"/>
<path fill-rule="evenodd" clip-rule="evenodd" d="M15.9128 3.18652C15.9128 3.18652 15.8506 3.26409 15.7729 3.3496C15.6001 3.53212 15.3748 3.73782 15.1826 3.94953C15.0002 4.15152 14.7943 4.30883 14.5632 4.57289C14.332 4.83696 14.064 5.13008 13.9961 5.21558C13.934 5.30108 13.8855 5.44086 13.8855 5.51267C13.8525 5.48937 13.8137 5.46416 13.8137 5.46416C13.83 5.49464 13.8496 5.5233 13.872 5.54966C13.9205 5.61763 13.9961 5.70326 14.035 5.75548C14.0828 5.82197 14.117 5.89715 14.1359 5.9768C14.1592 5.98064 14.3087 6.00982 14.4952 5.703C14.6817 5.39619 14.9262 5.06032 14.9262 5.06032L15.3145 4.48355L15.5593 3.99433L15.8665 3.44675L15.9132 3.18652H15.9128Z" fill="#AC8132"/>
<path fill-rule="evenodd" clip-rule="evenodd" d="M16.3107 2.79443C16.3107 2.79443 16.0757 2.98643 15.9844 3.10163C15.8932 3.21683 15.6772 3.51917 15.6772 3.51917L15.7549 3.50944L16.1492 3.16L16.3028 2.88621L16.3106 2.79495L16.3107 2.79443Z" fill="#A88F33"/>
<path fill-rule="evenodd" clip-rule="evenodd" d="M16.2388 18.2251C16.2388 18.2251 16.235 18.0659 16.3243 17.9708C16.4156 17.8756 16.6466 17.7358 16.8719 17.2115C17.0972 16.6872 17.1223 16.5688 17.1223 16.5688C17.1223 16.5688 16.7184 16.9144 16.4695 16.996C16.5277 16.8755 16.5607 16.7901 16.5899 16.7279C16.5569 16.6989 16.4171 16.6658 16.4036 16.6504C16.4811 16.5727 16.5239 16.3823 16.6812 16.2561C16.8832 16.1025 17.2521 15.8386 17.5388 15.6033C17.8255 15.3681 18.3892 14.8209 18.4612 14.6616C18.5039 14.7237 18.5135 14.7625 18.5135 14.7625C18.5135 14.7625 18.2301 15.1315 18.0825 15.3664C17.9524 15.5684 17.9621 15.6829 17.9621 15.6829L18.2301 15.5677C18.2301 15.5677 18.3077 15.8551 17.9563 16.2921C18.1099 16.2338 18.1719 16.2688 18.2592 16.2201C18.1154 16.3115 17.9174 16.4358 17.731 16.7775C17.5485 17.1192 17.2999 17.5173 16.8806 17.7657C16.4728 18.0279 16.2378 18.224 16.2378 18.224L16.2388 18.2251Z" fill="#A67A2E"/>
<path fill-rule="evenodd" clip-rule="evenodd" d="M15.1864 5.11266C15.1864 5.11266 15.0272 5.44456 15.0039 5.70287C15 5.76507 14.9844 5.81359 14.9844 5.88539C14.9806 6.11643 14.998 6.37474 14.946 6.49506C14.9266 6.44655 14.9168 6.41352 14.8974 6.39419C14.8683 6.47573 14.8159 6.73007 14.7731 6.82517C14.7538 6.76309 14.711 6.54754 14.715 6.2932C14.719 6.03887 14.7246 5.99023 14.7246 5.93787C14.715 6.01544 14.6625 6.1204 14.6431 6.18248C14.614 6.13013 14.581 6.06216 14.5421 6.00584C14.5188 6.04424 14.4897 6.10095 14.4645 6.13013C14.4605 6.10683 14.4509 6.04463 14.4451 5.95733C14.4412 5.85634 14.4353 5.72629 14.4412 5.69903C14.4508 5.64667 14.5325 5.44085 14.7053 5.25243C14.9111 5.02715 15.1228 4.59426 15.1849 4.46024C15.2469 4.32623 15.511 3.76904 15.511 3.76904H15.713L15.4197 4.43695C15.4197 4.43695 15.2431 4.802 15.1518 4.93615C15.0606 5.07029 14.8683 5.45467 14.7828 5.60418C14.8449 5.52264 14.8974 5.47989 14.9596 5.40219C15.0198 5.34779 15.1867 5.11292 15.1867 5.11292L15.1864 5.11266Z" fill="#8C6228"/>
<path fill-rule="evenodd" clip-rule="evenodd" d="M16.3146 2.76904C16.2816 2.87059 16.2294 2.96487 16.161 3.0468C16.0405 3.19055 15.7822 3.38267 15.6562 3.53602C15.541 3.68552 15.3106 4.09333 15.4153 4.57679C15.4537 4.47195 15.526 4.26421 15.7182 4.0292C15.9105 3.79419 16.1163 3.52437 16.2174 3.31471C16.3183 3.103 16.3318 2.93608 16.3318 2.93608L16.3702 2.88757L16.3469 2.77685L16.3139 2.76904H16.3146Z" fill="#CBA94C"/>
<path fill-rule="evenodd" clip-rule="evenodd" d="M20.2468 15.6485C20.2468 15.6485 20.1691 15.437 20.1458 15.2447C20.1225 15.0524 20.1842 15.0143 20.1127 14.7943C20.07 14.6603 19.9924 14.6791 19.973 14.6603C19.9535 14.6414 19.9399 14.4389 19.9438 14.3282C19.9476 14.2175 19.9399 14.0739 19.9205 14.0117C19.8914 13.9884 19.872 13.9689 19.8292 13.8253C19.7807 13.6816 19.7574 13.6098 19.7341 13.5671C19.7108 13.5245 19.6427 13.4856 19.6427 13.4429C19.6427 13.3574 19.7204 13.3128 19.7204 13.2893C19.7166 13.2407 19.6583 13.2797 19.6427 13.266C19.6234 13.2427 19.6914 13.1029 19.6661 13.0834C19.6564 13.0738 19.5885 13.1554 19.5709 13.1321C19.5515 13.1087 19.5282 12.8776 19.4932 12.7243C19.4603 12.5748 19.4253 12.4661 19.4214 12.4214C19.4176 12.3787 19.1534 11.6253 19.0894 11.4427C19.0378 11.2885 18.9944 11.1317 18.9593 10.9729C18.9399 10.8816 18.9263 10.6951 18.9166 10.7146C18.9068 10.734 18.9127 10.8291 18.8971 10.8253C18.8836 10.8213 18.835 10.4894 18.8196 10.4369C18.806 10.3844 18.7243 10.2065 18.7044 10.0778C18.6849 9.94759 18.6423 9.60775 18.6131 9.37671C18.5839 9.14567 18.5703 9.05057 18.5703 8.99271C18.5751 8.8512 18.5673 8.70955 18.547 8.56942C18.5086 8.32468 18.4318 8.0276 18.3645 7.85493C18.2345 7.52866 17.8887 6.69372 17.8269 6.48598C17.8269 6.4335 17.8949 6.46268 17.8949 6.46268C17.8949 6.46268 18.0637 6.88597 18.188 7.21212C18.3084 7.53839 18.423 7.82574 18.4522 7.85493C18.4755 7.88398 18.658 8.20437 18.7396 8.72865C18.8211 9.25293 18.8501 9.73639 18.8988 10.0587C18.9221 10.2123 18.9415 10.3752 18.99 10.5383C19.0424 10.7151 19.1239 10.8976 19.2308 11.1771C19.3221 11.4122 19.3901 11.6082 19.4269 11.7772C19.4697 11.9928 19.4697 12.1558 19.4949 12.2627C19.5183 12.354 19.5531 12.5364 19.6348 12.8003C19.7165 13.0642 19.8366 13.4042 19.9182 13.6158C20.0775 14.0391 20.1486 14.3925 20.1726 14.5809C20.1939 14.7751 20.2658 15.4469 20.2464 15.6488L20.2468 15.6485Z" fill="#A88F33"/>
<path fill-rule="evenodd" clip-rule="evenodd" d="M16.3243 2.74576L16.3146 2.76906C16.3146 2.76906 16.3437 2.77879 16.3379 2.8177C16.3383 2.87094 16.3351 2.92414 16.3282 2.97693C16.3186 3.0449 16.2991 3.09725 16.2953 3.14C16.2953 3.23127 16.3088 3.3361 16.1801 3.59633C16.1417 3.66814 16.118 3.73022 16.0985 3.77297C16.05 3.8778 16.0403 3.89342 15.9976 3.94193C16.0655 3.90353 16.3102 3.74993 16.4344 3.77297C16.349 3.82148 16.2189 3.91671 16.1373 4.041C16.1568 4.04484 16.2383 4.06046 16.3677 4.041C16.5833 4.00798 16.824 3.93028 17.0356 3.94577C17.2668 3.95934 17.1755 3.66814 17.1755 3.66814L16.9088 3.08176L16.4039 2.72656L16.3243 2.74589V2.74576Z" fill="#BE9C44"/>
<path fill-rule="evenodd" clip-rule="evenodd" d="M17.6407 7.13779C17.6407 7.13779 17.4155 6.91251 17.3242 6.13938C17.2329 5.36267 17.2524 4.21936 17.2524 4.21936L17.0699 3.77276C17.0699 3.77276 17.0315 3.47567 16.9358 3.36508C16.8402 3.25449 16.6524 3.06799 16.5669 2.97672C16.4814 2.88546 16.3844 2.76117 16.3262 2.74171C16.3552 2.6932 16.4854 2.41941 16.9843 2.41557C17.4833 2.41173 17.6371 2.68936 17.6892 2.79035C17.7413 2.89135 17.9766 3.32796 18.0639 4.15997C18.1454 4.99095 18.1494 5.05316 18.1358 5.34052C18.1261 5.49976 18.0736 5.86866 17.9822 6.26277C17.8988 6.59686 17.8075 6.96972 17.6405 7.13856L17.6407 7.13779Z" fill="#A17C34"/>
<path fill-rule="evenodd" clip-rule="evenodd" d="M16.9344 7.80016C17.0095 7.80557 17.0845 7.78865 17.15 7.75152C17.2218 7.74768 17.482 7.7807 17.682 7.52637C17.6956 7.58448 17.7306 7.74192 17.6392 7.88169C17.6879 7.83305 17.7597 7.81372 17.7694 7.80016C17.7733 7.87196 17.8412 8.09327 17.5539 8.63113C17.6314 8.54575 17.7227 8.54959 17.8042 8.53986C17.8082 8.64085 17.8625 8.98056 17.7189 9.16322C17.6237 9.2875 17.4683 9.24859 17.4683 9.24859C17.4706 9.22146 17.4706 9.19419 17.4683 9.16706C17.4645 9.11458 17.445 9.06223 17.4587 9.02728C17.3837 8.99298 17.3153 8.94561 17.2567 8.88738C17.0878 8.72815 16.8684 8.45641 16.8529 8.25442C16.8334 8.02915 17.0354 7.98064 17.0354 7.98064C17.0185 7.9655 17.0041 7.94779 16.9927 7.92816C16.9829 7.89526 16.9732 7.84278 16.9344 7.80016Z" fill="#8C6228"/>
<path fill-rule="evenodd" clip-rule="evenodd" d="M15.4368 5.35732C15.4368 5.35732 15.4271 5.34376 15.3748 5.40584C15.3845 5.34376 15.3942 5.28539 15.3981 5.22907C15.4228 5.17693 15.4549 5.12857 15.4933 5.08545C15.4641 5.14356 15.4446 5.19604 15.4446 5.19604C15.4446 5.19604 15.5166 5.06203 15.6214 4.98049C15.6932 4.92225 15.7845 4.89512 15.8233 4.84072C15.866 4.78248 15.8563 4.77275 15.866 4.76302C15.866 4.76302 15.9612 4.70094 16.1069 4.51828C16.1262 4.49499 16.1554 4.46977 16.1749 4.44648C16.2078 4.43291 16.2855 4.39796 16.3767 4.35124C16.4719 4.29889 16.5787 4.22708 16.6447 4.19764C16.7748 4.1394 16.9128 4.14529 16.9768 4.0539C17.0253 4.04033 17.0776 3.89467 17.068 3.77051C17.1398 3.79956 17.5087 4.02868 17.635 4.52968C17.7263 4.885 17.5631 5.43259 17.4951 5.69678C17.4272 5.96097 17.4176 6.15694 17.3224 6.27726C17.2019 6.43662 16.8137 6.66126 16.7185 6.77249C16.6369 6.86376 16.3923 7.0948 16.4019 7.26171C16.4117 7.386 16.565 7.45371 16.5981 7.47726C16.6313 7.50081 16.631 7.52974 16.6932 7.51566C16.7555 7.50158 16.7786 7.47291 16.804 7.47291C16.833 7.47675 16.833 7.48264 16.8466 7.48264C16.8564 7.48234 16.8662 7.48101 16.8758 7.47867C16.8758 7.47867 16.866 7.65544 16.4525 7.70907C16.4233 7.71304 16.3942 7.72264 16.3573 7.72852C16.4059 7.70523 16.435 7.70523 16.4874 7.63342C16.4292 7.62369 16.2622 7.61396 16.2194 7.6004C16.233 7.5771 16.2776 7.51489 16.3145 7.48584C16.3475 7.45678 16.3107 7.44744 16.2816 7.46254C16.2316 7.49658 16.1836 7.5335 16.1379 7.57313C16.0894 7.61588 16.0466 7.67412 15.9689 7.72673C15.9456 7.64904 15.9495 7.50145 16.0408 7.3947C16.0174 7.39854 15.9728 7.46651 15.9301 7.45294C15.9224 7.38211 15.927 7.31049 15.9437 7.24123C15.967 7.1538 16.0932 7.00046 16.0932 7.00046L16.7028 5.91105L16.8329 5.08584L15.4368 5.35707V5.35732Z" fill="#92723A"/>
<path fill-rule="evenodd" clip-rule="evenodd" d="M15.4039 5.40372C15.4039 5.40372 15.3708 5.42702 15.4369 5.47169C15.4272 5.48526 15.4039 5.53377 15.3747 5.5668C15.3418 5.6052 15.3067 5.629 15.2931 5.66203C15.2641 5.73 15.2408 5.77659 15.2408 5.80577C15.2408 5.83496 15.231 6.02132 15.1495 6.14164C15.1203 6.1844 15.0873 6.2562 15.064 6.30472C15.0155 6.39009 14.9727 6.45832 14.963 6.49672C14.9437 6.56468 14.9301 6.75105 14.9301 6.75105C14.9301 6.75105 14.9729 6.69857 14.9883 6.67924C14.9649 6.72776 14.9397 6.78011 14.9028 6.81902C14.9261 6.79956 14.9941 6.75105 15.1087 6.65006C15.2679 6.51617 15.5165 6.29089 15.8195 6.11246C15.7281 6.14548 15.6505 6.14548 15.5884 6.15521C15.637 6.1067 16.0738 5.59406 16.303 5.54555C16.3169 5.52791 16.3238 5.50576 16.3224 5.48334L16.1262 5.46401L15.7281 5.54939L15.67 5.24219L15.4039 5.40334V5.40372Z" fill="#B18E3E"/>
<path fill-rule="evenodd" clip-rule="evenodd" d="M16.0371 7.15155C16.0371 7.15155 15.9846 7.2039 15.9361 7.33407C15.8987 7.29507 15.8667 7.2513 15.8408 7.2039C15.769 7.08358 15.6584 6.93011 15.4001 7.01753C15.3963 6.93599 15.3904 6.89324 15.4001 6.835C15.4429 6.8254 15.5729 6.72057 15.703 6.5671C15.7944 6.46227 15.8798 6.34182 15.938 6.18847C15.9764 6.15929 16.0428 6.11078 16.13 6.05446C16.2543 5.96908 16.4038 5.85247 16.4271 5.72243C16.3688 5.74572 16.2446 5.80396 16.0581 5.79436C16.13 5.76134 16.2406 5.72639 16.227 5.58265C16.2562 5.56319 16.2795 5.54963 16.2795 5.54963C16.2576 5.54232 16.2346 5.53903 16.2115 5.5399C16.2076 5.52633 16.2018 5.507 16.1688 5.5166C16.1358 5.5262 16.1304 5.52633 16.126 5.5399C16.1125 5.54387 16.0678 5.5399 16.0348 5.56332C16.0017 5.58675 15.9105 5.66419 15.8755 5.67775C15.8891 5.65446 15.9084 5.61964 15.9084 5.61964C15.9084 5.61964 15.8133 5.62924 15.7454 5.65804C15.6211 5.70079 15.4775 5.77849 15.3318 5.85414C15.3454 5.83084 15.3512 5.81574 15.3608 5.81139C15.3704 5.80703 15.3939 5.80179 15.3939 5.79782C15.3939 5.79385 15.3843 5.75942 15.39 5.74546C15.4336 5.65321 15.485 5.56486 15.5436 5.4814C15.6116 5.39001 15.6252 5.25996 15.6252 5.25996L15.9223 5.11046L16.7572 4.91846L17.299 4.95148L17.231 5.32626L16.9111 5.9806L16.6373 6.5767L16.3246 6.94188L16.0372 7.15155H16.0371Z" fill="#543E26"/>
<path fill-rule="evenodd" clip-rule="evenodd" d="M17.3903 5.52941C17.3903 5.52941 17.064 5.93325 16.9727 5.99546C17.031 5.87117 17.3903 5.13133 17.5203 4.9255C17.4913 4.90221 17.4523 4.90221 17.5436 4.5415C17.466 4.7239 17.4388 4.81914 17.3748 4.86765C17.3108 4.91616 17.3028 4.90067 17.2596 4.90067C17.2677 4.88589 17.2711 4.86894 17.2692 4.85216C17.2692 4.85216 16.9954 4.81914 16.8084 4.81914C16.6214 4.81914 16.2512 4.92013 16.0453 5.00166C15.8822 5.06963 15.7909 5.06963 15.7327 5.11226C15.6745 5.16077 15.6414 5.21325 15.6123 5.22682C15.589 5.24038 15.4784 5.27533 15.453 5.31219C15.4297 5.35059 15.391 5.39373 15.391 5.40346C15.391 5.41318 15.3812 5.42688 15.4104 5.41702C15.42 5.41318 15.492 5.37427 15.5735 5.32576C15.6841 5.26368 15.8181 5.19187 15.9152 5.14912C16.1929 5.0384 16.2803 5.05786 16.4044 5.03456C16.5345 5.01126 16.721 4.95686 16.8451 4.95686C16.9694 4.95302 17.2044 4.95686 17.2588 4.96659C17.2355 4.98605 17.2161 5.00934 17.2258 5.09088C17.2258 5.11418 17.2063 5.13939 17.1874 5.19571C17.1293 5.35494 17.0186 5.61901 16.957 5.75302C16.8716 5.93542 16.7746 6.0889 16.7266 6.184C16.6786 6.2791 16.573 6.5296 16.4684 6.66362C16.3639 6.79763 16.3092 6.87917 16.2764 6.90835C16.2437 6.93754 16.0084 7.11021 16.026 7.17242C16.0687 7.15885 16.3386 7.05722 16.5346 6.83654C16.7306 6.61587 16.7696 6.48122 16.9229 6.36077C17.0763 6.24032 17.1967 6.03846 17.2685 5.87155C17.3287 5.71616 17.3151 5.66765 17.3908 5.52979L17.3903 5.52941Z" fill="#806031"/>
<path fill-rule="evenodd" clip-rule="evenodd" d="M10.3593 8.54386C10.3593 8.54386 10.3166 8.7205 10.2194 8.80793C10.1243 8.89343 9.95537 8.96716 9.93604 9.1109C9.91274 9.25452 10.105 9.32645 10.105 9.32645C10.105 9.32645 10 9.49925 10 9.6293C10 9.76332 9.9962 9.78853 10.0098 9.91666C9.99437 9.92657 9.98128 9.93966 9.97137 9.95506C9.97137 9.95506 9.98097 10.0793 10.0762 10.1569C10.1714 10.2345 10.2528 10.2812 10.3014 10.2617C10.3088 10.2776 10.3153 10.2938 10.3208 10.3104C10.3208 10.3104 10.3928 10.1279 10.4413 9.96863C10.4898 9.80556 10.5325 9.82873 10.5519 9.60933C10.5712 9.38994 10.7823 9.01324 10.7823 9.01324L10.9263 8.69132L10.6914 8.50879L10.3593 8.54373V8.54386Z" fill="#B6903C"/>
<path fill-rule="evenodd" clip-rule="evenodd" d="M10.7962 8.86035C10.7477 8.91007 10.703 8.96329 10.6624 9.01958C10.6003 9.10509 10.5518 9.18265 10.4605 9.21581C10.3693 9.24896 10.311 9.2487 10.3168 9.3401C10.3226 9.43149 10.4081 9.47014 10.4566 9.51673C10.5091 9.56525 10.5518 9.64678 10.5285 9.73818C10.5576 9.72461 10.6101 9.70899 10.6586 9.60416C10.7071 9.49933 11.0464 8.86048 11.0464 8.86048H10.7962V8.86035Z" fill="#685026"/>
<path fill-rule="evenodd" clip-rule="evenodd" d="M12.1345 7.38651C12.1345 7.38651 12.1635 7.30894 12.1345 7.25262C12.1053 7.19438 11.9287 7.17492 11.8412 7.10888C11.75 7.04091 11.6393 6.99368 11.548 7.0235C11.5616 6.99048 11.616 6.91854 11.5713 6.90305C11.5285 6.88948 11.3694 6.96129 11.3267 6.99432C11.2839 7.02734 11.1868 7.06612 11.1675 7.08955C11.1481 7.11297 11.115 7.15752 11.0955 7.13806C11.0761 7.12449 11.0665 7.08955 11.0334 7.10888C11.0004 7.1282 10.8414 7.25838 10.8121 7.33415C10.7828 7.40993 10.7169 7.57889 10.5189 7.77101C10.3209 7.96314 10.2354 8.08756 10.2936 8.15936C10.3518 8.23117 10.3791 8.17882 10.3888 8.2409C10.3963 8.30184 10.393 8.36362 10.3791 8.42343C10.3558 8.52442 10.317 8.61952 10.3694 8.63898C10.5034 8.68173 10.6336 8.60058 10.6626 8.62541C10.7209 8.67776 10.6296 8.86617 10.7675 8.90304C10.9074 8.94144 11.0452 8.87001 11.0452 8.87001L11.5539 8.59622L12.0432 8.33805L12.2936 7.84282L12.1593 7.42926L12.1337 7.38651H12.1345Z" fill="#D4B968"/>
<path fill-rule="evenodd" clip-rule="evenodd" d="M11.6544 8.56878C11.6544 8.56878 11.5689 8.43873 11.6739 8.32404C11.7788 8.20935 11.9282 8.16097 11.9864 8.08916C11.9754 8.07549 11.9605 8.06538 11.9437 8.06011C11.9824 7.99093 12.0413 7.9353 12.1127 7.90075C12.0836 7.87169 12.0447 7.8484 12.0021 7.8484C11.9068 7.8484 11.8485 7.90664 11.7612 7.90664C11.6758 7.90664 11.6661 7.86388 11.6661 7.86388C11.6661 7.86388 11.8098 7.85032 11.7961 7.78619C11.7825 7.71822 11.7577 7.71822 11.7577 7.71822C11.7577 7.71822 12.0353 7.60302 12.0839 7.54158C12.1324 7.48014 12.1266 7.40757 12.1363 7.37851C12.1692 7.37851 12.3615 7.27752 12.4392 7.32027C12.5169 7.36302 12.4625 7.4795 12.4625 7.4795C12.4625 7.4795 12.6976 7.30274 12.8174 7.12942C12.9223 7.13915 12.971 7.05762 13.0478 7.05762C13.1431 7.05762 13.2926 7.18766 13.3216 7.46529C13.3411 7.62453 13.3701 7.71579 13.3411 7.99739C13.3275 8.15662 13.3314 8.49658 13.3795 8.66529C13.4124 8.7993 13.4901 8.78573 13.4901 8.78573C13.4782 8.82657 13.4545 8.86302 13.4221 8.89057C13.3696 8.93908 13.3639 9.06733 13.3696 9.11584C13.3774 9.15131 13.3871 9.18631 13.3988 9.22067C13.3988 9.22067 13.3367 9.29248 13.3211 9.34112C13.3075 9.38963 13.2435 9.42266 13.1968 9.42266C13.1501 9.42266 13.1735 9.41869 13.1114 9.42266C13.0494 9.42663 13.0299 9.43622 12.991 9.42266C12.9521 9.40909 12.923 9.39347 12.9386 9.26906C12.9522 9.14477 12.459 8.85549 12.459 8.85549L11.6526 8.56814L11.6544 8.56878Z" fill="#CCA849"/>
<path fill-rule="evenodd" clip-rule="evenodd" d="M10.7282 9.79624C10.7282 9.79624 10.9048 10.0313 11.6311 10.0313C11.9767 10.0313 12.0972 9.99823 12.1687 9.97877C12.2464 9.95932 12.5376 9.84488 12.8309 9.49916C13.095 9.18658 13.0367 9.05845 13.0367 9.05845L12.8831 9.03516L12.3839 9.10312L10.9067 9.73224L10.7275 9.79624H10.7282Z" fill="#585136"/>
<path fill-rule="evenodd" clip-rule="evenodd" d="M11.27 9.85441C11.27 9.85441 10.6409 9.9943 10.6409 9.59624C10.6409 9.2079 11.0292 8.80011 11.1264 8.7283C11.2274 8.65637 11.4681 8.57471 11.4681 8.57471H12.0487L12.1593 8.86794L12.1108 9.50088L11.27 9.85428V9.85441Z" fill="#252211"/>
<path fill-rule="evenodd" clip-rule="evenodd" d="M11.8505 8.69335C11.8505 8.69335 11.7302 8.58263 11.4564 8.73175C11.1826 8.88087 10.9612 9.19256 10.9476 9.47557C10.934 9.72594 11.1534 9.91244 11.4952 9.92217C11.7495 9.93177 11.903 9.90271 11.9807 9.88377C11.9613 9.86047 11.8603 9.73426 11.8603 9.73426L11.8507 8.69348L11.8505 8.69335Z" fill="#C3B378"/>
<path fill-rule="evenodd" clip-rule="evenodd" d="M11.7321 8.75534C11.7321 8.75534 11.7031 8.73204 11.6169 8.77863C11.5451 8.81703 11.4403 8.91853 11.3588 8.99033C11.3063 9.03308 11.2733 9.05241 11.2436 9.08543C11.1231 9.22917 11.0221 9.46417 11.0805 9.58065C11.1389 9.69712 11.331 9.83113 11.8203 9.73987L11.7307 8.75546L11.7321 8.75534Z" fill="#E6D89C"/>
<path fill-rule="evenodd" clip-rule="evenodd" d="M11.5728 8.99612C11.5728 8.99612 11.4951 9.11657 11.4951 9.30883C11.4951 9.50493 11.6058 9.81751 12.0136 9.84081C12.3262 9.86026 12.5359 9.39037 12.7631 9.20784C12.9359 9.06806 13.0407 9.06409 13.0407 9.06409C13.0407 9.06409 12.8641 8.87209 12.3923 8.62338C11.9262 8.37288 11.4039 8.33986 11.1204 8.72437C11.2544 8.71465 11.6874 8.60392 11.6874 8.60392L11.8991 8.67189L11.5728 8.99625V8.99612Z" fill="#252211"/>
<path fill-rule="evenodd" clip-rule="evenodd" d="M12.1826 9.25027C12.169 9.22121 12.1593 9.1823 12.2156 9.1727C12.2719 9.1631 12.2971 9.16873 12.3165 9.2111C12.336 9.25347 12.3549 9.2888 12.3261 9.30633C12.2971 9.32182 12.2213 9.30633 12.1824 9.25001L12.1826 9.25027ZM12.0913 8.97648C12.0913 8.97648 12.0719 8.99005 12.0816 8.96291C12.0854 8.93002 12.1108 8.87165 12.1728 8.88535C12.2349 8.89904 12.2215 8.96688 12.2112 8.98634C12.201 9.00579 12.1492 9.03869 12.1102 9.02474C12.1053 9.02347 12.1008 9.02107 12.0969 9.01771C12.0931 9.01435 12.0901 9.01014 12.0882 9.00542C12.0863 9.00069 12.0856 8.99558 12.086 8.99051C12.0865 8.98544 12.0881 8.98055 12.0908 8.97622L12.0913 8.97648Z" fill="#6F674D"/>
<path fill-rule="evenodd" clip-rule="evenodd" d="M6.83521 9.10083C6.83521 9.10083 6.98881 9.21603 7.16724 9.21155C7.34388 9.20759 7.57108 9.02519 7.67591 8.90858C7.73799 8.84061 7.79111 8.7688 7.84871 8.71248C7.89735 8.66397 7.93025 8.64067 7.95354 8.60765C7.98656 8.56925 8.02151 8.49706 8.03904 8.47363C7.99629 8.50666 7.93421 8.56502 7.87008 8.60381C7.808 8.64221 7.67399 8.7144 7.61959 8.73386C7.56724 8.75331 7.02349 9.04106 7.02349 9.04106L6.83521 9.10083Z" fill="#AC924C"/>
<path fill-rule="evenodd" clip-rule="evenodd" d="M7.07007 7.66613C7.07007 7.66613 7.15544 7.60789 7.32056 7.5709C7.4798 7.5325 7.80018 7.50293 7.80018 7.50293L8.06424 7.61813L8.16908 8.01621L7.97708 8.42991L7.73247 8.58351L7.45471 8.13691L7.07071 7.6669L7.07007 7.66613Z" fill="#9F8E57"/>
<path fill-rule="evenodd" clip-rule="evenodd" d="M6.72445 8.02128L6.63306 8.0895C6.63306 8.0895 6.65648 8.04675 6.67581 7.9167C6.69514 7.78665 6.79626 7.4701 6.94384 7.28757C7.09143 7.10504 7.08759 7.11477 7.08759 7.11477C7.07401 7.11228 7.06005 7.11272 7.04666 7.11606C7.03326 7.11939 7.02072 7.12554 7.00989 7.1341C7.02935 7.09109 7.15364 6.93748 7.27792 6.86068C7.40221 6.78388 7.45072 6.75969 7.58077 6.82228C7.71082 6.88488 7.74385 6.91739 7.83908 6.91355C7.93431 6.90971 8.01572 6.80871 8.01572 6.80871C8.01572 6.80871 8.03518 6.8708 7.96337 7.01454C7.89156 7.15829 7.60804 7.45141 7.60804 7.45141L7.0177 7.85526L6.72445 8.02166V8.02128Z" fill="#EAC970"/>
<path fill-rule="evenodd" clip-rule="evenodd" d="M7.16116 7.61773C7.16116 7.61773 7.58842 7.67597 7.71847 7.55565C7.72231 7.56922 7.73792 7.56922 7.73792 7.57895C7.73688 7.58628 7.73346 7.59307 7.7282 7.59828C7.74234 7.59602 7.75663 7.59474 7.77095 7.59444C7.78805 7.59953 7.80564 7.60279 7.82343 7.60416C7.83776 7.60385 7.85204 7.60253 7.86618 7.6002C7.86483 7.60985 7.86155 7.61913 7.85654 7.62748C7.85152 7.63584 7.84488 7.6431 7.837 7.64884C7.85645 7.64884 7.8754 7.65268 7.8754 7.66816C7.8754 7.68365 7.87924 7.73037 7.85594 7.7401C7.83664 7.74544 7.8161 7.74404 7.7977 7.73613C7.79924 7.77289 7.80923 7.80881 7.82688 7.84109C7.86528 7.9129 7.9472 7.99469 8.05728 7.97114C8.05728 7.97114 8.1154 8.11092 7.87079 8.42157C7.83789 8.46432 7.80282 8.52256 7.7602 8.57108C7.74336 8.60779 7.73048 8.64619 7.7218 8.68564C7.7218 8.68564 8.13549 8.5264 8.25389 8.16327C8.37434 7.79821 8.39764 7.43904 8.37434 7.10317C8.37037 7.00794 8.35488 6.9401 8.33159 6.89146C8.27335 6.77101 8.11015 6.79047 8.04423 6.85844C7.949 6.95367 7.78977 7.19047 7.56845 7.35354C7.34317 7.51661 7.33357 7.54554 7.16064 7.61773H7.16116Z" fill="#D7BC6B"/>
<path fill-rule="evenodd" clip-rule="evenodd" d="M6.64855 8.14204C6.64855 8.14204 6.56701 8.19056 6.52426 8.37244C6.4815 8.55881 6.56266 8.78601 6.60964 8.85782C6.65662 8.92963 6.76325 9.12585 6.98445 9.13558C7.0392 9.13529 7.09334 9.12406 7.1437 9.10255C7.22091 9.06715 7.29335 9.02212 7.35926 8.96854C7.4545 8.89673 7.53208 8.83465 7.52235 8.82876C7.49905 8.81903 6.93594 8.35299 6.93594 8.35299L6.72421 8.1167L6.64843 8.1423L6.64855 8.14204Z" fill="#585136"/>
<path fill-rule="evenodd" clip-rule="evenodd" d="M7.18089 8.91461C7.18089 8.91461 7.29546 8.90501 7.36343 8.86225C7.4314 8.8195 6.96533 8.35742 6.96533 8.35742L6.99836 8.85662L7.18089 8.91461Z" fill="#453A25"/>
<path fill-rule="evenodd" clip-rule="evenodd" d="M6.68541 8.10654C6.68541 8.10654 6.62717 8.21726 6.62717 8.24645C6.61744 8.34155 6.64662 8.64056 6.66992 8.73566C6.69321 8.83666 6.81942 8.99 6.98262 8.99C7.08348 8.99 7.22338 8.92792 7.22338 8.91243C7.22338 8.89298 7.07964 8.87403 7.04086 8.80171C7.01756 8.76331 7.00783 8.66782 7.00246 8.57131C6.99862 8.50923 6.99862 8.44126 7.02191 8.41771C7.07439 8.35947 7.08399 8.19243 7.08399 8.19243L7.27036 7.84619H7.02524L6.732 8.02872L6.68541 8.10654Z" fill="#84754B"/>
<path fill-rule="evenodd" clip-rule="evenodd" d="M6.61353 8.21373C6.61353 8.21373 6.80552 7.9594 6.97857 7.90103C7.15162 7.84266 7.22906 7.87774 7.22906 7.87774L7.12807 8.13604L6.98433 8.29527L6.99406 8.3768C6.99406 8.3768 6.97064 8.59235 7.11438 8.74185C7.25812 8.89136 7.36487 8.8856 7.42707 8.8856C7.48928 8.8856 7.66784 8.83312 7.7591 8.61757C7.84063 8.41571 7.9086 8.15677 7.74553 7.89719C7.58617 7.63889 7.30471 7.62891 7.25031 7.62891C7.19591 7.62891 6.76879 7.65028 6.61353 8.21335V8.21373Z" fill="#252211"/>
<path fill-rule="evenodd" clip-rule="evenodd" d="M11.5437 9.07782C11.4719 9.0448 11.5399 8.84294 11.6117 8.78074C11.6835 8.71853 11.7748 8.64685 11.9341 8.63699C11.9923 8.63315 12.0486 8.67002 12.039 8.70893C12.0254 8.78074 11.9244 8.88173 11.8332 8.95353C11.7069 9.0526 11.6253 9.11468 11.5437 9.07782Z" fill="#F7F7E7"/>
<path fill-rule="evenodd" clip-rule="evenodd" d="M7.66018 7.9768C7.71267 7.97296 7.78064 8.01521 7.79421 8.07204C7.80778 8.13412 7.76118 8.25842 7.66018 8.25842C7.57864 8.25842 7.53589 8.15742 7.53589 8.12836C7.53681 8.10447 7.54348 8.08115 7.55535 8.06039C7.55919 8.0545 7.56892 7.98653 7.66018 7.9768Z" fill="#F8F6DE"/>
<path fill-rule="evenodd" clip-rule="evenodd" d="M6.9028 8.02148C6.9028 8.02148 6.76878 8.08356 6.7067 8.21348C6.66235 8.30941 6.64893 8.41676 6.6683 8.52066C6.67803 8.56917 6.72654 8.68949 6.75957 8.73224C6.79259 8.77499 6.83726 8.80417 6.87029 8.8002C6.90331 8.79623 6.97115 8.70894 6.97115 8.65659C6.97115 8.60424 6.97512 8.38281 7.03912 8.26237C7.09544 8.14206 6.90318 8.02161 6.90318 8.02161L6.9028 8.02148Z" fill="#D4C38B"/>
<path fill-rule="evenodd" clip-rule="evenodd" d="M6.92239 8.01144C6.89909 8.025 6.86031 8.04446 6.86991 8.06967C6.87963 8.09297 6.96117 8.10807 6.99035 8.1649C7.02338 8.22314 7.02338 8.28521 7.01365 8.31439C7.03901 8.30235 7.06203 8.28588 7.08162 8.26576C7.12437 8.21725 7.17672 8.15133 7.2214 8.15133C7.25058 8.15133 7.27964 8.1649 7.3069 8.1649C7.34965 8.1649 7.39228 8.15133 7.39817 8.10666C7.40777 8.04843 7.31663 7.99595 7.26415 8.00568C7.27388 7.96728 7.28745 7.91058 7.24469 7.87167C7.20194 7.83276 7.06805 7.90085 7.03887 7.92031C7.00968 7.93976 6.92239 8.01156 6.92239 8.01156V8.01144Z" fill="#E2D59D"/>
<path fill-rule="evenodd" clip-rule="evenodd" d="M10.0079 12.0912L10.2953 12.0063L10.3768 12.0646C10.3768 12.0646 10.4349 12.1889 10.5263 12.2044C10.4971 12.2664 10.4214 12.3196 10.4253 12.3636C10.4293 12.4076 10.4681 12.4413 10.4681 12.4413C10.4681 12.4413 10.2098 12.8684 10.7186 13.2989C10.5981 13.3474 10.4448 13.4141 10.3633 13.4525C10.4214 13.4661 10.5457 13.4909 10.5981 13.538C10.6506 13.5851 10.6506 13.6001 10.6991 13.6293C10.7476 13.6584 10.7767 13.6972 10.7671 13.7146C10.7341 13.6952 10.6233 13.6371 10.604 13.6913C10.5847 13.7456 10.1244 13.7244 10.1244 13.7244L9.3477 13.8739C9.3477 13.8739 9.37676 13.7962 9.29522 13.7244C9.20012 13.639 9.08364 13.7282 8.95935 13.6331C8.79628 13.5088 8.79039 13.3651 8.73804 13.3108C8.79039 13.2778 8.89727 13.2293 9.15161 13.1956C9.14188 13.1761 9.10885 13.1179 9.12831 13.0655C9.1516 12.9976 9.24863 12.9548 9.21957 12.8735C9.26232 12.8638 9.28165 12.8638 9.38853 12.7298C9.48952 12.5958 9.55161 12.5667 9.6293 12.557C9.707 12.5473 9.75359 12.557 9.89733 12.423C9.9982 12.3279 9.9653 12.2463 9.9653 12.2463C9.9653 12.2463 10.0312 12.225 10.0081 12.091L10.0079 12.0912Z" fill="#CBAC5A"/>
<path fill-rule="evenodd" clip-rule="evenodd" d="M9.15939 12.1347C9.16323 12.1152 9.17884 12.1055 9.28367 12.1152C9.38851 12.1249 10.0526 12.0531 10.2332 12.0434C10.4157 12.0298 11.0584 12.0394 11.3711 12.1055C11.6838 12.1715 12.0002 12.2492 12.1536 12.288C12.3072 12.3307 12.3556 12.3461 12.3497 12.3655C12.3458 12.385 12.3113 12.4039 12.2914 12.3986C12.2721 12.3947 11.7633 12.2393 11.6061 12.2066C11.4489 12.1738 10.9051 12.0861 10.6077 12.0914C10.3301 12.0954 10.2194 12.0876 9.98448 12.1147C9.74947 12.1439 9.36111 12.1826 9.24463 12.1672C9.12943 12.1536 9.15324 12.1536 9.15913 12.1341L9.15939 12.1347Z" fill="#D6BC6F"/>
<path fill-rule="evenodd" clip-rule="evenodd" d="M10.7223 13.6564C10.7223 13.6564 11.1204 13.872 11.2641 14.136C11.3689 14.3321 11.202 14.4293 11.202 14.4293C11.202 14.4293 11.4273 14.4293 11.3981 14.5536C11.3846 14.6311 11.0098 14.8408 10.7593 14.9515C10.505 15.0622 10.5147 15.0565 10.3904 15.0758C10.2699 15.0953 9.93984 15.0374 9.87187 15.134C9.8039 15.2307 9.83347 15.3303 9.85241 15.3458C9.87187 15.3593 10.0292 15.3788 10.0292 15.3788C10.0292 15.3788 9.99616 15.47 9.67001 15.4798C9.34387 15.4895 9.26221 15.5127 9.24275 15.5477C9.2233 15.5806 9.30483 15.5613 9.45446 15.5861C9.60397 15.6094 9.81363 15.6245 9.81363 15.6245C9.81363 15.6245 9.74566 15.6828 9.56902 15.7294C9.36704 15.7817 9.0505 15.8304 8.95539 15.8886C9.00391 15.9216 9.07584 15.9701 9.10899 15.974C9.02746 15.9934 8.91277 16.0362 8.89344 16.0517C8.9225 16.0711 8.96141 16.0944 8.96141 16.0944C8.96141 16.0944 8.79821 16.2905 8.70311 16.3391C8.608 16.3878 8.06042 16.642 7.87201 16.5935C7.40212 16.4692 7.34388 15.9546 7.22932 15.9159C7.05652 15.8576 6.97499 15.974 6.82152 15.8924C6.88949 15.8439 6.92648 15.8149 6.99829 15.7818C6.92059 15.7434 6.51867 15.4886 6.51867 15.4886C6.47664 15.397 6.42999 15.3076 6.3789 15.2207C6.3012 15.0867 6.1869 14.908 6.10114 14.7507C5.91477 14.4051 5.90504 14.2459 5.73608 14.0498C5.76527 14.0114 5.86613 14.0167 5.86613 14.0167L7.2818 14.4828L9.792 14.5555L10.4448 13.6235L10.7224 13.6566L10.7223 13.6564Z" fill="#DFC677"/>
<path fill-rule="evenodd" clip-rule="evenodd" d="M7.00391 15.0781C7.01905 15.0949 7.03671 15.1094 7.05626 15.1208C7.1049 15.1539 7.17671 15.1928 7.22522 15.2509C7.24467 15.2218 7.29319 15.1694 7.37882 15.2509C7.46445 15.3324 7.57082 15.2743 7.63699 15.2936C7.70496 15.3171 7.7088 15.3267 7.7088 15.3267C7.7088 15.3267 7.7472 15.2936 7.83309 15.2587C7.88557 15.2392 7.94765 15.2257 8.01562 15.2063C8.0777 15.1928 8.14567 15.1733 8.19239 15.1733C8.23514 15.2024 8.38848 15.3653 9.00403 15.1248C9.58464 14.8995 9.71853 14.8743 9.81568 14.9091C9.82541 14.8858 9.83514 14.8412 9.98464 14.8471C9.98464 14.785 9.86036 14.5733 9.86036 14.5733L9.17491 14.3384H8.8L7.67578 14.5442L7.0528 14.8997L7.00429 15.0789L7.00391 15.0781Z" fill="#C4A859"/>
<path fill-rule="evenodd" clip-rule="evenodd" d="M6.62915 14.6834C6.62915 14.6834 6.64272 14.7883 6.79811 14.899C6.95171 15.0096 6.99997 15.0756 6.99997 15.0756C6.99997 15.0756 7.02915 15.0372 7.05245 14.9981C7.07574 14.9553 7.0952 14.9068 7.13398 14.8932C7.21168 14.8602 7.38832 14.9223 7.42723 14.9126C7.46025 14.903 7.45053 14.835 7.48547 14.835C7.56701 14.831 7.61936 14.8873 7.64854 14.8873C7.67773 14.8873 7.74941 14.8835 7.75913 14.868C7.76886 14.8525 7.7727 14.6913 7.88342 14.6136C8.00387 14.5282 8.15145 14.565 8.19062 14.5845C8.19062 14.6136 8.19446 14.6855 8.27216 14.6893C8.34985 14.6932 8.35753 14.6796 8.42576 14.7029C8.49398 14.7262 8.57526 14.6991 8.61213 14.8135C8.64515 14.8039 8.72285 14.7942 8.70339 14.6834C8.74179 14.6544 8.77533 14.6349 8.85699 14.5204C8.87645 14.4913 8.90934 14.4583 8.93469 14.4155C9.00265 14.4155 9.08419 14.402 9.19286 14.4971C9.15984 14.5204 9.14038 14.5355 9.13078 14.5592C9.1592 14.5873 9.18516 14.6178 9.20835 14.6504C9.23753 14.6888 9.25699 14.7359 9.29385 14.7457C9.37539 14.7689 9.50941 14.7359 9.65891 14.7457C9.80265 14.7554 9.92297 14.8077 9.97545 14.8408C9.99491 14.8312 9.99491 14.8272 10.0434 14.8369C10.0919 14.8466 10.1288 14.8505 10.0764 14.7884C10.1055 14.802 10.1385 14.8312 10.1677 14.802C10.1969 14.7728 10.2201 14.7302 10.3016 14.7204C10.3831 14.7107 10.4123 14.7243 10.4453 14.6389C10.4881 14.5341 10.3405 14.5341 10.3405 14.5341C10.3405 14.5341 10.4085 14.4719 10.4843 14.3903C10.5755 14.3049 10.6803 14.1942 10.7056 14.0583C10.7483 13.8078 10.5037 13.7749 10.5037 13.7749L9.31728 14.14L7.86678 14.068L6.62992 14.6836L6.62915 14.6834Z" fill="#927D49"/>
<path fill-rule="evenodd" clip-rule="evenodd" d="M5.56326 11.2563C5.56326 11.2563 5.52486 11.3048 5.50118 11.4194C5.4775 11.5339 5.48761 11.5204 5.46815 11.6019C5.4487 11.6834 5.20972 12.4951 5.29932 12.7689C5.38892 13.0427 5.54406 13.1437 5.64108 13.365C5.66054 13.4135 5.67948 13.4427 5.68959 13.4855C5.72262 13.6291 5.69356 13.7398 5.73235 13.8836C5.74591 13.9321 5.78099 13.9884 5.83334 14.0466C5.94854 14.1669 6.13631 14.2815 6.21734 14.363C6.33177 14.4835 6.49497 14.7282 6.70271 14.7514C6.81343 14.765 6.97075 14.7184 7.10079 14.6408C7.21599 14.5689 7.28716 14.468 7.40799 14.4104C7.49337 14.3677 7.58463 14.3522 7.66617 14.3327C7.83513 14.2997 7.9886 14.2943 8.07987 14.3133C8.21964 14.3424 8.54975 14.4434 8.73267 14.4434C8.87559 14.4411 9.01772 14.4216 9.15596 14.3852C9.43359 14.3037 9.76947 14.1637 9.99091 14.1017C10.121 14.0633 10.2258 14.0532 10.3327 14.0299C10.5152 13.9871 10.6685 13.9289 10.756 13.8181C10.6977 13.7502 10.6259 13.6453 10.2374 13.6492C9.79673 13.6589 9.28793 13.9035 9.03743 13.9424C8.78694 13.9813 8.67827 14.0142 8.39859 13.9132C8.12441 13.8112 8.11532 13.7438 8.11532 13.7438C8.11532 13.7438 7.82745 13.5424 7.707 13.0291C7.58655 12.5158 7.707 12.1418 8.01971 11.7863C8.10124 11.6951 8.08179 11.6135 8.08179 11.6135C8.08179 11.6135 8.28761 11.3359 8.23129 11.0759C8.16921 10.8176 7.77113 10.8701 7.77113 10.8701L5.56339 11.2563H5.56326Z" fill="#6E6342"/>
<path fill-rule="evenodd" clip-rule="evenodd" d="M5.89514 12.1206C5.87803 12.1528 5.86997 12.189 5.87185 12.2254C5.87569 12.2778 5.8913 12.3458 6.04849 12.4992C6.1825 12.6331 6.15332 12.7826 6.15332 12.7826C6.15332 12.7826 6.22077 12.7962 6.40381 12.7105C6.54756 12.6426 6.59581 12.763 6.59581 12.763C6.63766 12.7411 6.68301 12.7266 6.72983 12.7203C6.77225 12.7164 6.81331 12.7033 6.85015 12.6819C6.85015 12.6819 7.01911 12.8547 7.16669 12.9362C7.30071 13.0081 7.3784 13.0566 7.44445 13.0081C7.50653 12.9654 7.50653 12.878 7.50256 12.8392C7.48716 12.8034 7.46766 12.7695 7.44445 12.7382C7.4017 12.6761 7.33373 12.6042 7.32925 12.5462C7.31952 12.4123 7.43024 12.253 7.40682 12.2142C7.38339 12.1754 7.29623 12.1657 7.08067 12.2434C6.85744 12.3171 5.89425 12.121 5.89425 12.121L5.89514 12.1206Z" fill="#39331F"/>
<path fill-rule="evenodd" clip-rule="evenodd" d="M6.40376 12.9887C6.40376 12.9887 6.2932 12.8839 6.33198 12.3751C6.37891 12.3744 6.42577 12.3789 6.4717 12.3886C6.4717 12.3886 6.53197 12.7829 6.40376 12.9887Z" fill="#292311"/>
<path fill-rule="evenodd" clip-rule="evenodd" d="M5.61553 10.8681C5.63096 10.8567 5.64527 10.8439 5.65828 10.8297C5.61988 10.9015 5.4426 11.1889 5.58634 11.6414C5.73009 12.0918 6.09117 12.4277 6.53585 12.4433C6.98052 12.4589 7.21425 12.2413 7.48151 11.9152C7.58634 11.7851 7.70679 11.6219 7.81354 11.5113C7.97277 11.3384 8.09706 11.2899 8.09706 11.123C8.09706 10.7812 7.74749 10.6278 7.23293 10.4744C6.71837 10.3211 6.25425 10.34 6.01348 10.445C5.7786 10.5594 5.67761 10.6799 5.6154 10.8683L5.61553 10.8681Z" fill="#252211"/>
<path fill-rule="evenodd" clip-rule="evenodd" d="M7.26796 13.1417L7.30636 13.1223C7.30636 13.1223 7.31596 12.9686 7.37816 12.9727C7.44023 12.9825 7.46941 13.0641 7.46352 13.0932C7.45968 13.1222 7.4442 13.1709 7.382 13.165C7.30047 13.1669 7.26758 13.1417 7.26758 13.1417H7.26796Z" fill="#3F3824"/>
<path fill-rule="evenodd" clip-rule="evenodd" d="M7.09521 12.4891C7.09521 12.4891 7.13361 12.4756 7.18059 12.5222C7.21899 12.5222 7.38641 12.5027 7.43889 12.5357C7.49137 12.5687 7.50686 12.5978 7.50686 12.5978C7.50686 12.5978 7.31077 12.6405 7.20389 12.5978C7.09521 12.5609 7.09521 12.4891 7.09521 12.4891Z" fill="#2D2815"/>
<path fill-rule="evenodd" clip-rule="evenodd" d="M7.9593 12.5184C7.9593 12.5086 7.85446 12.4368 7.74373 12.4134C7.72427 12.4096 7.7203 12.4232 7.70533 12.4232C7.6956 12.4193 7.69176 12.3901 7.69176 12.3901L7.62878 12.4233C7.62878 12.4233 7.61905 12.4368 7.65208 12.4617C7.68113 12.485 7.72978 12.5044 7.74335 12.5432C7.75692 12.582 7.75691 12.5955 7.7628 12.6014C7.76664 12.6052 7.83462 12.6014 7.86764 12.582C7.90067 12.5625 7.96288 12.5308 7.95891 12.518L7.9593 12.5184Z" fill="#82764F"/>
<path fill-rule="evenodd" clip-rule="evenodd" d="M6.97876 12.9128C6.97876 12.9128 6.99809 12.7789 7.12826 12.773C7.26215 12.7633 7.2875 12.8933 7.2875 12.8933L7.2098 12.971C7.2098 12.9691 7.15156 12.8876 6.9794 12.9128H6.97876Z" fill="#2D2816"/>
<path fill-rule="evenodd" clip-rule="evenodd" d="M7.82325 12.3358C7.82325 12.3358 7.75131 12.4135 7.59221 12.4368C7.57864 12.4174 7.54946 12.3786 7.59221 12.3165C7.63496 12.2544 7.68347 12.2349 7.73198 12.2542C7.75339 12.2577 7.77335 12.2672 7.78952 12.2817C7.8057 12.2961 7.8174 12.3149 7.82325 12.3358Z" fill="#574F35"/>
<path fill-rule="evenodd" clip-rule="evenodd" d="M8.11639 12.4312C8.12036 12.4118 8.10679 12.4079 8.11639 12.3982C8.12599 12.3885 8.1786 12.3691 8.18833 12.3787C8.19217 12.3827 8.18833 12.3982 8.18833 12.4171C8.18833 12.4361 8.18833 12.4555 8.1786 12.4695C8.16503 12.4889 8.12625 12.4987 8.10679 12.4929C8.08734 12.4871 8.0835 12.4599 8.0835 12.4545C8.0931 12.4507 8.11639 12.4409 8.11639 12.4312ZM8.44791 12.2216C8.44791 12.2118 8.48094 12.1924 8.50039 12.1924C8.52945 12.1924 8.52945 12.2157 8.53342 12.2216C8.54302 12.2254 8.54302 12.2176 8.55274 12.2351C8.56247 12.2527 8.57617 12.2836 8.56631 12.3031C8.55646 12.3225 8.5178 12.336 8.5082 12.3321C8.49463 12.3224 8.45188 12.2351 8.44791 12.2216Z" fill="#82764F"/>
<path fill-rule="evenodd" clip-rule="evenodd" d="M7.78052 12.4757C7.78052 12.4757 7.82327 12.4853 7.88151 12.534C7.86205 12.5475 7.83287 12.563 7.83287 12.563C7.83287 12.563 7.82903 12.5183 7.78052 12.4756V12.4757Z" fill="#6E6342"/>
<path fill-rule="evenodd" clip-rule="evenodd" d="M7.68562 12.0484C7.67589 12.0388 7.71467 12.0155 7.73797 12.0194C7.76127 12.0232 7.771 12.0388 7.79621 12.0427C7.82143 12.0465 7.8254 12.0329 7.83461 12.0232C7.84383 12.0135 7.87737 12.0194 7.88313 12.0232C7.88672 12.0275 7.88997 12.032 7.89286 12.0368C7.89326 12.0294 7.89519 12.0222 7.89852 12.0156C7.90184 12.009 7.90649 12.0031 7.91219 11.9984C7.91963 11.9929 7.92822 11.9892 7.93731 11.9875C7.9464 11.9858 7.95575 11.9862 7.96467 11.9887C7.96851 12.0022 7.98796 12.0507 7.98412 12.0605C7.98028 12.0702 7.92204 12.0839 7.91219 12.074C7.92191 12.0975 7.96467 12.146 7.97043 12.1556C7.97619 12.1652 7.92767 12.1886 7.90835 12.1848C7.88121 12.1828 7.71416 12.0857 7.68511 12.0488L7.68562 12.0484ZM7.93996 11.7261C7.93637 11.7163 7.92949 11.7081 7.92051 11.7028C7.90694 11.699 7.86226 11.7028 7.86226 11.7261C7.86226 11.7494 7.90066 11.8797 7.9438 11.9476C7.99244 12.0155 8.02534 12.0717 8.05837 12.0874C8.06874 12.0921 8.08051 12.0927 8.09131 12.0891C8.10212 12.0855 8.11116 12.0779 8.11661 12.0679C8.12045 12.0582 8.13018 11.9864 8.12634 11.8174C8.1225 11.6484 8.11661 11.4853 8.10688 11.4756C8.09715 11.4659 8.05837 11.466 8.0448 11.4853C8.03123 11.5046 7.9438 11.697 7.93983 11.7261H7.93996Z" fill="#585136"/>
<path fill-rule="evenodd" clip-rule="evenodd" d="M7.76704 12.7205C7.76704 12.7205 7.69906 12.6778 7.633 12.707C7.57091 12.7361 7.57475 12.8507 7.57475 12.8507C7.58872 12.8561 7.60382 12.8581 7.61872 12.8564C7.63363 12.8547 7.64789 12.8494 7.66027 12.8409C7.70303 12.8119 7.75731 12.7634 7.76704 12.7207V12.7205Z" fill="#574F35"/>
<path fill-rule="evenodd" clip-rule="evenodd" d="M7.89509 12.8736C7.89125 12.8352 7.85669 12.8352 7.85669 12.8154C7.85907 12.8059 7.86456 12.7975 7.87229 12.7915C7.88002 12.7855 7.88954 12.7823 7.89931 12.7824C7.91877 12.7824 7.93771 12.8057 7.96152 12.8208C7.98482 12.8343 8.01976 12.8592 8.0236 12.8887C8.02744 12.9183 7.9852 12.9993 7.93823 12.9993C7.89125 12.9993 7.9052 12.9119 7.89547 12.8731L7.89509 12.8736ZM8.26987 12.8211C8.26987 12.8211 8.19218 12.8444 8.19794 12.8211C8.2037 12.7978 8.22136 12.7921 8.24658 12.7921C8.25939 12.7787 8.27662 12.7704 8.29509 12.7687C8.30565 12.7681 8.31603 12.7716 8.32415 12.7784C8.32415 12.7784 8.37663 12.7551 8.39211 12.7687C8.4076 12.7822 8.39608 12.7822 8.40568 12.7978C8.41791 12.8152 8.42593 12.8351 8.42911 12.8561C8.42911 12.8716 8.37087 12.9046 8.32415 12.8988C8.26987 12.8872 8.27947 12.8309 8.26987 12.8211ZM8.72223 12.7337C8.72223 12.7337 8.74552 12.7473 8.72619 12.7629C8.71263 12.7765 8.64466 12.8013 8.58629 12.8057C8.52805 12.8057 8.4757 12.8153 8.4757 12.7959C8.4757 12.7766 8.52421 12.7377 8.55327 12.728C8.55909 12.7207 8.56649 12.7148 8.57492 12.7107C8.58334 12.7067 8.59257 12.7046 8.60191 12.7047C8.6252 12.7047 8.71634 12.6949 8.74168 12.6911C8.76498 12.6871 8.78443 12.7007 8.77074 12.7201C8.76498 12.7337 8.72223 12.7337 8.72223 12.7337ZM8.85624 12.1341C8.85624 12.1341 8.82706 12.1962 8.79416 12.1962C8.76114 12.1924 8.76114 12.1827 8.76114 12.1729C8.76114 12.1594 8.79416 12.1244 8.79019 12.1147C8.78059 12.1147 8.75717 12.1147 8.76114 12.0914C8.76114 12.0719 8.79416 12.0486 8.82322 12.053C8.84517 12.0349 8.87251 12.0247 8.90091 12.0239C8.93394 12.0239 8.96299 12.0335 8.96299 12.053C8.96299 12.0724 8.92459 12.1151 8.91051 12.1249C8.89503 12.1404 8.87557 12.1505 8.85624 12.1345V12.1341ZM8.41349 13.2817C8.41349 13.2817 8.37509 13.2857 8.37509 13.305C8.37509 13.3147 8.38469 13.3147 8.39839 13.309C8.40627 13.3085 8.41409 13.3072 8.42168 13.305C8.42552 13.309 8.42552 13.3283 8.45471 13.3283C8.47867 13.3251 8.50176 13.3171 8.52267 13.305C8.54597 13.2954 8.56543 13.2855 8.56543 13.2666C8.5557 13.2336 8.53624 13.218 8.50719 13.218C8.4923 13.217 8.47745 13.2204 8.46443 13.2277C8.46443 13.2277 8.45471 13.2082 8.42168 13.2277C8.38866 13.2471 8.3925 13.2471 8.40223 13.2569C8.41963 13.2724 8.41387 13.2825 8.41387 13.2825L8.41349 13.2817ZM8.1941 13.4837C8.1941 13.474 8.24261 13.4545 8.25618 13.4604C8.26975 13.4642 8.30853 13.538 8.30853 13.5458C8.30853 13.5555 8.26002 13.5788 8.24056 13.5788C8.22111 13.5788 8.18821 13.5458 8.18821 13.5404C8.18821 13.5366 8.21151 13.5308 8.21151 13.5268C8.21727 13.5172 8.1941 13.4938 8.1941 13.4841V13.4837ZM8.0405 13.2002C8.05023 13.1963 8.05023 13.1866 8.06379 13.1769C8.06804 13.174 8.07288 13.1722 8.07794 13.1716C8.083 13.1709 8.08814 13.1714 8.09298 13.173C8.0964 13.1669 8.10114 13.1616 8.10685 13.1576C8.11256 13.1535 8.1191 13.1508 8.126 13.1496C8.1493 13.1458 8.16875 13.1496 8.1644 13.1593C8.1644 13.1885 8.18386 13.2078 8.18386 13.2311C8.18386 13.2544 8.17029 13.2836 8.12178 13.3031C8.07327 13.3166 8.00722 13.3166 7.99749 13.3128C7.98776 13.309 7.97803 13.2701 7.98776 13.2506C7.99749 13.2311 8.02463 13.2099 8.04024 13.2002H8.0405Z" fill="#82764F"/>
<path fill-rule="evenodd" clip-rule="evenodd" d="M8.10238 13.2134C8.10238 13.2134 8.06934 13.2328 8.06934 13.2426C8.06641 13.2519 8.06511 13.2618 8.0655 13.2716C8.0655 13.2774 8.10827 13.2678 8.11404 13.2619C8.11596 13.258 8.10238 13.2235 8.10238 13.2134Z" fill="#6E6342"/>
<path fill-rule="evenodd" clip-rule="evenodd" d="M7.81373 13.1225C7.83305 13.1264 7.86608 13.1225 7.89129 13.1322C7.91074 13.1419 7.92431 13.1614 7.90486 13.1846C7.8854 13.2079 7.86646 13.2429 7.82333 13.237C7.77482 13.2331 7.72823 13.2079 7.72823 13.1885C7.72742 13.1762 7.72905 13.1638 7.73305 13.1522C7.73705 13.1405 7.74333 13.1298 7.75153 13.1205C7.77098 13.1051 7.78058 13.1148 7.8136 13.1225H7.81373Z" fill="#585136"/>
<path fill-rule="evenodd" clip-rule="evenodd" d="M7.79036 13.1416C7.79036 13.1416 7.72829 13.1901 7.71267 13.2135C7.69322 13.2368 7.59813 13.3572 7.56907 13.3824C7.57872 13.3653 7.58972 13.3491 7.60197 13.3339C7.56357 13.3584 7.53478 13.3954 7.52044 13.4387C7.49715 13.5106 7.6506 13.5494 7.75145 13.5786C7.8523 13.6078 7.89134 13.617 7.89134 13.617C7.85421 13.5612 7.82233 13.5021 7.79612 13.4404C7.75772 13.3491 7.73788 13.3394 7.7631 13.2966C7.78255 13.2539 7.81173 13.2248 7.81173 13.1918C7.80008 13.1611 7.79036 13.1416 7.79036 13.1416Z" fill="#574F35"/>
<path fill-rule="evenodd" clip-rule="evenodd" d="M5.57667 13.2954C5.5908 13.298 5.60529 13.298 5.61942 13.2954C5.64848 13.2914 5.95146 13.1802 6.268 13.2002C6.50497 13.2145 6.73984 13.2531 6.96893 13.3154C7.36701 13.4202 7.86211 13.6279 8.1825 13.7465C8.26787 13.7794 8.35146 13.8378 8.4129 13.8609C8.65763 13.9562 8.66723 13.9562 8.81098 13.9814C8.97994 14.0047 9.15274 13.9483 9.33334 13.9096C9.55466 13.8609 9.93328 13.8376 10.2653 13.7891C10.3727 13.7742 10.4786 13.7502 10.5819 13.7173C10.5819 13.7173 10.3178 13.9814 9.6847 14.0765C9.42881 14.1153 9.16876 14.1186 8.91197 14.0862C8.70998 14.0668 8.5761 14.0376 8.4751 14.0085C8.36054 13.9755 8.12554 13.8881 7.83626 13.8165C7.63427 13.764 7.40899 13.7252 7.15082 13.6767C6.51389 13.5601 5.82269 13.4262 5.57642 13.2962L5.57667 13.2954Z" fill="#252211"/>
<path fill-rule="evenodd" clip-rule="evenodd" d="M4.86209 12.0952C4.70849 12.2253 4.54554 12.3496 4.38644 12.4699L3.90682 12.8384C3.74375 12.9587 3.58452 13.083 3.42132 13.2034C3.25812 13.3239 3.09518 13.4383 2.92212 13.549C3.07572 13.419 3.23866 13.2985 3.40174 13.1801C3.56481 13.0617 3.7339 12.9456 3.89121 12.8256L4.37082 12.4566C4.53582 12.3362 4.69505 12.212 4.86209 12.0955V12.0952ZM4.01358 13.4544C4.01358 13.4544 4.18638 13.3107 4.40193 13.1088C4.66983 12.8585 4.99802 12.538 5.10286 12.4799L4.01345 13.4546L4.01358 13.4544Z" fill="#CFB66C"/>
<path fill-rule="evenodd" clip-rule="evenodd" d="M4.01367 13.4543C4.09918 13.3689 4.19044 13.2854 4.2817 13.2038L4.42148 13.0835C4.46423 13.0451 4.51287 13.0019 4.5555 12.9592C4.64087 12.8738 4.72446 12.7824 4.80983 12.6951C4.85215 12.6512 4.89689 12.6097 4.94385 12.5708C4.96732 12.55 4.9934 12.5324 5.02142 12.5183C5.04484 12.5048 5.07006 12.4799 5.10295 12.4756C5.08362 12.5048 5.06033 12.5183 5.04087 12.5436C5.01758 12.563 4.99812 12.5863 4.97879 12.6056C4.93604 12.6484 4.88753 12.6872 4.84478 12.7261C4.75351 12.8038 4.65841 12.8797 4.56714 12.961C4.47588 13.0422 4.3905 13.1299 4.29911 13.2115C4.20017 13.295 4.1089 13.3766 4.01367 13.4547V13.4543ZM5.17489 12.6776C5.17489 12.6776 4.54193 13.2971 4.41175 13.398L5.17489 12.6776Z" fill="#CFB66C"/>
<path fill-rule="evenodd" clip-rule="evenodd" d="M5.17476 12.6777C5.11782 12.7436 5.05677 12.8059 4.99197 12.8641L4.79997 13.0466C4.73789 13.1087 4.67953 13.1709 4.61361 13.233C4.54564 13.2912 4.48356 13.3482 4.41162 13.402L4.59799 13.2194C4.6602 13.1574 4.72816 13.105 4.79421 13.0428L4.98058 12.8603C5.04458 12.7963 5.10679 12.7341 5.17476 12.6777ZM5.20381 13.0136C5.14547 13.1764 5.07672 13.3354 4.99799 13.4894C4.83492 13.8157 4.59031 14.2233 4.48343 14.4312L5.20381 13.0136Z" fill="#CFB66C"/>
<path fill-rule="evenodd" clip-rule="evenodd" d="M5.20381 13.0137C5.20381 13.0855 5.18436 13.1477 5.16106 13.2098C5.13835 13.2719 5.11246 13.3328 5.0835 13.3923C5.05431 13.4505 5.02129 13.5127 4.98826 13.5691C4.95524 13.6254 4.91646 13.6835 4.88727 13.7419L4.69118 14.0875C4.62321 14.2027 4.55716 14.3185 4.48535 14.4292C4.53386 14.3049 4.59991 14.1885 4.66212 14.0739C4.73009 13.9587 4.79217 13.8435 4.85412 13.7243C4.88437 13.6649 4.91158 13.6041 4.93566 13.5419C4.96471 13.4797 4.99377 13.4215 5.01719 13.3652C5.04625 13.3031 5.06954 13.2447 5.09873 13.1885C5.13162 13.1282 5.15889 13.07 5.20356 13.0137H5.20381Z" fill="#CFB66C"/>
<path fill-rule="evenodd" clip-rule="evenodd" d="M5.8951 14.606C5.8951 14.606 5.7031 14.8603 5.7223 15.1826C5.77465 15.0138 5.8407 14.7555 5.8951 14.606ZM6.07763 14.8609C6.07763 14.8609 6.00966 15.5521 5.95334 15.892C6.03295 15.4991 6.04844 15.5322 6.07763 14.8609ZM7.34944 15.9328C7.34944 15.9328 7.06208 16.7776 7.05619 17.0124C7.1184 16.7709 7.23872 16.2778 7.34944 15.9322V15.9328Z" fill="#DEC270"/>
<path fill-rule="evenodd" clip-rule="evenodd" d="M8.02148 14.5532C8.02148 14.5532 8.48753 15.3221 8.8371 15.9784C8.74251 15.6481 8.52491 15.0424 8.02148 14.5532Z" fill="#CBAF59"/>
<path fill-rule="evenodd" clip-rule="evenodd" d="M9.27393 15.6851C9.52981 16.1374 9.76056 16.6034 9.96513 17.0812C9.92634 16.751 9.82138 16.1861 9.27393 15.6851Z" fill="#E3C677"/>
<path fill-rule="evenodd" clip-rule="evenodd" d="M12.9555 16.8192C13.0331 16.7707 13.1865 16.5065 13.3206 16.4405C13.4544 16.3726 13.5554 16.359 13.6759 16.225C13.7962 16.0851 13.8295 15.9997 14.0933 15.8891C14.4623 15.7298 14.2085 15.5239 14.2085 15.5239C14.2491 15.484 14.2926 15.4471 14.3385 15.4133C14.4338 15.3415 14.5444 15.2541 14.5348 15.1006C14.5212 14.8425 14.4727 14.4677 14.261 14.2502C14.4668 14.2075 14.8609 14.1784 15.1058 14.1163C15.3892 14.0444 15.5194 13.9434 15.5194 13.9434C15.5194 13.9434 15.3563 13.6658 15.6203 13.3862C15.8844 13.1067 16.1 12.9396 16.2592 12.6269C16.0767 12.6036 15.7984 12.5066 15.0882 12.7764C15.1266 12.7945 15.1636 12.8152 15.199 12.8385C15.199 12.8385 14.7621 12.9589 14.6029 13.093C14.3251 13.3278 14.2902 13.5201 13.9892 13.6638C13.6883 13.8076 13.3853 13.7687 13.135 13.8852C12.8846 14.0016 12.8476 14.1007 12.7562 14.1435C12.7757 14.1668 12.7524 14.2055 12.7892 14.2386C12.7659 14.2716 12.63 14.4929 12.4921 14.4929C12.5057 14.5454 12.6222 14.5842 12.6222 14.5842C12.6222 14.5842 12.5368 14.6464 12.3193 14.6619C12.4299 14.7771 12.5349 14.9026 12.8242 15.0852C12.8009 15.1337 12.7037 15.2056 12.7426 15.2969C12.7854 15.3881 12.8962 15.5124 13.3387 15.6134C13.1135 15.623 12.8495 15.6755 12.4939 15.627C12.1386 15.5842 12.0804 15.559 11.861 15.6134C11.8843 15.6367 11.9463 15.6367 12.0007 15.6988C11.9425 15.7026 11.5774 15.656 11.4532 15.8192C11.3231 15.9881 11.2668 16.2658 11.2765 16.4522C11.2085 16.4852 11.1425 16.5435 11.1755 16.6639C11.2085 16.7844 11.3813 16.8231 11.4921 16.8988C11.6027 16.9803 11.6124 17.0094 11.7173 16.99C11.8279 16.9668 11.991 16.8562 12.0862 16.8562C12.1815 16.8562 12.2493 16.928 12.2493 16.928C12.2493 16.928 12.5076 16.8037 12.5328 16.827C12.5561 16.8503 12.5367 16.9998 12.5619 17.0231C12.5875 17.0406 12.8784 16.8678 12.9561 16.8192H12.9555Z" fill="#ECD592"/>
<path fill-rule="evenodd" clip-rule="evenodd" d="M18.6001 9.04855C17.3866 5.91459 14.3865 5.33398 14.3865 5.33398H5.82728L5.8603 8.52618H7.56488V15.6544H5.82715V18.8408H14.1496C16.1553 18.8408 17.7631 16.8252 17.7631 16.8252C20.3379 13.1709 18.6 9.04855 18.6 9.04855H18.6001ZM14.1943 14.6776C14.1943 14.6776 13.5415 15.6194 12.8312 15.6194H11.4104L11.3767 8.53399H13.2001C13.2001 8.53399 14.0449 8.71063 14.6351 10.3824C14.6351 10.3824 15.4175 12.776 14.1943 14.6776Z" fill="white" fill-opacity="0.8"/>
</g>
</g>
<defs>
<clipPath id="clip0_1488_138335">
<rect width="24" height="24" fill="white"/>
</clipPath>
<clipPath id="clip1_1488_138335">
<rect width="24" height="24" fill="white"/>
</clipPath>
</defs>
</svg>
