<svg width="204" height="36" viewBox="0 0 204 36" fill="none" xmlns="http://www.w3.org/2000/svg">
<g clip-path="url(#clip0_1271_18724)">
<path d="M33.393 2.37934C30.8909 0 26.8848 0 18.9866 0H17.0132C10.1723 0 6.25286 0 3.70064 1.5452L22.7101 9.93213C24.1002 10.5475 25.7272 10.233 26.7891 9.14358L33.3976 2.37934H33.393Z" fill="#7086FC"/>
<path d="M1.54501 32.3034C0 29.7508 0 25.8263 0 18.9891V17.0154C0 9.11623 0 5.10509 2.37904 2.60724L9.14242 9.21651C10.2317 10.2785 10.5416 11.9058 9.93088 13.296L1.54501 32.3034Z" fill="#7086FC"/>
<path d="M32.2993 34.4548C29.7471 36 25.823 36 18.9867 36H17.0133C9.11508 36 5.10444 36 2.60691 33.6207L9.21534 26.8564C10.2772 25.767 11.9043 25.4571 13.2943 26.0679L32.3038 34.4548H32.2993Z" fill="#7086FC"/>
<path d="M34.4549 3.70118C35.9999 6.25373 35.9999 10.1783 35.9999 17.0154V18.9891C35.9999 26.8883 35.9999 30.8995 33.6209 33.3973L26.8575 26.788C25.7683 25.726 25.4584 24.0987 26.0691 22.7085L34.4549 3.69662V3.70118Z" fill="#7086FC"/>
<path d="M85.4898 10.0212C83.0443 10.0212 80.9834 10.8444 79.3028 12.4949C77.6223 14.1454 76.7821 16.1719 76.7821 18.5704C76.7821 20.9688 77.6223 22.9954 79.3028 24.6459C80.9834 26.2964 83.0443 27.1195 85.4898 27.1195C87.9354 27.1195 89.9963 26.2964 91.6768 24.6459C93.3573 22.9954 94.1976 20.9688 94.1976 18.5704C94.1976 16.1719 93.3573 14.1454 91.6768 12.4949C90.0716 10.9196 87.9354 10.0212 85.4898 10.0212ZM89.2313 22.4731C88.2405 23.4467 86.9404 23.9731 85.4898 23.9731C83.964 23.9731 82.7391 23.4467 81.7484 22.4731C80.7576 21.4995 80.2225 20.2209 80.2225 18.6498C80.2225 17.0786 80.7576 15.8 81.7484 14.8223C82.7391 13.8487 84.0392 13.3222 85.4898 13.3222C87.0157 13.3222 88.2405 13.8487 89.2313 14.8223C90.222 15.7959 90.7571 17.0745 90.7571 18.6498C90.7571 20.225 90.222 21.4995 89.2313 22.4731ZM56.7788 10.0212C54.7932 10.0212 53.0374 10.6229 51.5115 11.6717V10.322H48V32H51.5115V25.5484C53.0374 26.6724 54.7932 27.1989 56.7788 27.1989C59.2244 27.1989 61.2853 26.3758 62.9658 24.7253C64.6464 23.0748 65.4866 21.0482 65.4866 18.6498C65.4866 16.2513 64.6464 14.2247 62.9658 12.5742C61.2853 10.8485 59.2244 10.0254 56.7788 10.0254V10.0212ZM60.5203 22.4731C59.5295 23.4467 58.2294 23.9731 56.7788 23.9731C55.253 23.9731 54.0281 23.4467 53.0374 22.4731C52.0466 21.4995 51.5115 20.2209 51.5115 18.6498C51.5115 17.0786 52.0466 15.8 53.0374 14.8223C54.0281 13.8487 55.3282 13.3222 56.7788 13.3222C58.3047 13.3222 59.5295 13.8487 60.5203 14.8223C61.5111 15.7959 62.0461 17.0745 62.0461 18.6498C62.0461 20.225 61.5111 21.4995 60.5203 22.4731ZM115.806 10.0964C114.05 10.0964 112.6 10.5477 111.3 11.4461C110.689 11.8973 110.309 12.3444 110.004 12.7957C109.699 12.3444 109.239 11.8221 108.708 11.4461C107.562 10.5477 106.262 10.0964 104.736 10.0964C103.211 10.0964 102.065 10.5477 100.92 11.4461C100.46 11.8973 100.079 12.3444 99.7743 12.7957V10.3973H96.2627V26.8981H99.7743V17.7472C99.7743 16.3976 100.159 15.3488 100.92 14.5214C101.685 13.6983 102.675 13.3222 103.821 13.3222C104.812 13.3222 105.656 13.623 106.342 14.2958C107.027 14.9727 107.332 15.8711 107.332 17.0703V26.8981H110.844V17.7472C110.844 16.3976 111.229 15.3488 111.989 14.5214C112.754 13.6983 113.745 13.3222 114.891 13.3222C115.881 13.3222 116.726 13.623 117.411 14.2958C118.097 14.9727 118.402 15.8711 118.402 17.0703V26.8981H121.914V17.0703C121.914 14.9685 121.303 13.318 120.158 11.9684C118.937 10.6939 117.487 10.0922 115.806 10.0922V10.0964ZM143.296 10.0964C141.541 10.0964 140.09 10.5477 138.79 11.4461C138.18 11.8973 137.799 12.3444 137.494 12.7957C137.189 12.3444 136.729 11.8221 136.198 11.4461C135.053 10.5477 133.753 10.0964 132.227 10.0964C130.701 10.0964 129.555 10.5477 128.41 11.4461C127.95 11.8973 127.57 12.3444 127.265 12.7957V10.3973H123.753V26.8981H127.265V17.7472C127.265 16.3976 127.649 15.3488 128.41 14.5214C129.175 13.6983 130.166 13.3222 131.311 13.3222C132.302 13.3222 133.146 13.623 133.832 14.2958C134.518 14.9727 134.823 15.8711 134.823 17.0703V26.8981H138.334V17.7472C138.334 16.3976 138.715 15.3488 139.48 14.5214C140.245 13.6983 141.235 13.3222 142.381 13.3222C143.372 13.3222 144.216 13.623 144.902 14.2958C145.587 14.9727 145.892 15.8711 145.892 17.0703V26.8981H149.404V17.0703C149.404 14.9685 148.794 13.318 147.648 11.9684C146.428 10.6939 144.977 10.0922 143.296 10.0922V10.0964ZM70.8292 10.3973H67.3176V26.8981H70.8292V18.9464C70.8292 17.4464 71.3643 16.1719 72.355 15.1942C73.3458 14.2206 74.6459 13.6941 76.0965 13.6941V10.3931C74.1108 10.3931 72.355 10.9948 70.8292 12.0436V10.3931V10.3973ZM155.512 10.3973H152V26.8981H155.512V10.3973ZM167.576 10.0964C166.126 10.0964 164.75 10.5477 163.605 11.4461C163.07 11.8221 162.689 12.3444 162.305 12.7957V10.3973H158.793V26.8981H162.305V17.9728C162.305 16.6232 162.765 15.4992 163.605 14.5966C164.445 13.7735 165.515 13.3222 166.886 13.3222C168.032 13.3222 168.947 13.6983 169.637 14.371C170.323 15.0479 170.707 16.0215 170.707 17.2959V26.8981H174.219V17.2959C174.219 15.0437 173.608 13.3222 172.384 12.0436C171.163 10.7691 169.558 10.0922 167.572 10.0922L167.576 10.0964ZM184.912 10.0964C182.546 10.0964 180.485 10.9196 178.805 12.5701C177.124 14.2206 176.284 16.2471 176.284 18.6456C176.284 21.044 177.124 23.0706 178.805 24.7211C180.485 26.3716 182.546 27.1947 184.988 27.1947C187.048 27.1947 188.804 26.6683 190.41 25.6195C191.095 25.1682 191.705 24.6459 192.165 24.0442L190.025 21.6457C189.645 22.097 189.185 22.4689 188.729 22.7697C187.584 23.5219 186.438 23.8937 185.138 23.8937C183.763 23.8937 182.617 23.5177 181.627 22.6945C180.636 21.8714 180.101 20.8936 179.871 19.7696H192.851L192.926 19.3183C193.001 18.7166 193.001 18.2695 193.001 18.0439C193.001 15.7206 192.236 13.7693 190.711 12.2692C189.26 10.8444 187.274 10.0922 184.908 10.0922L184.912 10.0964ZM180.025 16.9951C180.79 14.4462 182.467 13.2428 184.912 13.2428C186.133 13.2428 187.128 13.6189 187.893 14.2916C188.658 14.9685 189.189 15.8669 189.494 17.0661L180.025 16.9909V16.9951ZM198.733 12.1188V10.4683H195.221V26.9691H198.733V19.0175C198.733 17.5174 199.268 16.2429 200.259 15.2652C201.249 14.2916 202.549 13.7651 204 13.7651V10.4641C202.014 10.4641 200.259 11.0658 198.733 12.1146V12.1188ZM152.786 4H154.726C155.261 4 155.695 4.43456 155.695 4.96941V6.90822C155.695 7.44307 155.261 7.87763 154.726 7.87763H152.786C152.251 7.87763 151.816 7.44307 151.816 6.90822V4.96941C151.816 4.43456 152.251 4 152.786 4Z" fill="#171717"/>
</g>
<defs>
<clipPath id="clip0_1271_18724">
<rect width="204" height="36" fill="white"/>
</clipPath>
</defs>
</svg>
