<svg width="20" height="20" viewBox="0 0 20 20" fill="none" xmlns="http://www.w3.org/2000/svg">
<path d="M3.33594 4.16634C3.33594 3.7061 3.70903 3.33301 4.16927 3.33301H7.5026C7.96284 3.33301 8.33594 3.7061 8.33594 4.16634V15.833C8.33594 16.2932 7.96284 16.6663 7.5026 16.6663H4.16927C3.70903 16.6663 3.33594 16.2932 3.33594 15.833V4.16634Z" fill="white"/>
<path d="M11.6693 4.16634C11.6693 3.7061 12.0424 3.33301 12.5026 3.33301H15.8359C16.2962 3.33301 16.6693 3.7061 16.6693 4.16634V15.833C16.6693 16.2932 16.2962 16.6663 15.8359 16.6663H12.5026C12.0424 16.6663 11.6693 16.2932 11.6693 15.833V4.16634Z" fill="white"/>
</svg>
