<svg width="32" height="32" viewBox="0 0 32 32" fill="none" xmlns="http://www.w3.org/2000/svg">
<g clip-path="url(#clip0_2668_20185)">
<circle cx="16" cy="16" r="16" fill="url(#paint0_linear_2668_20185)"/>
<path fill-rule="evenodd" clip-rule="evenodd" d="M22.8554 19.6671C22.9675 18.7654 22.7141 17.9728 22.0819 17.3376C21.8826 17.14 21.6419 16.9565 21.399 16.7712C21.2929 16.6903 21.1865 16.6091 21.0829 16.5263C21.1102 16.5207 21.1332 16.5075 21.1523 16.4964C21.1715 16.4854 21.1868 16.4765 21.1989 16.4798C23.3718 16.0009 23.9922 13.0095 22.8875 11.6265C22.4421 11.0671 21.8854 10.6333 21.2481 10.3072C20.992 10.1806 20.7415 10.0636 20.4861 9.94428C20.2856 9.85064 20.082 9.75557 19.8704 9.65333C19.9806 9.24221 20.1194 8.7469 20.262 8.2382C20.4125 7.70119 20.5673 7.14903 20.6969 6.66543L18.8858 6.18015C18.7594 6.6517 18.6079 7.19169 18.4606 7.71667C18.3212 8.21327 18.1856 8.6965 18.0787 9.0956L16.654 8.71385C16.8804 7.86866 17.191 6.70955 17.461 5.79839L15.6741 5.31958C15.5403 5.81864 15.3864 6.36756 15.2375 6.89816C15.0983 7.39449 14.9635 7.87484 14.8541 8.28333C14.2352 8.11751 13.6302 7.94887 13.0282 7.78106C12.4322 7.61491 11.839 7.44957 11.2383 7.28861C11.0636 7.94061 10.8954 8.56846 10.703 9.18984L11.4274 9.38395C11.6448 9.44219 11.8862 9.50689 12.0971 9.58928C12.712 9.8058 12.9354 10.228 12.7671 10.8558L10.6306 18.5397C10.4818 19.0951 10.1756 19.2719 9.62019 19.1231L8.41278 18.7995C8.09792 19.4916 7.78954 20.1596 7.45054 20.8452C8.051 21.019 8.65309 21.1868 9.25518 21.3546C9.85726 21.5224 10.4593 21.6902 11.0598 21.8641C10.8139 22.7817 10.4969 23.9649 10.2139 24.9244L12.0009 25.4032C12.132 24.9141 12.2808 24.3832 12.4278 23.8592C12.571 23.3485 12.7125 22.8441 12.8338 22.3912C13.0776 22.4691 13.3114 22.5382 13.5394 22.6056C13.7797 22.6766 14.0135 22.7457 14.2456 22.8212C14.1235 23.2771 13.9826 23.779 13.8408 24.2841C13.6972 24.7959 13.5526 25.311 13.4256 25.785L15.2126 26.2638C15.3445 25.7714 15.4945 25.2368 15.6415 24.7126C15.783 24.2085 15.9217 23.7139 16.0391 23.2759C16.085 23.2882 16.1238 23.2882 16.1522 23.2882C16.1687 23.2882 16.1816 23.2882 16.1904 23.2906C16.5237 23.3213 16.861 23.3642 17.1987 23.4071C17.757 23.4781 18.3163 23.5492 18.8601 23.5659C20.018 23.5915 21.0555 23.1965 21.7814 22.2263C22.4248 21.467 22.7302 20.6171 22.8554 19.6671ZM16.5796 10.9669C17.5219 11.2064 18.444 11.4407 19.2234 12.0681C19.8219 12.5391 20.0111 13.1851 19.7816 13.8483C19.5457 14.5357 18.9993 14.9328 18.2343 14.9866C17.1601 15.0352 16.1459 14.7635 15.0963 14.4305C15.2572 13.8298 15.421 13.2428 15.5855 12.6528C15.7517 12.0568 15.9187 11.4577 16.0846 10.8389C16.2497 10.8831 16.415 10.9251 16.5796 10.9669ZM14.5501 20.5177C15.5409 20.7599 16.5487 21.0064 17.596 20.8461C18.3498 20.7375 18.8656 20.358 19.0662 19.6094C19.2668 18.8608 19.0163 18.2502 18.4419 17.7857C17.4569 17.0034 16.2846 16.7008 15.105 16.3964C14.9301 16.3513 14.755 16.3061 14.5804 16.2593C14.3904 16.9201 14.208 17.5765 14.0257 18.2329C13.8433 18.8894 13.661 19.5458 13.4709 20.2066C13.6465 20.2537 13.8073 20.3037 13.9619 20.3519C14.105 20.3964 14.2428 20.4393 14.3821 20.4767C14.4381 20.4903 14.494 20.504 14.5501 20.5177Z" fill="white"/>
</g>
<defs>
<linearGradient id="paint0_linear_2668_20185" x1="16" y1="0" x2="16" y2="32" gradientUnits="userSpaceOnUse">
<stop stop-color="#FFAB45"/>
<stop offset="1" stop-color="#FFA02E"/>
</linearGradient>
<clipPath id="clip0_2668_20185">
<rect width="32" height="32" fill="white"/>
</clipPath>
</defs>
</svg>
