<svg width="32" height="32" viewBox="0 0 32 32" fill="none" xmlns="http://www.w3.org/2000/svg">
<path d="M16 31.1609C24.3733 31.1609 31.1612 24.3731 31.1612 15.9998C31.1612 7.6265 24.3733 0.838623 16 0.838623C7.62675 0.838623 0.838867 7.6265 0.838867 15.9998C0.838867 24.3731 7.62675 31.1609 16 31.1609Z" fill="#BA9F33"/>
<path fill-rule="evenodd" clip-rule="evenodd" d="M6.99512 14.2914C6.9045 14.2086 6.80875 14.1257 6.72069 14.0429C6.63262 13.9601 6.54217 13.8772 6.45155 13.7944L6.18224 13.5384C6.1382 13.4944 6.09161 13.4556 6.04758 13.4114C6.00355 13.3727 5.95184 13.3286 5.9078 13.2897C5.55043 12.9506 5.191 12.6115 4.83858 12.2722C5.20363 12.6062 5.56101 12.9378 5.92606 13.2768L6.05287 13.4037C6.0969 13.4476 6.14349 13.4865 6.18753 13.5305L6.45667 13.779C6.54729 13.8618 6.63536 13.9447 6.72598 14.035C6.8166 14.1253 6.90467 14.2084 6.99529 14.291L6.99512 14.2914ZM2.25212 14.2402C2.25212 14.2402 3.55175 14.3747 4.18612 14.4653C4.77372 14.5482 6.61197 14.8303 6.61197 14.8303L2.25212 14.2402ZM2.25212 14.2402C2.61718 14.2712 2.98224 14.31 3.34729 14.3489C3.53366 14.367 3.71235 14.3876 3.89104 14.4057L4.1653 14.437C4.25592 14.4498 4.34398 14.4627 4.43461 14.4757L5.5221 14.6491L6.06567 14.7397C6.24436 14.7708 6.42305 14.8046 6.60941 14.8356C6.43073 14.8175 6.24436 14.7916 6.06567 14.7657L5.5221 14.688L4.43461 14.5276C4.34398 14.5146 4.25592 14.4963 4.1653 14.4835L3.89086 14.452C3.71218 14.4339 3.52581 14.4079 3.34712 14.3871C2.98207 14.3433 2.61701 14.2965 2.25195 14.2397L2.25212 14.2402ZM6.48261 15.1689C6.48261 15.1689 5.09492 15.5212 4.62627 15.6559C4.16547 15.7827 2.76993 16.2073 2.76993 16.2073L6.48244 15.1691L6.48261 15.1689Z" fill="#CFB66C"/>
<path fill-rule="evenodd" clip-rule="evenodd" d="M6.48238 15.1689C6.17432 15.2596 5.86797 15.3476 5.55548 15.4306L4.62859 15.6791C4.32054 15.7697 4.01419 15.8578 3.70699 15.9484L3.24619 16.0752C3.09345 16.1193 2.93814 16.158 2.78027 16.2022C2.93285 16.151 3.08833 16.0986 3.24107 16.0546L3.70187 15.9071C4.00993 15.8112 4.31627 15.7206 4.62347 15.6248C4.93665 15.5472 5.24487 15.4642 5.55804 15.3891C5.85569 15.314 6.16903 15.2391 6.48238 15.1691V15.1689ZM2.96408 17.0617C3.11666 17.0047 4.87725 16.1841 5.28634 15.9924C5.49114 15.8965 6.08643 15.6852 6.08643 15.6852L2.96408 17.0617Z" fill="#CFB66C"/>
<path fill-rule="evenodd" clip-rule="evenodd" d="M2.96404 17.0615C3.09852 17.0103 3.2255 16.9476 3.35486 16.8881L3.73801 16.7094L4.50704 16.3392C4.76304 16.2175 5.01187 16.0832 5.27589 15.9688C5.41054 15.912 5.5452 15.8654 5.67969 15.8214L5.88449 15.7567C5.95429 15.7386 6.01914 15.7178 6.08929 15.6997C5.83329 15.8214 5.5638 15.925 5.30746 16.0439C5.05146 16.1709 4.78966 16.2745 4.52547 16.3883L3.74364 16.7326C3.48116 16.8389 3.22516 16.9527 2.96387 17.0615H2.96404ZM3.1347 17.7783C3.1347 17.7783 4.72941 16.8437 5.27828 16.5433C5.56568 16.3829 6.49513 15.9219 6.49513 15.9219L3.1347 17.7783Z" fill="#CFB66C"/>
<path fill-rule="evenodd" clip-rule="evenodd" d="M3.13574 17.7787C3.40488 17.613 3.67932 17.4447 3.95375 17.2739L4.36335 17.0252C4.50312 16.9424 4.63778 16.8648 4.78029 16.782C4.92006 16.6991 5.05472 16.6163 5.19705 16.5386C5.26481 16.4968 5.33581 16.4604 5.40936 16.4299L5.62679 16.3212C5.9142 16.1814 6.2016 16.0389 6.50453 15.9172C6.2301 16.0908 5.94782 16.2384 5.66571 16.391C5.52593 16.4687 5.38342 16.5386 5.24365 16.6163C5.10387 16.6939 4.96921 16.7769 4.82671 16.852C4.68693 16.9348 4.55228 17.0124 4.40994 17.0875L3.98788 17.3179L3.13608 17.7787H3.13574ZM6.4832 16.1268C6.4832 16.1268 5.49163 16.888 5.1706 17.1314C4.84958 17.3747 3.9046 18.0582 3.9046 18.0582L6.4832 16.1268Z" fill="#CFB66C"/>
<path fill-rule="evenodd" clip-rule="evenodd" d="M12.1734 22.2653L11.666 21.3048L11.9611 20.1034L14.0659 19.2906L13.1701 17.4525L13.6128 15.5961L14.444 13.9338L17.0123 13.5301L18.8996 11.7307L22.9747 12.0388L23.7746 16.3961L22.2342 21.8821L21.3566 24.7224L17.7993 24.857L16.1476 23.7127L14.2136 22.9048L12.1734 22.2653Z" fill="#E2CC85"/>
<path fill-rule="evenodd" clip-rule="evenodd" d="M18.413 22.2344C18.413 22.2344 17.921 22.4597 17.0818 22.4078C16.839 22.0816 15.1381 21.9289 15.1381 21.9289C15.1381 21.9289 14.9258 21.8642 14.5503 22.0195C14.1725 22.1731 13.8151 22.1542 13.4811 22.237C13.1471 22.3197 12.8155 21.8849 12.5595 21.7942C12.3035 21.6985 11.964 21.4681 11.964 21.4681L11.2472 21.3981L9.80783 20.7897L7.52106 18.5115L6.89967 19.4843L6.70801 20.6882L7.39938 22.1148L9.26084 23.8105L12.8906 24.7321L15.042 24.0982L17.7372 22.959L18.413 22.2342V22.2344Z" fill="#F1D789"/>
<path fill-rule="evenodd" clip-rule="evenodd" d="M5.51755 14.1826L5.97835 12.7873L6.52739 11.8862L8.29549 11.7385L7.76472 13.2868L6.28657 15.9173L6.90012 18.2655L5.8128 18.8091L5.47864 18.2966L5.2095 17.1212L5.19141 15.8007L5.51755 14.1826Z" fill="#F4ECB4"/>
<path fill-rule="evenodd" clip-rule="evenodd" d="M7.50053 22.1386L7.16141 21.6648C7.16141 21.6648 7.07078 21.4395 7.12267 21.2427C7.17387 21.0434 7.16653 21.0304 7.14076 20.9553C7.11499 20.8802 6.89738 20.6213 6.91035 20.3986C6.92315 20.1733 6.89226 20.0983 7.05781 19.9197C7.23121 19.7463 7.1795 19.446 7.1795 19.446L7.40478 19.5857L7.45598 19.5081C7.45598 19.5081 7.53876 19.5728 7.53876 19.6738C7.55685 19.534 7.48175 18.8867 7.65259 18.7392C7.82343 18.5918 8.12637 19.4304 8.12637 19.4304L7.94 18.2136L7.46093 16.9658L6.60912 15.8266L6.55792 14.5709V14.4622C6.55792 14.4622 6.16692 15.0629 6.0582 15.5374C5.98055 15.8635 6.16692 16.2596 6.12818 16.7283C6.09694 17.1944 6.0582 17.158 6.17204 17.3427C6.28588 17.5273 6.56304 17.9071 6.45433 18.1815C6.35858 18.4172 6.03226 18.2515 6.03226 18.2515C6.03226 18.2515 5.96758 18.443 5.87951 18.5129C5.84845 18.3991 5.81483 18.3266 5.7527 18.2569C5.74741 18.301 5.73461 18.3605 5.73461 18.3605C5.73461 18.3605 5.67761 18.1818 5.62061 17.9566C5.54312 17.6564 5.46018 17.2602 5.38508 17.0479C5.35402 17.1696 5.27637 17.5398 5.27637 17.5398L5.3204 18.1095L5.53271 18.8913L5.73752 19.4033L5.93686 20.0298L6.11009 20.4507L6.24986 20.7717L6.37155 21.4941L6.95916 22.1154L7.27251 22.2553L7.50019 22.1387L7.50053 22.1386Z" fill="#F3E19D"/>
<path fill-rule="evenodd" clip-rule="evenodd" d="M5.82535 13.0434C5.82535 13.0434 5.40329 13.7602 5.28177 14.4828C5.16026 15.2054 5.05137 15.9689 5.12817 16.9527C5.20582 17.9444 5.35345 18.5527 5.47258 18.9877C5.67738 19.7101 6.20782 20.7147 6.20782 20.7147L6.22591 20.6758C6.13675 20.5068 6.06559 20.3289 6.0136 20.145C5.94362 19.8706 5.91768 19.5444 5.853 19.3968C5.79599 19.2493 5.70025 19.1224 5.65366 18.9411C5.60962 18.7677 5.60246 18.4933 5.46729 18.2888C5.41028 18.2059 5.34031 17.9884 5.31966 17.771C5.29372 17.4447 5.33263 17.0796 5.30157 16.7794C5.24457 16.2797 5.20582 15.9406 5.25754 15.679C5.30925 15.4174 5.57873 14.6746 5.74445 14.0843C5.85317 13.7062 5.78831 13.3878 5.98765 13.0589C6.18699 12.7328 6.30885 12.4454 6.35271 12.246C6.40391 12.0648 5.82467 13.0434 5.82467 13.0434H5.82535Z" fill="#F2E8B0"/>
<path fill-rule="evenodd" clip-rule="evenodd" d="M7.82631 12.7559C7.82631 12.7559 7.60888 12.8207 7.50529 12.9345C7.40169 13.0433 7.35766 13.1339 7.21788 13.3177C7.0781 13.5015 7.07025 13.6517 6.95624 13.8821C6.84241 14.1073 6.59118 14.4465 6.56012 14.5681C6.52906 14.6898 6.47734 15.2593 6.41266 15.5286C6.35566 15.7979 6.47734 16.1294 6.47734 16.1294L6.6248 16.0981C6.6248 16.0981 6.6248 16.2898 6.77243 16.4193C6.91989 16.5461 6.94583 15.9894 6.94583 15.9894L7.49726 14.128L8.32825 13.5636L8.41888 13.1079L7.82597 12.7559H7.82631Z" fill="#F5EEC0"/>
<path fill-rule="evenodd" clip-rule="evenodd" d="M8.23086 13.6C8.23086 13.6 7.83986 13.6258 7.64837 13.7657C7.57072 13.8226 7.53966 13.8692 7.45688 13.9391C7.30414 14.0659 7.14866 14.1825 7.07374 14.3487C6.99079 14.5143 6.90017 14.7655 6.83805 15.2393C6.81211 15.4386 6.8121 15.6224 6.79401 15.783C6.76807 16.0004 6.72933 16.1738 6.74998 16.295C6.77592 16.5435 7.03226 16.673 7.05718 16.9551L7.58795 16.686L8.08767 14.7157L9.14921 14.0501L8.54847 13.377L8.23017 13.5988L8.23086 13.6Z" fill="#E6DB9D"/>
<path fill-rule="evenodd" clip-rule="evenodd" d="M5.42986 26.8679C5.43208 26.8485 5.4343 26.829 5.43651 26.8091C5.514 26.1435 5.52714 25.639 5.58397 25.3231C5.66674 24.8752 5.72375 24.7087 5.71078 24.5411C5.69268 24.2719 5.67203 24.0751 5.69798 23.868C5.73672 23.5935 6.00603 23.2674 5.99835 23.0421C5.99306 22.8634 5.90243 22.747 5.82478 22.6383C5.74713 22.5296 5.685 22.439 5.685 22.439C5.685 22.439 6.21578 22.0739 6.21066 20.6033C6.2215 20.6063 6.23193 20.6107 6.24172 20.6162L6.50318 21.3592L6.68187 21.5766L7.36795 22.8556L8.25081 23.7126L9.55555 24.5902L10.3737 25.4806L10.4565 27.8547L9.38728 29.2424L9.21217 29.5595C7.82102 28.8611 6.54533 27.9533 5.42969 26.8678L5.42986 26.8679Z" fill="#E5CB7A"/>
<path fill-rule="evenodd" clip-rule="evenodd" d="M8.69629 29.1392C8.69629 29.1392 8.71438 28.8441 8.95775 28.6525C8.99666 28.7172 9.02243 28.7795 9.01475 28.8259C9.05878 28.7484 9.36683 28.2512 10.0633 28.1217C10.7598 27.9949 10.9281 27.4875 10.9281 27.4875L12.4062 26.1438L14.0968 24.5879L16.1525 23.8654L17.1132 23.6298C17.1132 23.6298 17.1313 23.6997 17.0951 23.855C17.2736 23.8422 17.6697 23.7516 18.0814 23.6065C18.2471 23.5419 18.4025 23.5159 18.4853 23.6014C18.607 23.7153 18.6251 23.9846 18.6328 24.145C18.8321 24.101 19.0625 23.9095 19.2472 23.9276C19.5424 23.9586 19.8039 24.3056 20.1043 24.3056C20.5004 24.3056 20.6789 24.0622 20.956 23.8706C21.1218 23.7567 21.3598 23.6146 21.4945 23.5185C21.8155 23.2828 25.2123 22.2446 25.2123 22.2446L26.4032 22.3223L26.5948 23.6013L26.4924 26.9446C26.4798 26.9567 26.4672 26.9694 26.4544 26.9815L21.0395 29.8096L13.5336 30.9602C11.8523 30.6855 10.2298 30.1274 8.7352 29.3097L8.6968 29.1391L8.69629 29.1392Z" fill="#D8C173"/>
<path fill-rule="evenodd" clip-rule="evenodd" d="M5.88574 27.2932C5.99241 27.0702 6.08832 26.8836 6.10522 26.8169C6.11853 26.9514 6.14294 27.2465 6.19209 27.5601C6.08889 27.4724 5.98678 27.3834 5.88574 27.2931V27.2932Z" fill="#F1D789"/>
<path fill-rule="evenodd" clip-rule="evenodd" d="M11.3684 30.4395L12.3391 30.1695L12.4219 30.1955C12.4219 30.1955 12.4659 30.2214 12.4659 30.3093C12.5876 30.2395 12.6912 30.2523 12.7663 30.2059C12.8051 30.2886 12.8438 30.5631 13.0148 30.5967C13.1933 30.6356 13.385 30.519 13.5792 30.3716C13.7707 30.2188 13.9888 30.0272 14.1538 29.9495C14.2144 30.0609 14.268 30.1758 14.3144 30.2938C14.5319 30.1204 14.9099 29.4162 15.4483 29.429C15.604 29.0612 15.864 28.7471 16.1962 28.5255C16.6959 28.1864 17.0091 28.1604 17.4001 28.1915C17.5554 27.9897 17.7467 27.8186 17.9645 27.6866C18.0292 27.7126 18.2078 27.8213 18.4306 27.7177C18.6558 27.6143 18.9095 27.2129 19.2435 27.1612C19.4234 27.1364 19.6064 27.1748 19.7613 27.2699C19.7613 27.2699 20.7341 26.3041 21.4053 25.983C21.3793 25.9054 21.3276 25.6129 22.1146 24.9655C22.1586 25.0044 22.1276 25.1131 22.1586 25.1191C22.1714 25.1191 22.3634 25.0363 22.6064 24.8498C22.9068 24.6247 23.2666 24.389 23.484 24.3243C23.8936 24.2026 24.3281 24.4511 24.3281 24.4511C24.3651 24.4252 24.4063 24.4059 24.4498 24.3941C24.5532 24.376 24.6283 24.3631 24.6853 24.3429C24.6802 24.4776 24.7553 24.708 24.6853 24.9073C24.7664 24.9529 24.8522 24.9894 24.9413 25.016C24.8975 25.1118 24.8016 25.3552 24.6411 25.4717C24.7756 25.5364 24.7937 25.6115 24.9854 25.6765C24.9077 25.7852 24.7806 25.9718 24.7239 26.0861C24.6669 26.2078 24.4623 26.7126 24.3716 26.9041C24.2759 27.0958 24.1465 27.4479 24.0842 27.5185C24.0219 27.5892 23.7968 27.8887 23.6234 28.0362C23.777 27.9792 24.4054 27.7877 24.672 27.7151C24.5927 27.8315 24.1904 28.4284 23.8037 29.0023C21.952 30.1122 19.8851 30.8146 17.7406 31.0629C15.5962 31.3111 13.4234 31.0995 11.3672 30.4421L11.3684 30.4395Z" fill="#E0CD81"/>
<path fill-rule="evenodd" clip-rule="evenodd" d="M8.29448 13.5302C8.29448 13.5302 8.06937 13.5302 8.02534 13.5613C7.98131 13.5923 8.25062 13.6572 8.33339 13.6882C8.41617 13.7193 8.59486 13.8616 8.64145 13.9756C8.68548 14.0844 10.2595 14.7186 10.2595 14.7186L11.3728 14.6615L11.7566 14.1313L11.0265 13.4918L11.5385 11.9824L10.8603 12.0911L9.22923 13.0639L8.41105 13.3773L8.29448 13.5302Z" fill="#DFC57C"/>
<path fill-rule="evenodd" clip-rule="evenodd" d="M10.7388 14.0299C10.7549 14.056 10.7775 14.0773 10.8045 14.0919C10.8314 14.1064 10.8618 14.1136 10.8924 14.1127C11.1228 14.1127 11.3349 14.1697 11.423 14.2861C11.5706 14.4726 11.9797 15.0681 11.9797 15.0681L12.9583 15.4202L13.0214 14.2678L11.9522 13.5249L10.7354 13.9727V14.0297H10.7381L10.7388 14.0299Z" fill="#E5CC7C"/>
<path fill-rule="evenodd" clip-rule="evenodd" d="M10.5471 14.4571C10.5471 14.4571 10.7257 14.47 10.9509 14.3871C11.1762 14.3041 11.5464 14.1256 11.707 14.1956C11.9321 14.2913 11.8855 14.5917 12.1291 14.8612C12.2765 15.0269 12.5458 15.0218 12.6986 15.2005C12.8513 15.3792 13.3768 15.2962 13.3768 15.2962L13.5761 16.3714L12.7762 17.3968L12.5146 18.6705H11.4329L10.4447 18.2785L9.95801 17.1009L10.2014 15.9099L10.5471 14.4571Z" fill="#D2C281"/>
<path fill-rule="evenodd" clip-rule="evenodd" d="M12.6397 14.5087C12.6665 14.517 12.6944 14.5213 12.7224 14.5217C12.6914 14.5476 12.6265 14.6044 12.6525 14.7521C12.6784 14.8997 12.7612 15.086 12.6914 15.1999C12.7471 15.2608 12.7886 15.3333 12.8131 15.4122C12.8571 15.5391 12.8701 15.6555 13.1573 15.6738C13.1158 15.6993 13.0776 15.7297 13.0435 15.7644C13.0435 15.7644 13.2428 15.9378 13.3438 16.0982C13.4473 16.0938 13.7217 16.0085 13.7217 16.0085L13.7787 16.0474L13.9004 15.9962C13.9004 15.9962 13.7865 15.9521 13.8693 15.6752C13.947 15.4318 14.0169 15.4448 14.0229 15.4267C14.0289 15.4086 14.0799 15.1523 14.0799 15.0487C14.1187 14.9142 14.1497 14.5051 14.1497 14.5051L14.0669 13.6016L13.601 13.3193L13.2221 12.9536L12.8648 13.6267L12.6294 13.8614L12.6113 14.4438L12.6397 14.5087Z" fill="#E2C270"/>
<path fill-rule="evenodd" clip-rule="evenodd" d="M13.7607 13.7527C13.7607 13.7527 13.8435 13.9882 13.8747 14.1695C13.8858 14.1343 13.8918 14.0977 13.8928 14.0608C13.8928 14.0608 13.9575 14.4181 13.9703 14.5658C13.9963 14.5605 14.0215 14.5528 14.0273 14.5786C14.0331 14.6043 14.0922 14.8919 14.0785 15.0523C14.1863 14.8745 14.3355 14.7253 14.5134 14.6175C14.617 14.5526 14.7387 14.4828 14.8656 14.4775C15.065 14.4724 15.2099 14.6045 15.4481 14.6045C16.0228 14.6045 16.5433 14.1825 16.9264 14.0531C17.2086 13.9572 17.4519 13.8874 17.6228 13.7319C17.7057 13.6621 17.8533 13.5068 17.9878 13.2762C18.1665 12.969 18.3529 12.7016 18.5394 12.668C18.455 12.6835 18.3692 12.6895 18.2834 12.6861C18.2834 12.6861 18.3404 12.629 18.437 12.5514C18.5336 12.4737 18.6493 12.378 18.8149 12.378C19.1101 12.378 19.2576 12.4219 19.4233 12.4219C19.589 12.4167 19.6848 12.378 19.6848 12.378C19.6848 12.378 19.8583 12.4997 20.2491 12.4997C20.6401 12.5048 20.9016 12.5384 21.1062 12.5567C21.3109 12.5749 21.9968 12.4997 22.1936 12.5055C22.3218 12.5104 22.4478 12.5413 22.5639 12.5961L21.9295 10.7529L19.6508 8.76123L18.2942 9.72174L16.2072 11.8085L14.1879 12.5567L13.7659 13.0305V13.7527H13.7607Z" fill="#CCB360"/>
<path fill-rule="evenodd" clip-rule="evenodd" d="M18.2914 12.6963C18.2914 12.6963 18.3484 12.6395 18.4439 12.5618C18.5395 12.4842 18.6564 12.3883 18.822 12.3883C19.1171 12.3883 19.2647 12.4323 19.4304 12.4323C19.5961 12.4272 19.6919 12.3883 19.6919 12.3883C19.6919 12.3883 19.8656 12.5098 20.2563 12.5098C20.6473 12.5149 20.9087 12.5485 21.1134 12.5666C21.318 12.5847 22.0039 12.5098 22.2007 12.5154C22.329 12.5203 22.4549 12.5511 22.5709 12.606L22.2835 11.7749L21.9497 11.1407L20.9968 10.0972C20.9968 10.0972 19.8533 9.42414 19.8446 9.41902C19.8395 9.4139 19.4485 9.3103 19.4485 9.3103L18.4129 9.93682L17.4732 12.368L17.4551 12.88L18.0633 13.1674C18.2161 12.9114 18.3845 12.7066 18.5424 12.6806C18.3999 12.6962 18.2912 12.6962 18.2912 12.6962L18.2914 12.6963Z" fill="#D5B457"/>
<path fill-rule="evenodd" clip-rule="evenodd" d="M18.2786 12.8699C18.188 12.8751 18.113 12.857 18.0922 12.7923C18.0146 12.5749 17.9525 12.5438 17.8874 12.5438C17.8224 12.5438 17.7347 12.6836 17.6826 12.6964C17.6306 12.7092 17.5688 12.536 17.5688 12.536L17.5118 12.51C17.5118 12.51 17.1778 12.7274 16.9423 12.9838C16.7068 13.2401 16.3209 13.6752 16.1475 13.7526C15.9741 13.8301 15.3785 13.8562 15.1747 13.9003C14.9709 13.9443 14.745 14.0919 14.7139 14.1255C14.6828 14.1592 14.8047 14.1953 14.8228 14.229C14.8409 14.26 14.6233 14.2471 14.6052 14.2802C14.5924 14.3061 14.6564 14.4536 14.6881 14.5287C14.7437 14.501 14.8046 14.486 14.8666 14.4846C15.066 14.4795 15.211 14.6116 15.4491 14.6116C16.0239 14.6116 16.5443 14.1895 16.9274 14.06C17.2097 13.9643 17.4531 13.8943 17.6239 13.739C17.7067 13.6692 17.8543 13.5137 17.989 13.2833C18.0873 13.1254 18.1832 12.9778 18.2791 12.8691L18.2786 12.8699Z" fill="#D2B257"/>
<path fill-rule="evenodd" clip-rule="evenodd" d="M10.0347 25.683C10.0347 25.683 9.98352 25.4913 9.50906 24.9969C9.37441 24.8571 9.29163 24.7409 9.20101 24.6578C8.97573 24.4453 8.84363 24.3885 8.68321 24.2668C8.33112 24.0053 7.94798 24.0053 7.65289 23.6843C7.35781 23.3632 7.01392 22.7499 6.77498 22.123C6.53946 21.4965 6.47461 21.2971 6.47461 21.279C6.47461 21.2609 6.53946 21.1393 6.62224 21.1573C6.70501 21.1754 6.70501 21.3359 6.72583 21.3748C6.76707 21.4383 6.81384 21.498 6.86561 21.5533C6.98729 21.6932 7.16069 21.8605 7.24875 22.11C7.23066 21.8977 7.15813 21.6622 7.15813 21.6622C7.15813 21.6622 7.61381 21.9496 8.00208 22.2498C8.39307 22.5502 8.5535 22.6538 8.66768 22.8453C8.78185 23.0368 9.05082 23.5418 9.17968 23.6894C9.30853 23.837 11.0741 24.3936 11.0741 24.3936L11.9139 25.0198L12.3309 25.9337L12.0046 26.4457L11.378 26.5804L10.3605 26.1247L10.0347 25.6828V25.683Z" fill="#D2B159"/>
<path fill-rule="evenodd" clip-rule="evenodd" d="M7.77441 22.5347C7.77441 22.5347 7.98672 22.8738 8.50453 23.1948C8.97062 23.4771 9.70841 23.7335 10.3662 23.8862C10.744 23.9768 11.122 24.0466 11.4612 24.0519C12.3751 24.0647 13.0042 23.8034 13.7836 23.7179C14.2056 23.6739 14.7234 23.6403 15.2619 23.5131C15.9531 23.3474 16.3622 23.1609 16.9189 22.8987C17.3227 22.7124 17.693 22.5726 17.9933 22.3939C18.4153 22.1454 18.7234 21.8684 19.0807 21.7856C19.0367 21.9073 18.9901 22.1248 18.638 22.35C18.8244 22.3447 19.0807 22.3319 19.0807 22.3319C19.0807 22.3319 18.8322 22.4794 18.3947 22.8108C18.1253 23.0156 17.7681 23.3623 17.4031 23.5927C17.1674 23.7403 16.9111 23.8487 16.7428 23.9371C16.3332 24.1623 16.168 24.2762 15.8988 24.5515C15.9946 24.5463 16.0024 24.5515 16.0024 24.5515C16.0024 24.5515 15.6631 24.5955 15.4199 24.7249C15.3687 24.7249 15.28 24.7068 15.1247 24.7508C15.003 24.7895 14.8424 24.8778 14.6769 24.9242C14.4412 24.9942 14.3637 24.9631 14.3637 24.9631L14.4024 25.0408C14.4024 25.0408 14.0952 25.0355 13.9928 25.0459C14.0109 25.051 14.0058 25.0589 14.0058 25.0589C13.9878 25.0619 13.9705 25.068 13.9546 25.077C13.9053 25.1089 13.8511 25.1325 13.7942 25.1468C13.7631 25.1519 13.7372 25.1519 13.6983 25.1597C13.7112 25.1908 13.8123 25.3645 13.8589 25.4669C13.8201 25.4929 13.2375 25.933 13.2375 25.933C13.2555 25.9615 13.2703 25.9919 13.2815 26.0236C13.2996 26.0805 13.3074 26.1634 13.3255 26.2022C13.3694 26.2798 13.3953 26.2928 13.3953 26.2928C13.3953 26.2928 13.3255 26.3058 13.2037 26.3368C13.1002 26.3628 12.9733 26.4066 12.7941 26.4326C12.7391 26.4397 12.6838 26.444 12.6283 26.4455C12.6543 26.5025 12.7681 26.72 12.5584 26.971C12.3486 27.2221 12.2839 27.2586 12.2193 27.419C12.1867 27.3944 12.152 27.3727 12.1157 27.3542C12.0459 27.3231 11.9499 27.2767 11.9163 27.2144C11.8967 27.2974 11.8708 27.3787 11.8387 27.4578C11.774 27.6311 11.6782 27.8022 11.6602 27.9315C11.5902 27.8539 11.4608 27.7011 11.2821 27.7322C11.1034 27.7632 10.9611 28.0066 10.93 28.0766C10.93 28.0326 10.899 27.9989 10.8913 28.0506C10.886 28.1076 10.7877 28.7029 10.2388 29.1846C10.2337 29.0629 10.2337 28.7936 10.2208 28.7057C10.1696 28.7569 10.1069 28.8325 9.73401 28.9931C9.36895 29.1535 9.42681 29.3141 9.42681 29.3141C9.42681 29.3141 9.39575 29.0581 9.59253 28.7884C9.79187 28.5193 9.91355 28.3923 9.91355 28.3717C9.91033 28.3506 9.90135 28.3309 9.88761 28.3147C9.86167 28.2887 9.80996 28.2577 9.80996 28.237C9.84102 28.2242 10.1491 28.0766 10.131 27.7709C10.1129 27.4967 9.99649 27.3542 9.91355 27.2533C9.90075 27.2403 10.0354 27.1446 10.0171 27.1135C10.0042 27.0954 9.83863 26.9736 9.81781 26.9087C9.8227 26.87 9.83139 26.8319 9.84375 26.7949C9.86184 26.7379 9.87481 26.699 9.86969 26.6602C9.85672 26.5955 9.78674 26.4169 9.76609 26.3988C9.78418 26.4039 9.91355 26.3988 9.91355 26.3988C9.91355 26.3988 9.81013 26.233 9.79186 26.1554C9.7736 26.0777 9.73486 25.8731 9.71421 25.8344C9.75824 25.8395 9.86696 25.8472 9.86696 25.8344C9.87225 25.7955 9.77121 25.7308 9.81576 25.6808C9.84682 25.6859 9.90638 25.7118 9.96321 25.7844C9.93215 25.7014 9.88044 25.541 9.77156 25.4763C9.82276 25.4582 9.99683 25.4115 10.1496 25.5021C10.3023 25.5927 10.3544 25.7195 10.3544 25.7195C10.3544 25.7195 10.445 25.7895 10.585 25.8931C10.7454 26.0199 10.9498 26.2003 11.2762 26.3279C11.3461 26.3669 11.5246 26.3669 11.6542 26.3409C11.7106 26.3275 11.7647 26.3057 11.8146 26.2762C11.8326 26.2656 11.8517 26.2569 11.8716 26.2503C11.8438 26.1944 11.8118 26.1407 11.7759 26.0897C11.8199 26.0897 11.8716 26.095 11.8716 26.095C11.8716 26.095 11.9027 26.025 11.7629 25.8902C11.794 25.8591 11.8329 25.839 11.8329 25.7866C11.7888 25.7815 11.7112 25.7168 11.6931 25.6908C11.7189 25.6727 11.7578 25.6132 11.8018 25.5951C11.7629 25.564 11.6671 25.4345 11.6231 25.4217C11.6652 25.4061 11.7059 25.387 11.7448 25.3647C11.7448 25.3647 11.5274 25.3077 11.4574 25.2611C11.3874 25.2099 11.284 25.1213 11.2219 25.0954C11.157 25.0694 11.0432 25.0566 10.9966 25.0048C11.0405 25.0177 11.1104 25.0048 11.1623 25.0048C11.2011 25.0048 11.2193 25.0099 11.2321 25.0099C11.227 24.9918 11.227 24.9529 11.328 24.9401C11.3766 24.9328 11.4238 24.9179 11.4678 24.896C11.4678 24.896 11.3719 24.8909 11.263 24.7873C11.1541 24.6837 11.0637 24.601 11.0016 24.588C10.9369 24.575 10.8152 24.632 10.7401 24.6267C10.6365 24.6139 10.5925 24.5621 10.5925 24.5621C10.5925 24.5621 10.2482 24.5931 9.48449 24.1272C8.82418 23.7232 8.53678 23.366 8.53678 23.366C8.47499 23.3436 8.41526 23.3158 8.35827 23.2831C8.10977 23.1537 7.76537 22.8844 7.77578 22.5321L7.77441 22.5347Z" fill="#C2A44D"/>
<path fill-rule="evenodd" clip-rule="evenodd" d="M17.3 6.99554C17.3599 7.015 17.4131 7.05089 17.4536 7.09914C17.5753 7.23891 17.6529 7.50293 17.3759 7.78522C17.4846 7.82396 17.5295 7.83642 17.6244 7.82396C17.5287 7.93796 17.3112 8.18133 17.2983 8.39364C17.2853 8.56704 17.394 8.61892 17.394 8.61892C17.394 8.61892 17.2283 8.81041 17.2206 9.13092C17.2989 9.04267 17.3845 8.96125 17.4766 8.88755C17.6683 8.73481 17.9323 8.56141 18.111 8.45269C18.1086 8.49826 18.1147 8.54388 18.1291 8.58718C18.1291 8.58718 18.4629 8.31275 18.7435 8.4346C18.8703 8.49161 18.8133 8.67012 18.8133 8.67012C18.8133 8.67012 18.9869 8.60544 19.1086 8.72713C19.2302 8.84881 19.4023 9.16267 19.4905 9.28435C19.5293 9.34136 19.6303 9.45007 19.7337 9.61835C19.875 9.85394 19.993 10.1028 20.086 10.3613C20.0911 10.2266 20.1247 10.017 20.508 10.149C20.8912 10.2836 21.3261 10.5659 21.6911 11.1218C22.0562 11.6776 22.1466 12.3052 22.3304 12.5441C22.5168 12.7745 22.7085 13.1576 22.7214 13.3182C22.7344 13.4788 22.6644 13.9965 23.0476 15.3971C23.1563 14.9623 23.322 13.9965 23.322 13.9965L23.4127 13.1447L23.5163 10.5091L20.764 8.22264L18.6126 6.66138L17.2119 6.79603L17.2998 6.99537L17.3 6.99554Z" fill="#CAA13E"/>
<path fill-rule="evenodd" clip-rule="evenodd" d="M22.4127 10.9177C22.4127 10.9177 22.3738 10.6617 21.7267 10.2265C21.0793 9.79672 20.5745 9.79672 20.1086 9.43167C19.7512 9.14426 19.3784 8.48395 19.1358 8.26652C18.9001 8.05165 18.8613 7.43025 18.8613 7.43025L19.6561 6.76465L20.8382 5.0561L21.8374 3.95581L22.3163 4.62141L22.9819 5.40324L23.3521 6.97218L23.4867 9.26868L22.4115 10.9178L22.4127 10.9177Z" fill="#B59544"/>
<path fill-rule="evenodd" clip-rule="evenodd" d="M23.2127 13.6704C23.2323 13.3221 23.1893 12.9731 23.0858 12.64C22.9151 12.1093 22.5422 11.1668 22.3689 10.8139C22.299 10.4229 22.3509 10.3919 22.426 10.3478C22.501 10.3038 22.7833 10.143 22.938 9.57897C23.0926 9.01491 23.5723 8.99648 23.5723 8.99648L23.8674 8.77905L24.3154 9.89999L24.7062 10.9124L24.8279 11.6865L24.9186 12.3467L24.7062 13.7422L23.6578 14.6898L23.2126 13.6704H23.2127Z" fill="#C89D3A"/>
<path fill-rule="evenodd" clip-rule="evenodd" d="M8.58301 29.2248V29.1961C8.60479 29.1825 8.62403 29.1651 8.63984 29.1449C8.65793 29.1189 8.67107 29.0879 8.68387 29.0802C8.70981 29.0672 8.8315 29.029 8.89618 29.0413C8.96086 29.0536 9.13187 29.1241 9.2225 29.1189C9.40886 29.1138 9.62629 28.9713 9.9707 29.0362C10.4885 29.1319 10.6102 29.484 10.9106 29.6834C11.1154 29.8233 11.3273 29.761 11.3584 29.761H11.4282C11.4412 29.761 11.5369 29.6523 11.5888 29.6576C11.6924 29.6627 11.7026 29.7482 11.7673 29.7533C11.9201 29.7714 12.2153 29.6757 12.3629 29.7146C12.4067 29.7283 12.4465 29.7524 12.479 29.7848C12.5114 29.8172 12.5355 29.857 12.5493 29.9008C12.5804 29.9965 12.5544 30.1182 12.4793 30.1882C12.3189 30.3357 12.1662 30.4756 12.1351 30.5978C12.1746 30.6279 12.2125 30.6601 12.2488 30.6941C10.9678 30.3677 9.73527 29.8742 8.58301 29.2263V29.2248Z" fill="#CEB052"/>
<path fill-rule="evenodd" clip-rule="evenodd" d="M22.3691 24.052C22.3691 24.052 22.7729 23.5135 22.9129 23.2468C23.0527 22.9718 22.4702 19.4902 22.4702 19.4902L23.6405 15.656L23.6092 14.4081C23.6092 14.4081 23.6662 13.2559 23.8009 12.7562C23.9615 13.0436 24.4612 13.3906 24.5699 13.5744C24.6211 13.2222 24.7951 12.4792 24.7693 11.687C24.865 11.8345 25.0954 13.3181 25.0954 13.3181L25.3258 14.3173L25.6262 15.3789L25.9602 16.5L26.1596 17.2741L26.2734 17.4605L26.3693 17.7866L26.46 18.1389L26.7214 18.9648L26.875 19.643L26.9967 20.8728C27.0232 20.967 27.0422 21.0631 27.0537 21.1602C27.0588 21.2949 27.0356 21.3725 27.0356 21.3959C27.0356 21.4193 27.0797 21.691 27.0616 21.8956C27.0356 22.1004 27.0356 22.2607 26.875 22.4076C26.7144 22.5546 26.6136 23.4328 26.6136 23.4328L26.3261 23.2413C26.3261 23.2413 26.3832 22.9797 26.2485 22.7416C26.1138 22.5035 25.8524 22.4542 25.7047 22.4931C25.5573 22.5242 25.2622 22.5706 25.1663 22.6535C25.0756 22.7363 24.8531 22.9927 24.6485 23.1092C24.3924 23.2628 23.9753 23.2749 23.7528 23.3267C23.5275 23.3779 23.279 23.5315 23.0173 23.7098C22.8122 23.8426 22.5956 23.9568 22.3702 24.0511L22.3691 24.052Z" fill="#CCA847"/>
<path fill-rule="evenodd" clip-rule="evenodd" d="M22.3691 29.7088C22.3691 29.7088 22.3862 29.7199 22.4191 29.738C24.2585 28.8763 25.9066 27.6547 27.2661 26.1455C27.2512 25.6215 27.2319 25.0845 27.2108 24.8855C27.1669 24.4634 27.198 24.0337 27.185 23.7852C27.172 23.5367 27.0323 22.5243 26.9676 22.2628C26.8976 22.0014 26.7628 21.8718 26.7423 21.8718C26.7242 21.8771 26.6153 22.3639 26.6153 22.4862C26.6153 22.6086 26.5894 22.9032 26.5894 22.9783C26.5713 22.973 26.5636 22.9271 26.5636 22.9083C26.5377 22.973 26.5066 23.087 26.4936 23.0999C26.4807 23.1129 26.5117 22.9912 26.4936 22.9653C26.4755 22.9393 26.4424 22.9523 26.4496 22.8876C26.4527 22.8493 26.4587 22.8112 26.4677 22.7738C26.4677 22.7738 26.39 22.8876 26.3332 23.1776C26.2762 23.465 26.2762 23.4728 26.2556 23.4986C26.2375 23.5299 26.1339 23.6333 26.1286 23.6722C26.1235 23.742 26.2245 23.812 26.2322 23.8507C26.2373 23.9156 26.1416 24.2158 26.1105 24.3627C26.0794 24.5096 26.0924 24.7976 26.0593 24.9452C26.0334 25.0798 26.0081 25.1575 25.9195 25.2143C25.9842 25.2273 26.0463 25.2454 26.0463 25.2454C26.0463 25.2454 26.1369 25.6285 25.9065 25.9549C25.8238 26.0687 25.8031 26.1206 25.7151 26.2242C25.5415 26.4157 25.4068 26.6338 25.3939 26.7756C25.3849 26.7337 25.3789 26.6913 25.3758 26.6486C25.3758 26.6486 25.1066 26.962 24.9926 27.1406C24.8452 27.371 24.6405 27.3581 24.583 27.4151C24.5255 27.4721 24.5131 27.5755 24.5318 27.6584C24.4806 27.6712 24.3844 27.6895 24.3195 27.8888C24.2885 27.9923 24.2108 28.0936 24.0891 28.1633C23.9674 28.2329 23.8198 28.2539 23.7447 28.272C23.8094 28.2901 23.8353 28.2901 23.8664 28.3107C23.8277 28.3754 23.649 28.4765 23.4496 28.606C23.2503 28.7277 23.1544 28.9062 23.1052 29.0228C23.054 29.1315 22.9784 29.2014 22.8567 29.2144C22.9079 29.2455 22.9837 29.3178 23.0225 29.3412C22.9654 29.3542 22.8689 29.3542 22.6963 29.5018C22.5151 29.652 22.4529 29.696 22.37 29.709L22.3691 29.7088Z" fill="#C39D3C"/>
<path fill-rule="evenodd" clip-rule="evenodd" d="M18.7665 30.9085C18.8656 30.839 18.973 30.7821 19.0861 30.739C19.4899 30.5786 19.9171 30.5475 20.0854 30.4958C20.246 30.4446 20.3728 30.3739 20.5721 30.3352C20.5668 30.3806 20.5624 30.4233 20.5576 30.4635C19.9699 30.6483 19.3715 30.7969 18.7656 30.9085H18.7665Z" fill="#D2BA6B"/>
<path fill-rule="evenodd" clip-rule="evenodd" d="M26.2145 20.2876C26.2145 20.2876 26.1318 20.7354 25.9841 21.0177C25.8365 21.3 25.6769 21.6908 25.6769 21.6908C25.6779 21.6027 25.6883 21.515 25.708 21.4292C25.5216 21.5379 25.0685 21.7995 24.94 21.9159C24.8183 22.0246 24.6137 22.2163 24.562 22.3069C24.6837 21.9497 24.8105 21.6287 24.8313 21.481C24.6449 21.6157 23.7749 22.3328 23.3219 22.8066L21.9108 23.9484C21.748 24.0362 21.5803 24.1147 21.4086 24.1836C21.1654 24.287 20.878 24.375 20.6657 24.458C20.7227 24.3052 20.8131 24.1704 20.9401 24.041C21.0747 23.9142 21.4785 23.4767 21.5407 23.273C21.5977 23.0607 21.6106 22.9339 21.5355 22.7552C21.4656 22.7733 21.3051 22.7812 21.1964 22.8122C21.0877 22.8433 20.9712 22.9597 20.9712 22.9597C20.9712 22.9597 21.0539 22.4859 21.2326 22.0381C21.098 22.0432 20.8676 22.082 20.8676 22.082C20.8676 22.082 21.1886 21.5435 21.738 21.1682C21.5697 21.204 21.4051 21.2551 21.2461 21.3208C20.9251 21.4554 20.573 21.6548 20.3115 21.7635C20.459 21.5587 21.4946 20.0807 22.1109 18.7033C22.7253 17.3286 22.9548 16.9765 23.0895 16.2387C23.1593 15.8736 23.1407 15.3341 23.1593 14.851C23.1774 14.3719 23.2369 13.9422 23.1982 13.6548C23.3586 13.8541 23.9594 14.416 23.98 15.6717C23.9981 16.9273 23.4054 18.6232 22.7761 19.537C22.9297 19.581 23.3277 19.6329 23.7366 18.9226C24.1456 18.2123 24.1406 18.014 24.2882 17.7187C24.3063 17.8663 24.301 17.918 24.301 17.918C24.301 17.918 24.8967 17.1958 25.1788 16.287C25.2358 16.678 25.404 17.0224 25.1399 17.7395C24.9043 18.3867 24.5963 18.5447 24.5963 18.5447C24.5963 18.5447 24.749 18.5188 24.9741 18.3841C25.013 18.4799 25.0054 18.5889 25.07 18.6275C25.1347 18.6661 25.2228 18.7311 25.2358 18.7932C25.3056 18.6896 25.4143 18.5575 25.4481 18.4592C25.4221 18.664 25.404 19.5595 25.4993 20.0152C25.6988 19.9971 25.9032 19.9841 26.043 19.6242C25.9473 19.9764 25.9473 20.1886 26.012 20.489C26.1181 20.4166 26.2139 20.2871 26.2139 20.2871L26.2145 20.2876Z" fill="#C0993A"/>
<path fill-rule="evenodd" clip-rule="evenodd" d="M19.4879 6.0169C19.4879 6.0169 19.2885 6.09967 18.9494 6.09967C18.6543 6.09967 18.7371 5.98584 18.2763 5.98584C17.567 5.98584 15.0893 6.39544 14.6542 6.38964C14.372 6.38452 15.6069 6.51132 15.6069 6.51132L18.763 6.55535L19.3972 6.50415L19.6329 6.02458L19.4879 6.0169Z" fill="#A88F33"/>
<path fill-rule="evenodd" clip-rule="evenodd" d="M11.3039 12.1865C11.3039 12.1865 10.9 12.4945 10.7291 12.7302C10.5583 12.9659 10.4677 13.1211 10.2734 13.3127C10.319 13.3144 10.3646 13.3083 10.4081 13.2946C10.4081 13.2946 10.4081 13.3458 10.377 13.3593C10.4039 13.3563 10.431 13.3593 10.4566 13.3682C10.4821 13.3771 10.5053 13.3915 10.5245 13.4105C10.4675 13.4416 10.3122 13.597 10.4339 13.7808C10.5245 13.9206 10.7161 13.9334 10.7161 13.9334C10.7161 13.9334 10.6721 14.0604 10.8559 14.0474C11.252 14.0293 11.6947 13.8558 11.8992 13.8998C12.104 13.951 12.2204 13.9698 12.3653 14.221C12.5189 14.4695 12.6527 14.5084 12.6527 14.5084C12.6527 14.5084 12.7433 14.2778 12.7227 13.9336C12.797 13.748 12.8382 13.5509 12.8444 13.3511L12.7097 12.3595L12.1221 11.6165L11.3609 12.0385L11.3039 12.186V12.1865Z" fill="#E3C571"/>
<path fill-rule="evenodd" clip-rule="evenodd" d="M12.0254 12.0388C12.0254 12.0388 12.0824 12.1735 12.3206 12.1863C12.2947 12.2433 12.2947 12.2511 12.3026 12.295C12.3077 12.339 12.3154 12.4037 12.3154 12.4037C12.3416 12.391 12.3653 12.3737 12.3853 12.3525C12.3983 12.4095 12.3724 12.4999 12.3853 12.5648C12.3933 12.6042 12.4063 12.6425 12.4241 12.6786C12.4278 12.6698 12.4322 12.6612 12.437 12.6529C12.4422 12.6399 12.4882 12.7926 12.6157 12.9089C12.6156 12.891 12.62 12.8734 12.6285 12.8577C12.6305 12.8901 12.6412 12.9215 12.6596 12.9483C12.65 12.9437 12.6413 12.9376 12.6338 12.9302C12.6338 12.9302 12.6466 13.3398 12.7166 13.5516C12.7283 13.5379 12.7387 13.5232 12.7477 13.5076C12.7477 13.4948 12.7425 13.6216 12.7296 13.7124C12.7115 13.803 12.7244 13.9298 12.7244 13.9298C12.7711 13.893 12.8224 13.8626 12.877 13.8392C12.9547 13.8079 13.0818 13.7122 13.1593 13.4999C13.2042 13.3796 13.2389 13.2558 13.2629 13.1297C13.2879 13.1779 13.3052 13.2297 13.3141 13.2833C13.3194 13.348 13.4411 13.3144 13.4411 13.3144L13.467 13.0321L13.6206 12.3926L13.7604 11.9965L14.4335 10.9481L15.6497 10.0115L16.7112 10.2548L17.6069 9.03797L16.0639 8.11108L14.6037 8.26383L13.2784 10.0994L12.217 11.7642L12.0254 12.0386V12.0388Z" fill="#D8B65B"/>
<path fill-rule="evenodd" clip-rule="evenodd" d="M19.6734 9.3826C19.6734 9.3826 19.5828 9.40069 19.3213 9.5362C19.0598 9.67171 18.8786 9.71472 18.7776 9.91406C18.6765 10.1134 18.6688 10.2714 18.6688 10.2714C18.6688 10.2714 18.8475 10.1938 18.9511 10.1678C19.0598 10.1421 19.1815 10.1497 19.1686 10.1938C19.1561 10.224 19.1388 10.2519 19.1174 10.2766C19.1174 10.2766 19.3221 10.2714 19.3167 10.3725C19.3112 10.4735 19.2779 10.5848 19.2392 10.6339C19.2003 10.6851 19.0399 10.7609 19.0218 10.8205C18.9777 10.9422 19.0399 10.9473 19.0165 11.0456C18.9984 11.1415 18.9131 11.3279 18.6333 11.654C18.3459 11.9803 18.2237 12.2107 18.2237 12.2107C18.2237 12.2107 18.084 11.9493 18.0114 11.724C17.9602 11.7497 17.6853 11.9025 17.6853 11.9025L17.0484 9.68383L17.0612 9.5362C17.0612 9.5362 17.1182 9.4664 17.1311 9.33686C17.0354 9.3058 17.0224 9.27986 16.8955 9.15834C16.7685 9.03683 16.6651 8.88903 16.4529 8.788C16.4219 8.73099 16.3829 8.65351 16.2276 8.62228C16.0723 8.59105 15.9792 8.56545 15.9792 8.56545C15.9792 8.56545 16.0619 8.53421 16.1008 8.46953C16.0049 8.4825 15.9274 8.51356 15.7177 8.50844C15.5054 8.50315 15.482 8.49547 15.3656 8.51356C15.2492 8.53165 15.1096 8.58354 15.0576 8.40485C15.0006 8.36082 14.8789 8.39973 14.7753 8.55231C14.6717 8.70488 14.6355 8.82674 14.4362 8.8863C14.4221 8.97417 14.3914 9.05853 14.3455 9.13479C14.2885 9.23071 14.1979 9.32645 14.0762 9.46879C13.8846 9.69407 13.9156 10.0642 13.6101 10.3465C13.3021 10.6286 13.6613 9.56453 13.6613 9.56453L14.1532 8.38693L15.5539 7.01733L17.7286 6.86987L17.941 7.99627L19.0025 8.36133L19.673 9.38396L19.6734 9.3826Z" fill="#D3AE4D"/>
<path fill-rule="evenodd" clip-rule="evenodd" d="M20.0181 9.63114L19.1042 8.31343L18.4647 7.82139C18.4647 7.82139 18.009 6.98274 17.978 6.9568C17.952 6.93871 17.5223 6.89211 17.2479 6.87402L17.2991 7.00083C17.359 7.02029 17.4122 7.05618 17.4527 7.10442C17.5744 7.2442 17.652 7.50822 17.375 7.7905C17.4837 7.82925 17.5286 7.8417 17.6235 7.82924C17.5278 7.94325 17.3103 8.18662 17.2974 8.39893C17.2844 8.57233 17.3931 8.62404 17.3931 8.62404C17.3931 8.62404 17.2274 8.8157 17.2197 9.13604C17.298 9.04779 17.3836 8.96637 17.4757 8.89267C17.6674 8.73907 17.9314 8.56635 18.1101 8.45764C18.1076 8.50326 18.1138 8.54894 18.1282 8.5923C18.1282 8.5923 18.462 8.31786 18.7425 8.43955C18.8693 8.49655 18.8123 8.67524 18.8123 8.67524C18.8123 8.67524 18.9859 8.61056 19.1076 8.73224C19.2293 8.85393 19.4027 9.1671 19.4907 9.28896C19.5295 9.34596 19.6305 9.45467 19.7339 9.62278C19.8752 9.85842 19.9932 10.1073 20.0862 10.3659C20.0913 10.2623 20.1121 10.1174 20.291 10.1174L20.0191 9.63063L20.0181 9.63114Z" fill="#CAA13E"/>
<path fill-rule="evenodd" clip-rule="evenodd" d="M6.31683 13.3747C6.31683 13.3747 6.25215 13.2142 6.31683 12.901C6.38152 12.5878 6.48255 12.4402 6.51618 11.9794C6.5498 11.5186 6.85017 10.9438 6.85017 10.9438L7.68116 10.5659L8.26895 10.7263L8.44235 11.5135L7.69925 11.9231C7.69925 11.9231 7.66051 12.0965 7.45076 12.2362C7.24101 12.376 6.95104 12.4847 6.88124 12.6272C6.83951 12.7145 6.80905 12.8067 6.79061 12.9017C6.79061 12.9017 6.5783 12.8576 6.45149 12.9974C6.31683 13.1399 6.32195 13.2667 6.31683 13.3754V13.3747Z" fill="#F4EFC8"/>
<path fill-rule="evenodd" clip-rule="evenodd" d="M7.99515 13.165C7.99515 13.165 7.92517 13.2091 7.87346 13.3186C7.82226 13.2359 7.6999 12.7438 7.69477 12.3011C7.68966 11.8584 7.6632 11.7487 7.7656 11.5961C7.868 11.4435 8.26958 11.2828 8.21258 11.008C8.15558 10.7465 7.91732 10.6378 7.6248 10.7129C7.42 10.7641 7.2676 11.1996 7.05529 11.4171C6.89469 11.5828 6.7032 11.5569 6.65149 11.6475C6.58152 11.7692 6.6462 11.8908 6.62555 11.9685C6.62026 11.9944 6.55557 12.1342 6.43901 12.3025C6.20349 12.6416 5.80481 13.1207 5.75293 13.5504C5.77102 13.307 5.75822 13.3019 5.8229 13.0326L5.78399 12.9679L6.03999 12.1291L6.20571 11.4379L6.57605 10.2804L7.22834 9.09739L7.86271 8.38794L8.52285 8.43197L8.6005 9.42354L8.97853 11.2852L9.77332 12.2637L8.49947 13.121L7.99464 13.165H7.99515Z" fill="#EBCC73"/>
<path fill-rule="evenodd" clip-rule="evenodd" d="M8.39085 13.5168C8.39085 13.5168 8.28213 13.5427 8.24322 13.5221C8.20431 13.5014 8.16574 13.478 8.17854 13.4521C8.19134 13.4262 8.26131 13.3823 8.26131 13.3615C8.26275 13.3427 8.2568 13.324 8.24472 13.3095C8.23265 13.295 8.21539 13.2858 8.19663 13.2838C8.13707 13.2761 8.11898 13.3149 8.11898 13.3149C8.11898 13.3149 8.06197 13.271 8.01555 13.2637C8.04302 13.2603 8.07066 13.2586 8.09833 13.2584C8.02678 13.226 7.95089 13.2042 7.87305 13.1937C7.93773 13.155 8.06471 13.041 8.14748 13.041C8.23025 13.041 8.28213 13.0282 8.26916 12.9841C8.25619 12.9401 8.19151 12.8754 8.12171 12.8495C8.14748 12.8184 8.16574 12.7718 8.10362 12.6447C8.03876 12.5179 8.06471 12.4323 8.08553 12.4015C8.10362 12.3625 8.1683 12.2927 8.19936 12.2487C8.23042 12.2047 8.25636 12.1451 8.30808 12.114C8.33402 12.096 8.41679 12.0628 8.49973 12.0313C8.59036 12.0002 8.66545 11.9613 8.71716 12.0002C8.77417 12.039 8.74823 12.0908 8.74823 12.0908C8.74823 12.0908 8.92691 12.026 9.08734 12.1089C9.24794 12.1864 9.63893 12.2357 9.63893 12.2357L9.77905 12.518L8.85216 13.3128L8.46901 13.5045L8.39136 13.5173L8.39085 13.5168Z" fill="#E5C66B"/>
<path fill-rule="evenodd" clip-rule="evenodd" d="M9.67741 12.2175C9.67741 12.2175 9.39001 12.4091 9.32533 12.4789C9.36407 12.4842 9.42875 12.5102 9.40281 12.5489C9.37175 12.5877 9.18538 12.7223 9.08179 12.8493C8.97307 12.9761 8.86948 13.1367 8.8333 13.2143C8.79456 13.2841 8.4993 13.4888 8.39844 13.5145C8.61075 13.5145 9.03793 13.2531 9.19835 13.2531C9.19323 13.3307 9.24238 13.4188 9.33301 13.4265C9.42363 13.4342 9.68509 13.4835 10.0372 13.2661C10.3893 13.0537 10.2729 12.8957 10.4203 12.7923C10.7026 12.6057 10.8164 12.44 10.9718 12.3366C11.1271 12.2332 11.2074 12.2096 11.2074 12.2096C11.2074 12.2096 11.2126 12.132 11.2586 12.1398C11.2713 12.1413 11.2832 12.1461 11.2933 12.1539C11.3033 12.1617 11.3111 12.172 11.3156 12.1839C11.3156 12.1839 11.585 11.9922 11.93 11.9405C11.922 11.9369 11.9156 11.9304 11.912 11.9224C11.912 11.9224 11.9377 11.9094 11.943 11.8965C11.943 11.8965 11.9611 11.8705 11.9741 11.8835C11.987 11.8965 12.0051 11.9922 12.0311 12.0311C12.0881 12.0052 12.1968 11.7618 12.1968 11.7618L12.4584 11.0136V10.3301L12.2536 10.369L10.7176 11.0213L9.78545 11.9871L9.67673 12.2175H9.67741Z" fill="#E6BD62"/>
<path fill-rule="evenodd" clip-rule="evenodd" d="M14.0999 8.86481C14.1829 8.84465 14.2626 8.81233 14.3362 8.7689C14.3052 8.85184 14.3052 8.94246 14.1705 9.13924C14.0359 9.33601 14.0307 9.36452 13.922 9.56897C13.8133 9.78128 13.8003 10.0868 13.6967 10.2213C13.7432 10.1987 13.793 10.1839 13.8442 10.1774C13.8442 10.1774 13.7408 10.268 13.6967 10.3638C13.6527 10.4595 13.5751 10.6588 13.3836 10.7807C13.1921 10.9025 12.9485 10.98 12.6871 11.2674C12.4255 11.5495 12.1563 11.9069 12.0215 12.0354C12.0915 11.9137 12.1872 11.6704 12.2131 11.5099C12.2391 11.3495 12.2079 11.1577 12.2519 10.9456C12.2959 10.7334 12.2959 10.5805 12.5079 10.2102C12.7199 9.83982 13.0827 8.55318 13.0827 8.55318L13.8645 8.30469L14.1002 8.86396L14.0999 8.86481Z" fill="#B6933F"/>
<path fill-rule="evenodd" clip-rule="evenodd" d="M13.5354 8.39094C13.5354 8.39094 13.2999 8.73005 13.2352 9.03043C13.1706 9.3308 13.2299 9.30486 13.1912 9.45249C13.168 9.5425 13.168 9.63691 13.1912 9.72692C13.2728 9.59551 13.3845 9.48541 13.517 9.40572C13.7397 9.27124 13.921 9.17532 14.029 9.06149C14.1377 8.9398 14.2283 8.74047 14.4639 8.58772C14.3681 8.57475 14.2335 8.53072 14.2079 8.53652C14.3038 8.4278 14.591 8.26209 14.881 8.06275C15.1684 7.85795 15.1503 7.77535 15.6164 7.57089C15.4636 7.59683 15.3911 7.55792 15.2641 7.57089C15.3153 7.46217 15.4945 7.41029 15.6737 7.23177C15.8529 7.05325 15.5599 6.78906 15.5599 6.78906L14.1945 7.61492L13.5344 8.39162L13.5354 8.39094Z" fill="#C49937"/>
<path fill-rule="evenodd" clip-rule="evenodd" d="M9.83008 7.77465L9.86114 7.52616L10.2521 6.89964L10.6612 5.79936V4.29511L10.6302 3.42522L10.6948 2.85554L10.744 2.67447L10.7959 2.60449L11.1297 2.77789L11.5907 3.4044L11.6347 4.61357L11.1867 6.52162L9.90773 7.91715L9.83008 7.77465Z" fill="#DFC068"/>
<path fill-rule="evenodd" clip-rule="evenodd" d="M10.848 2.53449C10.848 2.53449 10.6432 2.53978 10.5995 3.39159C10.5558 4.24339 10.5346 4.69122 10.5036 5.11328C10.4725 5.53534 10.4001 5.79151 10.3638 6.04018C10.3274 6.28884 10.3068 6.62779 10.1904 6.83498C10.1392 6.93072 10.0298 7.2311 9.77344 7.45638C9.48604 7.70487 9.05664 7.87844 8.99161 7.89141C8.87761 7.91718 8.30024 7.97418 8.06472 8.10372C7.98195 8.14775 7.83944 8.19946 7.68158 8.34709C7.36823 8.62921 6.95147 9.13404 6.65109 9.74247C6.19029 10.6513 5.72949 13.2169 5.72949 13.2169L5.83309 13.0435C5.83309 13.0435 5.84606 12.8131 6.07646 12.4092C6.30174 12.0054 6.23705 11.5522 6.55023 10.7781C6.67191 10.483 6.82466 10.0998 7.01103 9.77353C7.30628 9.24275 7.66349 8.78707 8.02342 8.53858C8.61103 8.13478 9.25837 8.04672 9.25837 8.04672L9.95486 7.58591C9.95486 7.58591 10.0765 7.35039 10.2371 7.08108C10.4622 6.70322 10.7491 6.28116 10.8118 5.66761C10.9077 4.7588 10.6771 4.16334 10.6901 3.62489C10.7031 3.08643 10.7082 2.69031 10.8171 2.5944C10.926 2.49848 10.8481 2.53483 10.8481 2.53483L10.848 2.53449Z" fill="#A88F33"/>
<path fill-rule="evenodd" clip-rule="evenodd" d="M10.848 6.59935C10.848 6.59935 11.1552 5.8433 11.2958 5.17275C11.3218 5.0381 11.3735 4.90361 11.3865 4.7949C11.4511 4.16053 11.4692 3.89907 11.3865 3.5521C11.3218 3.2961 11.0733 3.06536 10.9437 2.8865C10.8169 2.69996 10.7574 2.6305 10.7833 2.59125C10.8093 2.552 10.9101 2.48782 11.0084 2.4955C11.1129 2.49855 11.2157 2.52281 11.3105 2.56682C11.4054 2.61083 11.4903 2.67366 11.56 2.7515C11.7594 2.9819 11.9172 3.7639 11.9172 3.7639L12.0833 4.79575L12.5054 6.09538L10.8483 6.60038L10.848 6.59935Z" fill="#C99E3D"/>
<path fill-rule="evenodd" clip-rule="evenodd" d="M13.7345 5.81248C13.7345 5.81248 13.6775 5.83825 13.5741 5.81248C13.5785 5.85474 13.5712 5.8974 13.5529 5.93577C13.5346 5.97413 13.5061 6.0067 13.4705 6.0299C13.3618 5.98587 12.3441 6.07394 12.3441 6.07394C12.3441 6.07394 11.8703 5.99099 11.7227 5.36448C11.6193 4.94754 11.8004 4.3729 11.7408 3.99488C11.6502 3.43816 11.5234 3.32928 11.5104 3.15605C11.4974 2.98282 11.4845 2.93862 11.4845 2.8299C11.4275 2.81693 11.3938 2.79884 11.337 2.79884C11.324 2.74764 11.3498 2.70293 11.293 2.6123C11.324 2.62528 11.5363 2.65122 11.7848 2.88674C11.9896 3.0784 11.9896 3.1482 12.0205 3.18711C12.0593 3.22585 12.3726 3.49431 12.5073 3.76192C12.6419 4.02952 12.9034 4.88285 12.9629 5.02263C12.981 5.07963 13.0199 5.13664 13.1165 5.266C13.2667 5.45254 13.4867 5.76093 13.7352 5.81213L13.7345 5.81248Z" fill="#B58634"/>
<path fill-rule="evenodd" clip-rule="evenodd" d="M12.0566 3.19995C12.2135 3.45331 12.3544 3.71619 12.4785 3.98707C12.6313 4.3313 12.7219 4.61358 12.9136 4.84398C12.81 4.54378 12.6262 3.95344 12.5174 3.7437C12.3958 3.52183 12.1473 3.2829 12.0566 3.20012V3.19995Z" fill="#A88F33"/>
<path fill-rule="evenodd" clip-rule="evenodd" d="M10.2969 7.45647C10.2969 7.45647 10.0354 7.52115 9.54869 7.77749C9.38809 7.86027 9.23552 7.93007 9.08789 7.99492C8.70441 8.16832 8.2931 8.32858 7.96679 8.41698C7.99273 8.44804 8.00553 8.46084 8.00553 8.46084C8.00553 8.46084 8.00553 8.58782 8.07551 8.66018C8.03676 8.69909 7.51879 9.05118 7.67171 10.2291C7.77513 10.1904 7.89682 10.1385 7.91491 10.1385C7.94614 10.1438 7.95382 10.2291 7.99256 10.2291C8.0313 10.2291 8.15828 10.1779 8.29293 10.0038C8.28781 10.0738 8.21016 10.778 8.62693 11.2518C8.70458 11.1611 8.90136 10.8608 8.90136 10.8608L8.90648 10.765C8.90648 10.765 8.92457 10.431 9.03345 10.1255C9.14234 9.82003 9.35447 9.59475 9.35447 9.59475L10.4623 8.01284L10.2965 7.4563L10.2969 7.45647Z" fill="#E6C367"/>
<path fill-rule="evenodd" clip-rule="evenodd" d="M9.26066 9.77924C9.20994 9.81508 9.15406 9.84299 9.09494 9.86201C9.07685 9.79733 9.05091 9.57461 9.20366 9.35718C9.38235 9.09555 9.77317 8.75643 9.88189 8.48678C9.95186 8.31321 9.9208 7.87835 10.5422 7.32164C11.1636 6.76492 11.4068 6.57344 11.4068 6.57344L12.4113 6.0686L13.6463 6.55535L13.0327 8.96004L12.5564 10.0864L10.662 9.72923L9.26049 9.77924H9.26066Z" fill="#DCBA5A"/>
<path fill-rule="evenodd" clip-rule="evenodd" d="M9.98438 9.12616L10.2201 8.83108V8.62133C10.2201 8.62133 10.4815 8.55135 10.7636 8.26395C11.0458 7.97655 11.4368 7.42512 11.7812 7.45875C12.1256 7.49766 12.1592 8.20695 12.1722 8.40646C12.1851 8.60597 12.2292 9.05874 12.299 9.30229C12.3766 9.54566 11.4601 10.4673 11.4601 10.4673L10.8377 10.941L9.98438 9.12616Z" fill="#E9CE77"/>
<path fill-rule="evenodd" clip-rule="evenodd" d="M10.7129 11.5832C10.7129 11.5832 10.9045 11.2828 10.7641 11.2182C10.8469 11.0318 10.9996 10.835 10.9996 10.835C10.9996 10.835 11.1083 10.5659 11.4604 10.2344C11.8125 9.903 12.0301 9.68284 12.0871 9.46029C12.1222 9.31525 12.1413 9.16679 12.1441 9.01758C12.1821 9.04867 12.2228 9.07637 12.2657 9.10035C12.3227 9.12629 12.5919 9.34884 12.5531 9.79684C12.5144 10.2448 12.3483 10.4312 12.3483 10.4312C12.3483 10.4312 12.1879 10.5916 12.0741 10.6746C11.9522 10.7574 11.9084 10.8531 11.7038 10.8609C11.7248 10.8442 11.7484 10.8311 11.7737 10.822C11.7737 10.822 11.5614 10.7963 11.4474 10.8997C11.3334 11.0031 11.0911 11.3217 10.9694 11.4177C10.8477 11.4953 10.7134 11.5834 10.7134 11.5834L10.7129 11.5832Z" fill="#CDAE50"/>
<path fill-rule="evenodd" clip-rule="evenodd" d="M19.3212 6.54752C19.0154 6.43604 18.6939 6.37316 18.3686 6.36115C17.8248 6.34306 17.03 6.37412 16.2508 6.37924C15.4119 6.38436 14.6508 6.09184 13.5945 6.04013C13.4211 5.93653 12.9801 5.48341 11.6035 6.44392C11.6863 6.4388 12.6029 6.23161 12.9212 6.63046C13.2423 7.02658 13.1516 7.69969 13.1078 7.86012C13.0248 8.21749 12.7555 8.73785 12.647 9.10291C12.5384 9.46797 12.564 9.6598 12.4864 9.9158C12.4087 10.1718 12.2379 10.2989 12.3387 10.594C12.4734 10.5113 12.5435 10.5113 12.7685 10.0064C12.9934 9.50159 12.9472 9.14165 13.3201 8.71447C13.6851 8.28473 14.2929 7.69696 14.524 7.54933C14.755 7.4017 16.5899 6.44904 18.5111 7.35784C18.9744 7.30869 19.3214 6.54735 19.3214 6.54735L19.3212 6.54752Z" fill="#D2A83E"/>
<path fill-rule="evenodd" clip-rule="evenodd" d="M12.3783 6.19523C12.3764 6.17578 12.3721 6.15663 12.3655 6.13823C12.3476 6.10037 12.324 6.06544 12.2955 6.03463C12.2955 6.03463 11.8399 5.95186 11.6094 5.97763C11.2055 6.02166 10.8404 6.52138 10.6696 6.77772C10.4987 7.03407 10.2864 7.43002 10.056 7.63465C10.0585 7.61472 10.0539 7.59453 10.043 7.57765C10.043 7.57765 10.056 7.59574 10.0302 7.62168C10.0045 7.64762 10.0043 7.66042 10.0173 7.67288L10.0562 7.71162C10.069 7.71162 10.4264 7.55102 10.9131 7.09722C11.4309 6.62344 11.8271 6.38041 12.0342 6.29712C12.1447 6.25017 12.2602 6.21598 12.3785 6.19523H12.3783Z" fill="#C29637"/>
<path fill-rule="evenodd" clip-rule="evenodd" d="M21.2167 4.24854C21.2167 4.24854 21.1338 4.35196 21.0302 4.46596C20.7998 4.70933 20.4994 4.9836 20.2431 5.26588C19.9999 5.53519 19.7254 5.74494 19.4172 6.09703C19.109 6.44911 18.7516 6.83994 18.6612 6.95394C18.5784 7.06795 18.5137 7.25432 18.5137 7.35006C18.4697 7.319 18.418 7.28538 18.418 7.28538C18.4397 7.32602 18.4658 7.36424 18.4956 7.39938C18.5603 7.49001 18.6612 7.60418 18.7131 7.67382C18.7767 7.76246 18.8224 7.8627 18.8475 7.9689C18.8786 7.97402 19.0779 8.01293 19.3266 7.60384C19.5753 7.19475 19.9012 6.74692 19.9012 6.74692L20.419 5.9779L20.7454 5.32561L21.155 4.5955L21.2172 4.24854H21.2167Z" fill="#AC8132"/>
<path fill-rule="evenodd" clip-rule="evenodd" d="M21.748 3.72559C21.748 3.72559 21.4346 3.98159 21.3129 4.13519C21.1912 4.28879 20.9033 4.6919 20.9033 4.6919L21.0069 4.67893L21.5326 4.21301L21.7374 3.84795L21.7478 3.72627L21.748 3.72559Z" fill="#A88F33"/>
<path fill-rule="evenodd" clip-rule="evenodd" d="M21.6518 24.3004C21.6518 24.3004 21.6466 24.0881 21.7658 23.9613C21.8874 23.8343 22.1955 23.648 22.4959 22.9489C22.7962 22.2499 22.8297 22.092 22.8297 22.092C22.8297 22.092 22.2912 22.5528 21.9593 22.6615C22.037 22.5009 22.081 22.3871 22.1199 22.3041C22.0759 22.2654 21.8895 22.2214 21.8714 22.2007C21.9748 22.0971 22.0318 21.8433 22.2416 21.6751C22.5109 21.4703 23.0028 21.1184 23.385 20.8047C23.7673 20.491 24.519 19.7614 24.6149 19.5491C24.6719 19.6318 24.6847 19.6836 24.6847 19.6836C24.6847 19.6836 24.3068 20.1756 24.11 20.4888C23.9365 20.7581 23.9494 20.9108 23.9494 20.9108L24.3068 20.7572C24.3068 20.7572 24.4102 21.1404 23.9418 21.723C24.1466 21.6454 24.2292 21.692 24.3456 21.6271C24.1539 21.749 23.8899 21.9147 23.6414 22.3702C23.398 22.8259 23.0666 23.3566 22.5075 23.6879C21.9637 24.0374 21.6504 24.2989 21.6504 24.2989L21.6518 24.3004Z" fill="#A67A2E"/>
<path fill-rule="evenodd" clip-rule="evenodd" d="M20.2489 6.81688C20.2489 6.81688 20.0366 7.25942 20.0055 7.60382C20.0004 7.68677 19.9796 7.75145 19.9796 7.84719C19.9744 8.15525 19.9977 8.49965 19.9284 8.66008C19.9024 8.5954 19.8895 8.55136 19.8635 8.52559C19.8248 8.63431 19.7548 8.97342 19.6978 9.10023C19.672 9.01745 19.615 8.73005 19.6203 8.39094C19.6256 8.05182 19.6331 7.98697 19.6331 7.91717C19.6203 8.02059 19.5504 8.16054 19.5244 8.24331C19.4857 8.17351 19.4416 8.08288 19.3898 8.00779C19.3587 8.05899 19.32 8.1346 19.2863 8.17351C19.281 8.14245 19.2682 8.0595 19.2604 7.94311C19.2553 7.80845 19.2474 7.63505 19.2553 7.5987C19.2681 7.5289 19.377 7.25447 19.6074 7.00325C19.8818 6.70287 20.164 6.12568 20.2468 5.94699C20.3296 5.7683 20.6817 5.02539 20.6817 5.02539H20.951L20.56 5.91593C20.56 5.91593 20.3245 6.40267 20.2028 6.58153C20.0811 6.76039 19.8248 7.2729 19.7108 7.47224C19.7935 7.36352 19.8635 7.30652 19.9465 7.20293C20.0267 7.13039 20.2492 6.81722 20.2492 6.81722L20.2489 6.81688Z" fill="#8C6228"/>
<path fill-rule="evenodd" clip-rule="evenodd" d="M21.7531 3.69189C21.7091 3.82729 21.6396 3.953 21.5483 4.06224C21.3877 4.2539 21.0433 4.51007 20.8752 4.71453C20.7216 4.91387 20.4144 5.45761 20.554 6.10222C20.6052 5.96244 20.7016 5.68545 20.958 5.37211C21.2143 5.05876 21.4887 4.699 21.6235 4.41945C21.758 4.13716 21.7761 3.91461 21.7761 3.91461L21.8273 3.84993L21.7963 3.7023L21.7522 3.69189H21.7531Z" fill="#CBA94C"/>
<path fill-rule="evenodd" clip-rule="evenodd" d="M26.996 20.8646C26.996 20.8646 26.8924 20.5824 26.8613 20.3261C26.8303 20.0698 26.9126 20.0189 26.8173 19.7255C26.7603 19.5469 26.6569 19.5719 26.6309 19.5469C26.605 19.5218 26.5869 19.2518 26.592 19.1041C26.5972 18.9565 26.5869 18.765 26.561 18.6821C26.5222 18.651 26.4963 18.6251 26.4393 18.4336C26.3746 18.2419 26.3435 18.1462 26.3125 18.0894C26.2814 18.0325 26.1906 17.9807 26.1906 17.9237C26.1906 17.8096 26.2942 17.7503 26.2942 17.7189C26.2891 17.6542 26.2114 17.7061 26.1906 17.6878C26.1649 17.6567 26.2555 17.4704 26.2219 17.4444C26.2089 17.4316 26.1183 17.5403 26.0949 17.5093C26.0689 17.478 26.0379 17.17 25.9913 16.9655C25.9474 16.7662 25.9007 16.6213 25.8955 16.5617C25.8904 16.5047 25.5382 15.5002 25.4528 15.2568C25.3841 15.0512 25.3262 14.8421 25.2794 14.6303C25.2535 14.5086 25.2354 14.26 25.2224 14.2859C25.2095 14.3119 25.2173 14.4387 25.1965 14.4335C25.1784 14.4282 25.1137 13.9857 25.0931 13.9157C25.075 13.8458 24.9661 13.6085 24.9395 13.4369C24.9135 13.2633 24.8567 12.8102 24.8178 12.5021C24.7789 12.1941 24.7608 12.0673 24.7608 11.9901C24.7671 11.8014 24.7567 11.6126 24.7297 11.4257C24.6785 11.0994 24.5761 10.7033 24.4863 10.4731C24.3129 10.038 23.852 8.9248 23.7695 8.64781C23.7695 8.57783 23.8602 8.61675 23.8602 8.61675C23.8602 8.61675 24.0853 9.18114 24.251 9.61599C24.4116 10.051 24.5643 10.4342 24.6032 10.4731C24.6343 10.5118 24.8777 10.939 24.9864 11.638C25.0951 12.3371 25.1338 12.9817 25.1987 13.4114C25.2298 13.6162 25.2557 13.8335 25.3204 14.0509C25.3902 14.2866 25.4989 14.53 25.6414 14.9027C25.7631 15.216 25.8537 15.4775 25.9029 15.7028C25.9599 15.9902 25.9599 16.2076 25.9935 16.3501C26.0247 16.4718 26.0712 16.715 26.18 17.0669C26.2889 17.4188 26.4492 17.8721 26.5579 18.1542C26.7704 18.7186 26.8651 19.1898 26.8972 19.441C26.9255 19.6999 27.0214 20.5958 26.9955 20.8649L26.996 20.8646Z" fill="#A88F33"/>
<path fill-rule="evenodd" clip-rule="evenodd" d="M21.7658 3.66085L21.7528 3.69192C21.7528 3.69192 21.7915 3.70489 21.7839 3.75677C21.7844 3.82775 21.7801 3.89869 21.7709 3.96908C21.7581 4.0597 21.7322 4.12951 21.727 4.18651C21.727 4.3082 21.7451 4.44797 21.5734 4.79494C21.5222 4.89069 21.4907 4.97346 21.4647 5.03046C21.4 5.17024 21.3871 5.19106 21.3301 5.25574C21.4207 5.20454 21.747 4.99974 21.9125 5.03046C21.7987 5.09515 21.6251 5.22212 21.5164 5.38784C21.5424 5.39296 21.6511 5.41378 21.8236 5.38784C22.111 5.34381 22.432 5.24021 22.7141 5.26086C23.0223 5.27895 22.9007 4.89069 22.9007 4.89069L22.545 4.10886L21.8719 3.63525L21.7658 3.66102V3.66085Z" fill="#BE9C44"/>
<path fill-rule="evenodd" clip-rule="evenodd" d="M23.5213 9.5173C23.5213 9.5173 23.2209 9.21692 23.0992 8.18608C22.9776 7.15047 23.0035 5.62606 23.0035 5.62606L22.7601 5.0306C22.7601 5.0306 22.7089 4.63447 22.5814 4.48702C22.454 4.33956 22.2036 4.0909 22.0896 3.96921C21.9756 3.84752 21.8462 3.6818 21.7686 3.65586C21.8073 3.59118 21.9809 3.22612 22.6461 3.221C23.3114 3.21588 23.5165 3.58606 23.586 3.72072C23.6554 3.85537 23.9691 4.43752 24.0855 5.54687C24.1942 6.65485 24.1995 6.73779 24.1814 7.12094C24.1685 7.33325 24.0985 7.82512 23.9766 8.35061C23.8654 8.79605 23.7437 9.29321 23.521 9.51832L23.5213 9.5173Z" fill="#A17C34"/>
<path fill-rule="evenodd" clip-rule="evenodd" d="M22.5792 10.4C22.6793 10.4072 22.7793 10.3846 22.8667 10.3351C22.9624 10.33 23.3094 10.374 23.576 10.0349C23.5941 10.1124 23.6408 10.3223 23.519 10.5087C23.5838 10.4438 23.6796 10.4181 23.6926 10.4C23.6977 10.4957 23.7883 10.7908 23.4051 11.5079C23.5086 11.3941 23.6303 11.3992 23.739 11.3862C23.7443 11.5209 23.8166 11.9738 23.6251 12.2174C23.4983 12.3831 23.2911 12.3312 23.2911 12.3312C23.2942 12.295 23.2942 12.2587 23.2911 12.2225C23.286 12.1525 23.2601 12.0827 23.2783 12.0361C23.1782 11.9904 23.087 11.9272 23.009 11.8496C22.7837 11.6373 22.4912 11.275 22.4705 11.0057C22.4446 10.7053 22.7139 10.6406 22.7139 10.6406C22.6913 10.6204 22.6721 10.5968 22.6569 10.5706C22.6439 10.5268 22.6309 10.4568 22.5792 10.4Z" fill="#8C6228"/>
<path fill-rule="evenodd" clip-rule="evenodd" d="M20.5828 7.1431C20.5828 7.1431 20.5698 7.12501 20.5 7.20778C20.513 7.12501 20.5259 7.04718 20.5311 6.97209C20.5641 6.90257 20.6069 6.83809 20.658 6.7806C20.6191 6.85808 20.5932 6.92806 20.5932 6.92806C20.5932 6.92806 20.6891 6.74937 20.8289 6.64066C20.9246 6.563 21.0463 6.52682 21.098 6.45429C21.155 6.37663 21.142 6.36366 21.155 6.35069C21.155 6.35069 21.282 6.26792 21.4762 6.02438C21.502 5.99332 21.5409 5.9597 21.5668 5.92863C21.6107 5.91054 21.7143 5.86395 21.8359 5.80166C21.9629 5.73186 22.1052 5.63611 22.1933 5.59686C22.3667 5.51921 22.5507 5.52706 22.636 5.4052C22.7007 5.38711 22.7705 5.19289 22.7577 5.02734C22.8534 5.06609 23.3453 5.37158 23.5137 6.03957C23.6354 6.51334 23.4178 7.24345 23.3272 7.59571C23.2366 7.94796 23.2238 8.20925 23.0968 8.36968C22.9362 8.58216 22.4186 8.88168 22.2916 9.02999C22.1829 9.15167 21.8568 9.45973 21.8696 9.68228C21.8825 9.84799 22.087 9.93828 22.1312 9.96968C22.1754 10.0011 22.175 10.0397 22.258 10.0209C22.3409 10.0021 22.3718 9.96388 22.4056 9.96388C22.4444 9.969 22.4444 9.97685 22.4624 9.97685C22.4756 9.97646 22.4886 9.97468 22.5014 9.97156C22.5014 9.97156 22.4884 10.2072 21.937 10.2788C21.8981 10.284 21.8593 10.2968 21.81 10.3047C21.8749 10.2736 21.9136 10.2736 21.9836 10.1779C21.9059 10.1649 21.6832 10.152 21.6262 10.1339C21.6443 10.1028 21.7038 10.0199 21.753 9.98112C21.797 9.94237 21.7479 9.92991 21.7091 9.95005C21.6424 9.99543 21.5784 10.0447 21.5175 10.0975C21.4528 10.1545 21.3958 10.2322 21.2922 10.3023C21.2612 10.1987 21.2663 10.0019 21.3881 9.8596C21.3569 9.86472 21.2973 9.95534 21.2405 9.93725C21.2302 9.84282 21.2363 9.74732 21.2586 9.65497C21.2897 9.5384 21.4579 9.33395 21.4579 9.33395L22.2708 7.8814L22.4442 6.78111L20.5828 7.14276V7.1431Z" fill="#92723A"/>
<path fill-rule="evenodd" clip-rule="evenodd" d="M20.5381 7.20513C20.5381 7.20513 20.4941 7.23619 20.5822 7.29575C20.5692 7.31384 20.5381 7.37853 20.4992 7.42256C20.4554 7.47376 20.4086 7.5055 20.3905 7.54953C20.3518 7.64016 20.3207 7.70228 20.3207 7.74119C20.3207 7.7801 20.3077 8.02859 20.199 8.18902C20.1601 8.24602 20.1161 8.34177 20.085 8.40645C20.0203 8.52029 19.9633 8.61125 19.9503 8.66245C19.9246 8.75308 19.9065 9.00157 19.9065 9.00157C19.9065 9.00157 19.9635 8.93159 19.9841 8.90582C19.9529 8.9705 19.9193 9.04031 19.8701 9.09219C19.9012 9.06625 19.9918 9.00157 20.1446 8.86691C20.3569 8.68839 20.6883 8.38802 21.0923 8.15011C20.9705 8.19414 20.867 8.19414 20.7843 8.20711C20.8489 8.14243 21.4315 7.45891 21.737 7.39423C21.7555 7.37071 21.7648 7.34118 21.7629 7.31128L21.5013 7.28551L20.9705 7.39935L20.893 6.98975L20.5381 7.20462V7.20513Z" fill="#B18E3E"/>
<path fill-rule="evenodd" clip-rule="evenodd" d="M21.3828 9.53531C21.3828 9.53531 21.3128 9.60511 21.2481 9.77868C21.1983 9.72668 21.1556 9.66832 21.1211 9.60511C21.0254 9.44469 20.8779 9.24006 20.5335 9.35662C20.5284 9.24791 20.5205 9.19091 20.5335 9.11325C20.5905 9.10045 20.7639 8.96068 20.9373 8.75605C21.0592 8.61627 21.173 8.45567 21.2507 8.25122C21.3019 8.2123 21.3904 8.14762 21.5067 8.07253C21.6724 7.95869 21.8717 7.80322 21.9028 7.62982C21.8251 7.66088 21.6594 7.73853 21.4107 7.72573C21.5067 7.6817 21.6541 7.63511 21.636 7.44345C21.6749 7.41751 21.706 7.39942 21.706 7.39942C21.6768 7.38969 21.6461 7.38529 21.6154 7.38645C21.6101 7.36836 21.6024 7.34259 21.5584 7.35539C21.5143 7.36819 21.5072 7.36836 21.5014 7.38645C21.4833 7.39174 21.4237 7.38645 21.3797 7.41768C21.3357 7.44891 21.214 7.55217 21.1674 7.57026C21.1855 7.53919 21.2112 7.49277 21.2112 7.49277C21.2112 7.49277 21.0844 7.50557 20.9938 7.54397C20.8281 7.60098 20.6366 7.70457 20.4424 7.80543C20.4605 7.77437 20.4683 7.75424 20.4811 7.74843C20.4939 7.74263 20.5252 7.73563 20.5252 7.73034C20.5252 7.72505 20.5124 7.67914 20.52 7.66054C20.5781 7.53753 20.6466 7.41974 20.7248 7.30845C20.8155 7.1866 20.8335 7.0132 20.8335 7.0132L21.2297 6.81386L22.3429 6.55786L23.0654 6.60189L22.9747 7.10161L22.5481 7.97405L22.183 8.76885L21.7661 9.25576L21.3829 9.53531H21.3828Z" fill="#543E26"/>
<path fill-rule="evenodd" clip-rule="evenodd" d="M23.1873 7.37287C23.1873 7.37287 22.7523 7.91132 22.6306 7.99427C22.7083 7.82855 23.1873 6.8421 23.3607 6.56766C23.322 6.5366 23.2701 6.5366 23.3918 6.05566C23.2884 6.29886 23.252 6.42584 23.1667 6.49052C23.0814 6.55521 23.0708 6.53455 23.0131 6.53455C23.024 6.51485 23.0285 6.49224 23.0259 6.46987C23.0259 6.46987 22.6609 6.42584 22.4115 6.42584C22.1622 6.42584 21.6686 6.5605 21.394 6.66921C21.1766 6.75983 21.0549 6.75983 20.9773 6.81667C20.8996 6.88135 20.8556 6.95132 20.8167 6.96941C20.7856 6.9875 20.6382 7.0341 20.6044 7.08325C20.5733 7.13445 20.5216 7.19196 20.5216 7.20493C20.5216 7.2179 20.5086 7.23617 20.5475 7.22302C20.5603 7.2179 20.6563 7.16602 20.765 7.10134C20.9124 7.01857 21.0911 6.92282 21.2206 6.86582C21.5908 6.71819 21.7074 6.74413 21.8729 6.71307C22.0463 6.68201 22.295 6.60948 22.4605 6.60948C22.6262 6.60436 22.9395 6.60948 23.0121 6.62245C22.981 6.64839 22.9551 6.67945 22.968 6.78817C22.968 6.81923 22.9421 6.85285 22.9168 6.92794C22.8394 7.14025 22.6917 7.49234 22.6097 7.67102C22.4958 7.91422 22.3665 8.11885 22.3025 8.24566C22.2385 8.37246 22.0977 8.70646 21.9582 8.88515C21.8188 9.06384 21.7459 9.17255 21.7022 9.21146C21.6586 9.25037 21.3449 9.4806 21.3683 9.56355C21.4253 9.54546 21.7852 9.40995 22.0465 9.11572C22.3078 8.82149 22.3598 8.64195 22.5643 8.48135C22.7687 8.32075 22.9293 8.05161 23.025 7.82906C23.1053 7.62187 23.0872 7.55719 23.188 7.37338L23.1873 7.37287Z" fill="#806031"/>
<path fill-rule="evenodd" clip-rule="evenodd" d="M13.8121 11.3917C13.8121 11.3917 13.7551 11.6273 13.6256 11.7438C13.4988 11.8578 13.2735 11.9561 13.2477 12.1478C13.2167 12.3393 13.473 12.4352 13.473 12.4352C13.473 12.4352 13.3331 12.6656 13.3331 12.839C13.3331 13.0177 13.3279 13.0513 13.346 13.2221C13.3255 13.2353 13.308 13.2528 13.2948 13.2733C13.2948 13.2733 13.3076 13.4391 13.4346 13.5425C13.5616 13.6459 13.6701 13.7082 13.7348 13.6823C13.7447 13.7034 13.7534 13.725 13.7608 13.7471C13.7608 13.7471 13.8567 13.5037 13.9214 13.2914C13.9861 13.074 14.0431 13.1049 14.0688 12.8124C14.0946 12.5198 14.376 12.0176 14.376 12.0176L14.568 11.5883L14.2549 11.345L13.8121 11.3916V11.3917Z" fill="#B6903C"/>
<path fill-rule="evenodd" clip-rule="evenodd" d="M14.3946 11.8135C14.33 11.8798 14.2704 11.9507 14.2162 12.0258C14.1334 12.1398 14.0688 12.2432 13.9471 12.2874C13.8254 12.3316 13.7477 12.3313 13.7554 12.4531C13.7631 12.575 13.8771 12.6265 13.9418 12.6887C14.0118 12.7533 14.0688 12.8621 14.0377 12.9839C14.0764 12.9658 14.1464 12.945 14.2111 12.8052C14.2758 12.6654 14.7282 11.8136 14.7282 11.8136H14.3946V11.8135Z" fill="#685026"/>
<path fill-rule="evenodd" clip-rule="evenodd" d="M16.1796 9.84851C16.1796 9.84851 16.2184 9.74509 16.1796 9.66999C16.1407 9.59234 15.9052 9.5664 15.7886 9.47834C15.667 9.38771 15.5193 9.32474 15.3976 9.3645C15.4157 9.32047 15.4883 9.22456 15.4287 9.20391C15.3717 9.18582 15.1596 9.28156 15.1026 9.32559C15.0456 9.36962 14.916 9.42134 14.8903 9.45257C14.8645 9.4838 14.8203 9.54319 14.7943 9.51725C14.7684 9.49916 14.7556 9.45257 14.7116 9.47834C14.6675 9.50411 14.4556 9.67767 14.4165 9.77871C14.3774 9.87974 14.2895 10.105 14.0255 10.3612C13.7615 10.6174 13.6475 10.7832 13.7251 10.879C13.8028 10.9747 13.8391 10.9049 13.8521 10.9877C13.8621 11.069 13.8577 11.1513 13.8391 11.2311C13.8081 11.3657 13.7564 11.4925 13.8262 11.5185C14.0048 11.5755 14.1784 11.4673 14.2172 11.5004C14.2948 11.5702 14.1731 11.8214 14.3569 11.8706C14.5435 11.9218 14.7273 11.8265 14.7273 11.8265L15.4055 11.4615L16.058 11.1172L16.3918 10.4569L16.2127 9.90551L16.1786 9.84851H16.1796Z" fill="#D4B968"/>
<path fill-rule="evenodd" clip-rule="evenodd" d="M15.5389 11.4253C15.5389 11.4253 15.4249 11.2519 15.5648 11.099C15.7048 10.946 15.904 10.8815 15.9816 10.7858C15.9668 10.7676 15.947 10.7541 15.9246 10.7471C15.9761 10.6548 16.0548 10.5806 16.1499 10.5346C16.1111 10.4958 16.0593 10.4648 16.0024 10.4648C15.8755 10.4648 15.7976 10.5424 15.6812 10.5424C15.5674 10.5424 15.5544 10.4854 15.5544 10.4854C15.5544 10.4854 15.7461 10.4673 15.7278 10.3818C15.7097 10.2912 15.6766 10.2912 15.6766 10.2912C15.6766 10.2912 16.0468 10.1376 16.1115 10.0557C16.1762 9.97377 16.1685 9.877 16.1815 9.83826C16.2253 9.83826 16.4817 9.7036 16.5853 9.76061C16.6889 9.81761 16.6163 9.97291 16.6163 9.97291C16.6163 9.97291 16.9298 9.73722 17.0896 9.50614C17.2294 9.51911 17.2944 9.4104 17.3968 9.4104C17.5238 9.4104 17.7231 9.5838 17.7618 9.95397C17.7878 10.1663 17.8265 10.288 17.7878 10.6634C17.7697 10.8757 17.7748 11.329 17.839 11.554C17.8828 11.7326 17.9864 11.7146 17.9864 11.7146C17.9705 11.769 17.939 11.8176 17.8958 11.8543C17.8258 11.919 17.8182 12.09 17.8258 12.1547C17.8362 12.202 17.8492 12.2487 17.8648 12.2945C17.8648 12.2945 17.782 12.3902 17.7612 12.4551C17.7431 12.5198 17.6577 12.5638 17.5954 12.5638C17.5331 12.5638 17.5644 12.5585 17.4816 12.5638C17.3988 12.5691 17.3729 12.5819 17.321 12.5638C17.2691 12.5457 17.2304 12.5249 17.2512 12.359C17.2693 12.1933 16.6117 11.8076 16.6117 11.8076L15.5365 11.4244L15.5389 11.4253Z" fill="#CCA849"/>
<path fill-rule="evenodd" clip-rule="evenodd" d="M14.3046 13.0614C14.3046 13.0614 14.5401 13.3748 15.5085 13.3748C15.9693 13.3748 16.1299 13.3307 16.2253 13.3048C16.3289 13.2788 16.7172 13.1263 17.1082 12.6653C17.4603 12.2485 17.3826 12.0777 17.3826 12.0777L17.1778 12.0466L16.5122 12.1373L14.5427 12.9761L14.3037 13.0614H14.3046Z" fill="#585136"/>
<path fill-rule="evenodd" clip-rule="evenodd" d="M15.0263 13.1391C15.0263 13.1391 14.1875 13.3257 14.1875 12.7949C14.1875 12.2771 14.7053 11.7334 14.8348 11.6377C14.9695 11.5417 15.2905 11.4329 15.2905 11.4329H16.0647L16.2121 11.8238L16.1474 12.6678L15.0263 13.139V13.1391Z" fill="#252211"/>
<path fill-rule="evenodd" clip-rule="evenodd" d="M15.8004 11.591C15.8004 11.591 15.64 11.4434 15.2749 11.6423C14.9098 11.8411 14.6146 12.2567 14.5965 12.634C14.5784 12.9678 14.8709 13.2165 15.3266 13.2295C15.6657 13.2423 15.8704 13.2035 15.974 13.1783C15.948 13.1472 15.8134 12.9789 15.8134 12.9789L15.8006 11.5912L15.8004 11.591Z" fill="#C3B378"/>
<path fill-rule="evenodd" clip-rule="evenodd" d="M15.6425 11.6735C15.6425 11.6735 15.6038 11.6425 15.4889 11.7046C15.3932 11.7558 15.2534 11.8911 15.1447 11.9869C15.0747 12.0439 15.0307 12.0696 14.9911 12.1137C14.8305 12.3053 14.6958 12.6187 14.7737 12.774C14.8515 12.9293 15.1077 13.1079 15.7601 12.9863L15.6406 11.6737L15.6425 11.6735Z" fill="#E6D89C"/>
<path fill-rule="evenodd" clip-rule="evenodd" d="M15.4304 11.9949C15.4304 11.9949 15.3268 12.1555 15.3268 12.4119C15.3268 12.6733 15.4745 13.0901 16.0182 13.1212C16.4349 13.1471 16.7145 12.5206 17.0174 12.2772C17.2478 12.0908 17.3876 12.0855 17.3876 12.0855C17.3876 12.0855 17.1521 11.8295 16.523 11.4979C15.9016 11.1639 15.2052 11.1199 14.8271 11.6326C15.0058 11.6196 15.5832 11.472 15.5832 11.472L15.8655 11.5626L15.4304 11.9951V11.9949Z" fill="#252211"/>
<path fill-rule="evenodd" clip-rule="evenodd" d="M16.2437 12.334C16.2256 12.2953 16.2127 12.2434 16.2878 12.2306C16.3628 12.2178 16.3964 12.2253 16.4224 12.2818C16.4483 12.3383 16.4736 12.3854 16.4352 12.4088C16.3964 12.4294 16.2954 12.4088 16.2436 12.3337L16.2437 12.334ZM16.1221 11.969C16.1221 11.969 16.0961 11.9871 16.1091 11.9509C16.1142 11.907 16.148 11.8292 16.2308 11.8475C16.3135 11.8657 16.2956 11.9562 16.282 11.9821C16.2683 12.008 16.1992 12.0519 16.1473 12.0333C16.1407 12.0316 16.1347 12.0284 16.1296 12.0239C16.1245 12.0195 16.1205 12.0138 16.1179 12.0075C16.1154 12.0012 16.1144 11.9944 16.115 11.9877C16.1156 11.9809 16.1178 11.9744 16.1214 11.9686L16.1221 11.969Z" fill="#6F674D"/>
<path fill-rule="evenodd" clip-rule="evenodd" d="M9.11328 12.1344C9.11328 12.1344 9.31808 12.288 9.55599 12.282C9.79151 12.2767 10.0944 12.0335 10.2342 11.878C10.317 11.7874 10.3878 11.6917 10.4646 11.6166C10.5295 11.5519 10.5733 11.5208 10.6044 11.4768C10.6484 11.4256 10.695 11.3293 10.7184 11.2981C10.6614 11.3421 10.5786 11.42 10.4931 11.4717C10.4103 11.5229 10.2317 11.6191 10.1591 11.6451C10.0893 11.671 9.36433 12.0547 9.36433 12.0547L9.11328 12.1344Z" fill="#AC924C"/>
<path fill-rule="evenodd" clip-rule="evenodd" d="M9.42676 10.2215C9.42676 10.2215 9.54059 10.1439 9.76075 10.0945C9.97306 10.0433 10.4002 10.0039 10.4002 10.0039L10.7523 10.1575L10.8921 10.6883L10.6361 11.2399L10.31 11.4447L9.93961 10.8492L9.42761 10.2225L9.42676 10.2215Z" fill="#9F8E57"/>
<path fill-rule="evenodd" clip-rule="evenodd" d="M8.96561 10.6953L8.84375 10.7863C8.84375 10.7863 8.87498 10.7292 8.90075 10.5558C8.92652 10.3824 9.06135 9.96038 9.25813 9.717C9.45491 9.47363 9.44979 9.4866 9.44979 9.4866C9.43168 9.48329 9.41308 9.48387 9.39521 9.48832C9.37735 9.49276 9.36064 9.50096 9.3462 9.51237C9.37214 9.45503 9.53786 9.25022 9.70357 9.14782C9.86929 9.04542 9.93397 9.01316 10.1074 9.09662C10.2808 9.18008 10.3248 9.22343 10.4518 9.21831C10.5788 9.21319 10.6873 9.07853 10.6873 9.07853C10.6873 9.07853 10.7132 9.1613 10.6175 9.35297C10.5218 9.54463 10.1437 9.93546 10.1437 9.93546L9.35661 10.4739L8.96561 10.6958V10.6953Z" fill="#EAC970"/>
<path fill-rule="evenodd" clip-rule="evenodd" d="M9.54853 10.1567C9.54853 10.1567 10.1182 10.2344 10.2916 10.074C10.2967 10.092 10.3176 10.092 10.3176 10.105C10.3162 10.1148 10.3116 10.1238 10.3046 10.1308C10.3234 10.1278 10.3425 10.1261 10.3616 10.1257C10.3844 10.1325 10.4078 10.1368 10.4316 10.1386C10.4507 10.1382 10.4697 10.1365 10.4886 10.1334C10.4868 10.1462 10.4824 10.1586 10.4757 10.1697C10.469 10.1809 10.4602 10.1906 10.4497 10.1982C10.4756 10.1982 10.5009 10.2033 10.5009 10.224C10.5009 10.2446 10.506 10.3069 10.4749 10.3199C10.4492 10.327 10.4218 10.3251 10.3973 10.3146C10.3993 10.3636 10.4126 10.4115 10.4362 10.4545C10.4874 10.5503 10.5966 10.6593 10.7434 10.6279C10.7434 10.6279 10.8209 10.8143 10.4947 11.2285C10.4508 11.2855 10.4041 11.3632 10.3473 11.4279C10.3248 11.4768 10.3076 11.528 10.2961 11.5806C10.2961 11.5806 10.8476 11.3683 11.0055 10.8841C11.1661 10.3974 11.1972 9.91848 11.1661 9.47065C11.1608 9.34367 11.1402 9.25322 11.1091 9.18837C11.0315 9.02777 10.8139 9.05371 10.726 9.14434C10.599 9.27131 10.3867 9.58705 10.0916 9.80447C9.79122 10.0219 9.77842 10.0605 9.54785 10.1567H9.54853Z" fill="#D7BC6B"/>
<path fill-rule="evenodd" clip-rule="evenodd" d="M8.86441 10.8558C8.86441 10.8558 8.75569 10.9205 8.69868 11.163C8.64168 11.4115 8.74989 11.7144 8.81253 11.8102C8.87517 11.9059 9.01734 12.1676 9.31228 12.1805C9.38528 12.1801 9.45747 12.1652 9.5246 12.1365C9.62756 12.0893 9.72414 12.0293 9.81203 11.9578C9.93901 11.8621 10.0424 11.7793 10.0295 11.7714C9.99841 11.7585 9.24759 11.1371 9.24759 11.1371L8.96529 10.822L8.86424 10.8562L8.86441 10.8558Z" fill="#585136"/>
<path fill-rule="evenodd" clip-rule="evenodd" d="M9.57452 11.886C9.57452 11.886 9.72727 11.8732 9.8179 11.8162C9.90853 11.7592 9.28711 11.1431 9.28711 11.1431L9.33114 11.8087L9.57452 11.886Z" fill="#453A25"/>
<path fill-rule="evenodd" clip-rule="evenodd" d="M8.9142 10.8091C8.9142 10.8091 8.83655 10.9567 8.83655 10.9956C8.82358 11.1224 8.86249 11.5211 8.89355 11.6479C8.92461 11.7825 9.09289 11.987 9.31048 11.987C9.44497 11.987 9.6315 11.9042 9.6315 11.8836C9.6315 11.8576 9.43985 11.8324 9.38814 11.7359C9.35708 11.6847 9.3441 11.5574 9.33694 11.4287C9.33182 11.346 9.33182 11.2553 9.36288 11.2239C9.43285 11.1463 9.44565 10.9236 9.44565 10.9236L9.69414 10.4619H9.36731L8.97632 10.7053L8.9142 10.8091Z" fill="#84754B"/>
<path fill-rule="evenodd" clip-rule="evenodd" d="M8.81836 10.9514C8.81836 10.9514 9.07435 10.6123 9.30509 10.5345C9.53582 10.4566 9.63908 10.5034 9.63908 10.5034L9.50442 10.8478L9.31277 11.0601L9.32574 11.1688C9.32574 11.1688 9.29451 11.4562 9.48616 11.6556C9.67782 11.8549 9.82015 11.8472 9.90309 11.8472C9.98603 11.8472 10.2241 11.7772 10.3458 11.4898C10.4545 11.2207 10.5451 10.8755 10.3277 10.5293C10.1152 10.1849 9.73994 10.1716 9.6674 10.1716C9.59487 10.1716 9.02537 10.2001 8.81836 10.9509V10.9514Z" fill="#252211"/>
<path fill-rule="evenodd" clip-rule="evenodd" d="M15.3913 12.1035C15.2956 12.0595 15.3862 11.7903 15.482 11.7074C15.5777 11.6245 15.6994 11.5289 15.9119 11.5157C15.9894 11.5106 16.0645 11.5598 16.0517 11.6117C16.0336 11.7074 15.8989 11.8421 15.7772 11.9378C15.6089 12.0699 15.5 12.1527 15.3913 12.1035Z" fill="#F7F7E7"/>
<path fill-rule="evenodd" clip-rule="evenodd" d="M10.2136 10.6356C10.2836 10.6305 10.3742 10.6868 10.3923 10.7626C10.4104 10.8453 10.3482 11.0111 10.2136 11.0111C10.1049 11.0111 10.0479 10.8764 10.0479 10.8377C10.0491 10.8058 10.058 10.7747 10.0738 10.747C10.0789 10.7392 10.0919 10.6485 10.2136 10.6356Z" fill="#F8F6DE"/>
<path fill-rule="evenodd" clip-rule="evenodd" d="M9.20406 10.6951C9.20406 10.6951 9.02537 10.7778 8.9426 10.9511C8.88345 11.079 8.86556 11.2221 8.8914 11.3606C8.90437 11.4253 8.96905 11.5857 9.01308 11.6427C9.05711 11.6997 9.11668 11.7386 9.16071 11.7334C9.20474 11.7281 9.2952 11.6117 9.2952 11.5419C9.2952 11.4721 9.30049 11.1768 9.38582 11.0162C9.46091 10.8558 9.20457 10.6952 9.20457 10.6952L9.20406 10.6951Z" fill="#D4C38B"/>
<path fill-rule="evenodd" clip-rule="evenodd" d="M9.23017 10.6821C9.19911 10.7002 9.1474 10.7261 9.1602 10.7597C9.17317 10.7908 9.28189 10.8109 9.3208 10.8867C9.36483 10.9643 9.36483 11.0471 9.35186 11.086C9.38568 11.07 9.41637 11.048 9.44249 11.0212C9.49949 10.9565 9.56929 10.8686 9.62885 10.8686C9.66777 10.8686 9.70651 10.8867 9.74286 10.8867C9.79986 10.8867 9.8567 10.8686 9.86455 10.809C9.87735 10.7314 9.75583 10.6614 9.68586 10.6744C9.69883 10.6232 9.71692 10.5476 9.65992 10.4957C9.60291 10.4438 9.42439 10.5346 9.38548 10.5606C9.34657 10.5865 9.23017 10.6822 9.23017 10.6822V10.6821Z" fill="#E2D59D"/>
<path fill-rule="evenodd" clip-rule="evenodd" d="M13.3436 16.1217L13.7267 16.0085L13.8354 16.0862C13.8354 16.0862 13.9129 16.2519 14.0348 16.2726C13.9959 16.3553 13.8948 16.4262 13.9001 16.4849C13.9054 16.5436 13.9571 16.5885 13.9571 16.5885C13.9571 16.5885 13.6127 17.158 14.2911 17.7319C14.1305 17.7966 13.9261 17.8855 13.8173 17.9367C13.8948 17.9548 14.0605 17.9879 14.1305 18.0507C14.2005 18.1135 14.2005 18.1335 14.2652 18.1724C14.3299 18.2113 14.3686 18.2631 14.3558 18.2863C14.3118 18.2603 14.1641 18.1828 14.1384 18.2552C14.1126 18.3276 13.4989 18.2992 13.4989 18.2992L12.4633 18.4986C12.4633 18.4986 12.502 18.395 12.3933 18.2992C12.2665 18.1854 12.1112 18.3044 11.9455 18.1775C11.728 18.0118 11.7202 17.8202 11.6504 17.7478C11.7202 17.7038 11.8627 17.6391 12.2018 17.5942C12.1888 17.5683 12.1448 17.4906 12.1708 17.4208C12.2018 17.3302 12.3312 17.2732 12.2924 17.1648C12.3494 17.1518 12.3752 17.1518 12.5177 16.9732C12.6524 16.7945 12.7351 16.7557 12.8387 16.7428C12.9423 16.7298 13.0045 16.7428 13.1961 16.5641C13.3306 16.4373 13.2867 16.3285 13.2867 16.3285C13.2867 16.3285 13.3746 16.3 13.3437 16.1214L13.3436 16.1217Z" fill="#CBAC5A"/>
<path fill-rule="evenodd" clip-rule="evenodd" d="M12.2125 16.1793C12.2176 16.1534 12.2385 16.1404 12.3782 16.1534C12.518 16.1663 13.4034 16.0706 13.6442 16.0576C13.8876 16.0395 14.7445 16.0523 15.1615 16.1404C15.5784 16.2284 16.0003 16.332 16.2048 16.3837C16.4096 16.4407 16.4741 16.4612 16.4662 16.4871C16.4611 16.5131 16.415 16.5383 16.3886 16.5312C16.3628 16.5261 15.6844 16.3189 15.4748 16.2752C15.2653 16.2315 14.5401 16.1146 14.1436 16.1216C13.7734 16.1269 13.6258 16.1165 13.3126 16.1527C12.9993 16.1916 12.4815 16.2433 12.3262 16.2226C12.1726 16.2045 12.2043 16.2046 12.2122 16.1786L12.2125 16.1793Z" fill="#D6BC6F"/>
<path fill-rule="evenodd" clip-rule="evenodd" d="M14.2967 18.2084C14.2967 18.2084 14.8275 18.4958 15.0192 18.8479C15.1589 19.1093 14.9364 19.2389 14.9364 19.2389C14.9364 19.2389 15.2367 19.2389 15.1978 19.4046C15.1797 19.508 14.68 19.7876 14.346 19.9352C14.0069 20.0828 14.0199 20.0751 13.8542 20.1009C13.6936 20.1268 13.2534 20.0497 13.1628 20.1786C13.0722 20.3074 13.1116 20.4402 13.1369 20.4608C13.1628 20.4789 13.3726 20.5049 13.3726 20.5049C13.3726 20.5049 13.3285 20.6266 12.8937 20.6395C12.4588 20.6525 12.3499 20.6834 12.324 20.7301C12.2981 20.774 12.4068 20.7482 12.6063 20.7813C12.8056 20.8124 13.0852 20.8325 13.0852 20.8325C13.0852 20.8325 12.9945 20.9102 12.759 20.9723C12.4897 21.0421 12.0677 21.107 11.9409 21.1846C12.0055 21.2287 12.1014 21.2933 12.1457 21.2985C12.0369 21.3244 11.884 21.3814 11.8582 21.4021C11.897 21.428 11.9489 21.4591 11.9489 21.4591C11.9489 21.4591 11.7313 21.7205 11.6045 21.7854C11.4777 21.8502 10.7476 22.1892 10.4963 22.1245C9.86982 21.9588 9.79217 21.2727 9.63942 21.221C9.40902 21.1433 9.30031 21.2985 9.09568 21.1897C9.18631 21.1251 9.23563 21.0863 9.33137 21.0423C9.22778 20.9911 8.69189 20.6513 8.69189 20.6513C8.63585 20.5292 8.57365 20.4099 8.50552 20.2941C8.40193 20.1154 8.24952 19.8772 8.13518 19.6674C7.88669 19.2066 7.87372 18.9943 7.64844 18.7329C7.68735 18.6817 7.82183 18.6888 7.82183 18.6888L9.7094 19.3102L13.0563 19.4072L13.9267 18.1646L14.2969 18.2086L14.2967 18.2084Z" fill="#DFC677"/>
<path fill-rule="evenodd" clip-rule="evenodd" d="M9.33887 20.1035C9.35906 20.1259 9.38261 20.1452 9.40867 20.1605C9.47352 20.2045 9.56927 20.2564 9.63395 20.3339C9.65989 20.2951 9.72457 20.2252 9.83875 20.3339C9.95293 20.4426 10.0948 20.3651 10.183 20.3909C10.2736 20.4221 10.2787 20.4349 10.2787 20.4349C10.2787 20.4349 10.3299 20.3909 10.4444 20.3443C10.5144 20.3183 10.5972 20.3002 10.6878 20.2745C10.7706 20.2564 10.8612 20.2304 10.9235 20.2304C10.9805 20.2692 11.185 20.4864 12.0057 20.1658C12.7798 19.8654 12.9584 19.8318 13.0879 19.8782C13.1009 19.8471 13.1138 19.7876 13.3132 19.7954C13.3132 19.7126 13.1475 19.4304 13.1475 19.4304L12.2335 19.1172H11.7337L10.2347 19.3916L9.40406 19.8656L9.33938 20.1045L9.33887 20.1035Z" fill="#C4A859"/>
<path fill-rule="evenodd" clip-rule="evenodd" d="M8.83887 19.5781C8.83887 19.5781 8.85696 19.7179 9.06415 19.8655C9.26895 20.0129 9.33329 20.101 9.33329 20.101C9.33329 20.101 9.3722 20.0498 9.40326 19.9976C9.43432 19.9406 9.46026 19.8759 9.51198 19.8578C9.61557 19.8138 9.85109 19.8966 9.90297 19.8836C9.94701 19.8708 9.93403 19.7802 9.98063 19.7802C10.0893 19.7749 10.1591 19.85 10.1981 19.85C10.237 19.85 10.3325 19.8448 10.3455 19.8242C10.3585 19.8035 10.3636 19.5885 10.5112 19.4849C10.6718 19.3711 10.8686 19.4202 10.9208 19.4462C10.9208 19.4849 10.9259 19.5808 11.0295 19.5859C11.1331 19.5911 11.1434 19.573 11.2343 19.604C11.3253 19.6351 11.4337 19.5989 11.4828 19.7515C11.5269 19.7387 11.6305 19.7257 11.6045 19.5781C11.6557 19.5393 11.7004 19.5134 11.8093 19.3607C11.8353 19.3219 11.8791 19.2779 11.9129 19.2209C12.0035 19.2209 12.1123 19.2028 12.2571 19.3296C12.2131 19.3607 12.1872 19.3808 12.1744 19.4124C12.2123 19.4499 12.2469 19.4906 12.2778 19.5341C12.3167 19.5853 12.3427 19.6481 12.3918 19.661C12.5005 19.6921 12.6792 19.6481 12.8785 19.661C13.0702 19.674 13.2306 19.7438 13.3006 19.7878C13.3265 19.775 13.3265 19.7697 13.3912 19.7827C13.4559 19.7957 13.5051 19.8008 13.4353 19.718C13.474 19.7361 13.518 19.775 13.5569 19.7361C13.5959 19.6972 13.6267 19.6404 13.7355 19.6274C13.8442 19.6144 13.8831 19.6325 13.9271 19.5187C13.9841 19.3789 13.7873 19.3789 13.7873 19.3789C13.7873 19.3789 13.878 19.296 13.979 19.1873C14.1007 19.0734 14.2405 18.9258 14.2741 18.7446C14.3311 18.4106 14.0049 18.3667 14.0049 18.3667L12.423 18.8534L10.489 18.7575L8.83989 19.5783L8.83887 19.5781Z" fill="#927D49"/>
<path fill-rule="evenodd" clip-rule="evenodd" d="M7.41768 15.0085C7.41768 15.0085 7.36648 15.0732 7.3349 15.226C7.30333 15.3787 7.31681 15.3606 7.29087 15.4694C7.26493 15.5781 6.9463 16.6603 7.06576 17.0254C7.18523 17.3904 7.39208 17.5251 7.52144 17.8202C7.54738 17.8849 7.57264 17.9238 7.58613 17.9808C7.63016 18.1723 7.59142 18.3199 7.64313 18.5116C7.66122 18.5762 7.70798 18.6513 7.77778 18.729C7.93138 18.8894 8.18175 19.0422 8.28978 19.1509C8.44236 19.3115 8.65996 19.6378 8.93695 19.6687C9.08458 19.6868 9.29433 19.6247 9.46773 19.5213C9.62133 19.4253 9.71622 19.2908 9.87733 19.214C9.99116 19.157 10.1128 19.1364 10.2216 19.1104C10.4468 19.0664 10.6515 19.0592 10.7732 19.0845C10.9595 19.1234 11.3997 19.2581 11.6436 19.2581C11.8341 19.255 12.0236 19.2289 12.208 19.1804C12.5781 19.0717 13.026 18.8852 13.3212 18.8024C13.4946 18.7512 13.6344 18.7377 13.7769 18.7066C14.0203 18.6496 14.2247 18.572 14.3413 18.4244C14.2636 18.3337 14.1679 18.1939 13.6499 18.1991C13.0623 18.212 12.3839 18.5382 12.0499 18.5901C11.7159 18.642 11.571 18.6858 11.1981 18.5512C10.8325 18.4151 10.8204 18.3252 10.8204 18.3252C10.8204 18.3252 10.4366 18.0567 10.276 17.3723C10.1154 16.6879 10.276 16.1892 10.6929 15.7153C10.8017 15.5936 10.7757 15.4849 10.7757 15.4849C10.7757 15.4849 11.0501 15.1147 10.9751 14.7681C10.8923 14.4237 10.3615 14.4936 10.3615 14.4936L7.41785 15.0085H7.41768Z" fill="#6E6342"/>
<path fill-rule="evenodd" clip-rule="evenodd" d="M7.86052 16.1606C7.83769 16.2036 7.82696 16.2519 7.82946 16.3004C7.83458 16.3702 7.8554 16.4608 8.06498 16.6655C8.24366 16.844 8.20475 17.0433 8.20475 17.0433C8.20475 17.0433 8.29469 17.0614 8.53874 16.9472C8.7304 16.8566 8.79474 17.0172 8.79474 17.0172C8.85053 16.9879 8.911 16.9686 8.97343 16.9602C9.02999 16.955 9.08473 16.9375 9.13386 16.909C9.13386 16.909 9.35914 17.1394 9.55591 17.2481C9.7346 17.344 9.83819 17.4087 9.92626 17.344C10.009 17.287 10.009 17.1704 10.0037 17.1187C9.9832 17.071 9.9572 17.0258 9.92626 16.9841C9.86926 16.9013 9.77863 16.8054 9.77266 16.7281C9.75969 16.5496 9.90731 16.3371 9.87608 16.2854C9.84485 16.2337 9.72863 16.2207 9.44123 16.3243C9.14358 16.4226 7.85932 16.1612 7.85932 16.1612L7.86052 16.1606Z" fill="#39331F"/>
<path fill-rule="evenodd" clip-rule="evenodd" d="M8.53834 17.318C8.53834 17.318 8.39094 17.1782 8.44263 16.4998C8.50521 16.4989 8.5677 16.505 8.62894 16.5179C8.62894 16.5179 8.70929 17.0436 8.53834 17.318Z" fill="#292311"/>
<path fill-rule="evenodd" clip-rule="evenodd" d="M7.48769 14.4907C7.50827 14.4755 7.52735 14.4583 7.5447 14.4395C7.4935 14.5352 7.25712 14.9184 7.44878 15.5217C7.64044 16.1222 8.12189 16.5701 8.71479 16.5909C9.30768 16.6117 9.61932 16.3216 9.97567 15.8867C10.1154 15.7133 10.276 15.4957 10.4184 15.3483C10.6307 15.1177 10.7964 15.053 10.7964 14.8305C10.7964 14.3748 10.3303 14.1702 9.64424 13.9657C8.95816 13.7613 8.33932 13.7865 8.0183 13.9265C7.70512 14.079 7.57047 14.2396 7.48752 14.4909L7.48769 14.4907Z" fill="#252211"/>
<path fill-rule="evenodd" clip-rule="evenodd" d="M9.69094 17.5223L9.74213 17.4963C9.74213 17.4963 9.75493 17.2915 9.83787 17.297C9.92063 17.31 9.95954 17.4188 9.95169 17.4576C9.94657 17.4963 9.92592 17.5612 9.84299 17.5533C9.73428 17.5559 9.69043 17.5223 9.69043 17.5223H9.69094Z" fill="#3F3824"/>
<path fill-rule="evenodd" clip-rule="evenodd" d="M9.45996 16.6524C9.45996 16.6524 9.51116 16.6343 9.5738 16.6964C9.625 16.6964 9.84823 16.6704 9.9182 16.7145C9.98817 16.7585 10.0088 16.7972 10.0088 16.7972C10.0088 16.7972 9.74736 16.8542 9.60486 16.7972C9.45996 16.7481 9.45996 16.6524 9.45996 16.6524Z" fill="#2D2815"/>
<path fill-rule="evenodd" clip-rule="evenodd" d="M10.6124 16.6912C10.6124 16.6783 10.4726 16.5825 10.325 16.5513C10.299 16.5462 10.2937 16.5643 10.2738 16.5643C10.2608 16.5592 10.2557 16.5203 10.2557 16.5203L10.1717 16.5645C10.1717 16.5645 10.1587 16.5825 10.2028 16.6156C10.2415 16.6467 10.3064 16.6726 10.3245 16.7243C10.3426 16.776 10.3426 16.7941 10.3504 16.802C10.3555 16.8071 10.4462 16.802 10.4902 16.776C10.5342 16.7501 10.6172 16.7078 10.6119 16.6907L10.6124 16.6912Z" fill="#82764F"/>
<path fill-rule="evenodd" clip-rule="evenodd" d="M9.30469 17.2169C9.30469 17.2169 9.33046 17.0383 9.50403 17.0305C9.68254 17.0175 9.71634 17.1909 9.71634 17.1909L9.61274 17.2945C9.61274 17.292 9.53509 17.1832 9.30554 17.2169H9.30469Z" fill="#2D2816"/>
<path fill-rule="evenodd" clip-rule="evenodd" d="M10.4307 16.4479C10.4307 16.4479 10.3348 16.5515 10.1226 16.5826C10.1045 16.5567 10.0656 16.5049 10.1226 16.4221C10.1796 16.3393 10.2443 16.3134 10.309 16.3391C10.3375 16.3438 10.3641 16.3565 10.3857 16.3757C10.4073 16.395 10.4229 16.4201 10.4307 16.4479Z" fill="#574F35"/>
<path fill-rule="evenodd" clip-rule="evenodd" d="M10.8222 16.5748C10.8275 16.5488 10.8094 16.5437 10.8222 16.5307C10.835 16.5178 10.9051 16.492 10.9181 16.5048C10.9232 16.5101 10.9181 16.5307 10.9181 16.556C10.9181 16.5813 10.9181 16.6072 10.9051 16.6258C10.887 16.6517 10.8353 16.6647 10.8094 16.657C10.7834 16.6493 10.7783 16.613 10.7783 16.6058C10.7911 16.6007 10.8222 16.5877 10.8222 16.5748ZM11.2642 16.2953C11.2642 16.2823 11.3082 16.2563 11.3342 16.2563C11.3729 16.2563 11.3729 16.2874 11.3782 16.2953C11.391 16.3004 11.391 16.29 11.404 16.3133C11.417 16.3367 11.4352 16.378 11.4221 16.404C11.4089 16.4299 11.3574 16.4478 11.3446 16.4427C11.3265 16.4297 11.2695 16.3133 11.2642 16.2953Z" fill="#82764F"/>
<path fill-rule="evenodd" clip-rule="evenodd" d="M10.374 16.6344C10.374 16.6344 10.431 16.6472 10.5087 16.7121C10.4827 16.7302 10.4438 16.7508 10.4438 16.7508C10.4438 16.7508 10.4387 16.6913 10.374 16.6343V16.6344Z" fill="#6E6342"/>
<path fill-rule="evenodd" clip-rule="evenodd" d="M10.2472 16.0647C10.2342 16.0519 10.2859 16.0209 10.317 16.026C10.348 16.0311 10.361 16.0519 10.3946 16.0571C10.4282 16.0622 10.4335 16.0441 10.4458 16.0311C10.4581 16.0181 10.5028 16.026 10.5105 16.0311C10.5153 16.0368 10.5196 16.0429 10.5235 16.0492C10.524 16.0394 10.5266 16.0297 10.531 16.0209C10.5355 16.0121 10.5417 16.0043 10.5493 15.998C10.5592 15.9907 10.5706 15.9858 10.5828 15.9835C10.5949 15.9813 10.6073 15.9818 10.6192 15.985C10.6244 16.0031 10.6503 16.0678 10.6452 16.0808C10.6401 16.0938 10.5624 16.112 10.5493 16.0989C10.5622 16.1301 10.6192 16.1948 10.6269 16.2076C10.6346 16.2204 10.5699 16.2516 10.5441 16.2465C10.508 16.244 10.2852 16.1144 10.2465 16.0653L10.2472 16.0647ZM10.5863 15.635C10.5815 15.6219 10.5723 15.6109 10.5603 15.6039C10.5423 15.5988 10.4827 15.6039 10.4827 15.635C10.4827 15.666 10.5339 15.8398 10.5914 15.9302C10.6563 16.0209 10.7001 16.0958 10.7442 16.1166C10.758 16.1229 10.7737 16.1238 10.7881 16.1189C10.8025 16.1141 10.8146 16.104 10.8218 16.0907C10.8269 16.0777 10.8399 15.982 10.8348 15.7567C10.8297 15.5314 10.8218 15.3139 10.8088 15.3009C10.7959 15.288 10.7442 15.2881 10.7261 15.3139C10.708 15.3397 10.5914 15.5962 10.5861 15.635H10.5863Z" fill="#585136"/>
<path fill-rule="evenodd" clip-rule="evenodd" d="M10.3561 16.9606C10.3561 16.9606 10.2654 16.9036 10.1773 16.9425C10.0946 16.9814 10.0997 17.1341 10.0997 17.1341C10.1183 17.1414 10.1384 17.144 10.1583 17.1418C10.1782 17.1395 10.1972 17.1324 10.2137 17.1212C10.2707 17.0824 10.3431 17.0178 10.3561 16.9608V16.9606Z" fill="#574F35"/>
<path fill-rule="evenodd" clip-rule="evenodd" d="M10.5268 17.1652C10.5217 17.114 10.4756 17.114 10.4756 17.0875C10.4788 17.0749 10.4861 17.0636 10.4964 17.0557C10.5067 17.0477 10.5194 17.0434 10.5324 17.0435C10.5584 17.0435 10.5836 17.0745 10.6154 17.0947C10.6464 17.1128 10.693 17.1459 10.6981 17.1853C10.7033 17.2247 10.6469 17.3328 10.5843 17.3328C10.5217 17.3328 10.5403 17.2162 10.5273 17.1645L10.5268 17.1652ZM11.0265 17.0952C11.0265 17.0952 10.9229 17.1262 10.9306 17.0952C10.9383 17.0641 10.9618 17.0564 10.9954 17.0564C11.0125 17.0386 11.0355 17.0275 11.0601 17.0252C11.0742 17.0245 11.088 17.0291 11.0989 17.0382C11.0989 17.0382 11.1688 17.0071 11.1895 17.0252C11.2101 17.0433 11.1948 17.0433 11.2076 17.0641C11.2239 17.0872 11.2346 17.1138 11.2388 17.1418C11.2388 17.1624 11.1612 17.2065 11.0989 17.1988C11.0265 17.1832 11.0393 17.1082 11.0265 17.0952ZM11.6296 16.9786C11.6296 16.9786 11.6607 16.9967 11.6349 17.0175C11.6168 17.0356 11.5262 17.0687 11.4484 17.0745C11.3707 17.0745 11.3009 17.0873 11.3009 17.0616C11.3009 17.0358 11.3656 16.9839 11.4044 16.9709C11.4121 16.9612 11.422 16.9533 11.4332 16.948C11.4445 16.9426 11.4568 16.9398 11.4692 16.9399C11.5003 16.9399 11.6218 16.9269 11.6556 16.9218C11.6866 16.9165 11.7126 16.9346 11.6943 16.9605C11.6866 16.9786 11.6296 16.9786 11.6296 16.9786ZM11.8083 16.1792C11.8083 16.1792 11.7694 16.262 11.7255 16.262C11.6815 16.2568 11.6815 16.2439 11.6815 16.2309C11.6815 16.2128 11.7255 16.1662 11.7203 16.1532C11.7075 16.1532 11.6762 16.1532 11.6815 16.1222C11.6815 16.0962 11.7255 16.0652 11.7643 16.071C11.7936 16.0469 11.83 16.0333 11.8679 16.0322C11.9119 16.0322 11.9507 16.045 11.9507 16.071C11.9507 16.0969 11.8995 16.1537 11.8807 16.1669C11.86 16.1875 11.8341 16.201 11.8083 16.1797V16.1792ZM11.218 17.7093C11.218 17.7093 11.1668 17.7146 11.1668 17.7403C11.1668 17.7533 11.1796 17.7533 11.1978 17.7456C11.2084 17.745 11.2188 17.7432 11.2289 17.7403C11.234 17.7456 11.234 17.7714 11.2729 17.7714C11.3049 17.7671 11.3357 17.7565 11.3636 17.7403C11.3946 17.7275 11.4206 17.7144 11.4206 17.6891C11.4076 17.6451 11.3817 17.6243 11.3429 17.6243C11.3231 17.623 11.3033 17.6275 11.2859 17.6372C11.2859 17.6372 11.2729 17.6113 11.2289 17.6372C11.1849 17.6632 11.19 17.6632 11.203 17.6762C11.2262 17.6968 11.2185 17.7103 11.2185 17.7103L11.218 17.7093ZM10.9255 17.9786C10.9255 17.9656 10.9901 17.9397 11.0082 17.9475C11.0263 17.9526 11.078 18.0509 11.078 18.0614C11.078 18.0743 11.0134 18.1054 10.9874 18.1054C10.9615 18.1054 10.9176 18.0614 10.9176 18.0542C10.9176 18.0491 10.9487 18.0414 10.9487 18.0361C10.9564 18.0233 10.9255 17.9921 10.9255 17.9791V17.9786ZM10.7207 17.6005C10.7336 17.5954 10.7336 17.5825 10.7517 17.5695C10.7574 17.5657 10.7638 17.5633 10.7706 17.5624C10.7773 17.5615 10.7842 17.5622 10.7906 17.5644C10.7952 17.5562 10.8015 17.5492 10.8091 17.5438C10.8168 17.5384 10.8255 17.5347 10.8347 17.5331C10.8657 17.528 10.8917 17.5331 10.8859 17.5461C10.8859 17.585 10.9118 17.6108 10.9118 17.6418C10.9118 17.6729 10.8937 17.7118 10.829 17.7378C10.7644 17.7559 10.6763 17.7559 10.6633 17.7507C10.6503 17.7456 10.6374 17.6937 10.6503 17.6678C10.6633 17.6418 10.6995 17.6135 10.7203 17.6005H10.7207Z" fill="#82764F"/>
<path fill-rule="evenodd" clip-rule="evenodd" d="M10.8032 17.6182C10.8032 17.6182 10.7591 17.6441 10.7591 17.6571C10.7552 17.6696 10.7535 17.6827 10.754 17.6958C10.754 17.7035 10.811 17.6907 10.8187 17.6828C10.8213 17.6777 10.8032 17.6316 10.8032 17.6182Z" fill="#6E6342"/>
<path fill-rule="evenodd" clip-rule="evenodd" d="M10.418 17.4964C10.4437 17.5017 10.4878 17.4964 10.5214 17.5094C10.5473 17.5224 10.5654 17.5483 10.5395 17.5794C10.5135 17.6104 10.4883 17.657 10.4308 17.6491C10.3661 17.644 10.304 17.6104 10.304 17.5845C10.3029 17.5681 10.3051 17.5516 10.3104 17.5361C10.3157 17.5205 10.3241 17.5062 10.335 17.4939C10.361 17.4732 10.3738 17.4862 10.4178 17.4964H10.418Z" fill="#585136"/>
<path fill-rule="evenodd" clip-rule="evenodd" d="M10.3875 17.5225C10.3875 17.5225 10.3047 17.5871 10.2839 17.6184C10.2579 17.6494 10.1312 17.8099 10.0924 17.8435C10.1053 17.8208 10.12 17.7992 10.1363 17.7788C10.0851 17.8115 10.0467 17.8609 10.0276 17.9186C9.99652 18.0145 10.2011 18.0662 10.3356 18.1051C10.4701 18.144 10.5221 18.1563 10.5221 18.1563C10.4726 18.0819 10.4301 18.0031 10.3951 17.9208C10.344 17.7991 10.3175 17.7861 10.3511 17.7291C10.3771 17.6721 10.416 17.6334 10.416 17.5894C10.4004 17.5484 10.3875 17.5225 10.3875 17.5225Z" fill="#574F35"/>
<path fill-rule="evenodd" clip-rule="evenodd" d="M7.43589 17.7271C7.45473 17.7306 7.47405 17.7306 7.49289 17.7271C7.53163 17.7218 7.9356 17.5735 8.35766 17.6001C8.67362 17.6192 8.98678 17.6707 9.29223 17.7537C9.823 17.8935 10.4831 18.1705 10.9103 18.3286C11.0242 18.3724 11.1356 18.4503 11.2175 18.4811C11.5438 18.6081 11.5566 18.6081 11.7483 18.6418C11.9736 18.6728 12.204 18.5977 12.4448 18.546C12.7399 18.4811 13.2447 18.4501 13.6874 18.3854C13.8306 18.3656 13.9718 18.3335 14.1095 18.2896C14.1095 18.2896 13.7574 18.6417 12.9133 18.7686C12.5721 18.8204 12.2253 18.8247 11.8829 18.7815C11.6136 18.7556 11.4351 18.7167 11.3005 18.6779C11.1477 18.6339 10.8344 18.5173 10.4487 18.4219C10.1794 18.3519 9.87898 18.3002 9.53475 18.2355C8.68551 18.0801 7.76391 17.9015 7.43555 17.7281L7.43589 17.7271Z" fill="#252211"/>
<path fill-rule="evenodd" clip-rule="evenodd" d="M6.48311 16.127C6.27831 16.3004 6.06105 16.4661 5.84891 16.6265L5.20942 17.1178C4.99199 17.2783 4.77968 17.444 4.56208 17.6046C4.34448 17.7652 4.12723 17.9178 3.89648 18.0654C4.10128 17.892 4.31854 17.7314 4.53597 17.5735C4.7534 17.4157 4.97885 17.2609 5.1886 17.1008L5.82809 16.6087C6.04808 16.4483 6.26039 16.2826 6.48311 16.1273V16.127ZM5.35176 17.9393C5.35176 17.9393 5.58216 17.7476 5.86956 17.4785C6.22677 17.1446 6.66436 16.7173 6.80413 16.6398L5.35159 17.9394L5.35176 17.9393Z" fill="#CFB66C"/>
<path fill-rule="evenodd" clip-rule="evenodd" d="M5.35156 17.9392C5.46557 17.8254 5.58725 17.7141 5.70894 17.6052L5.89531 17.4448C5.95231 17.3936 6.01716 17.3361 6.07399 17.2791C6.18783 17.1652 6.29927 17.0434 6.41311 16.927C6.46953 16.8684 6.52919 16.8131 6.5918 16.7613C6.6231 16.7336 6.65786 16.71 6.69522 16.6913C6.72645 16.6732 6.76007 16.6401 6.80394 16.6343C6.77817 16.6732 6.7471 16.6913 6.72116 16.7249C6.6901 16.7508 6.66416 16.7819 6.63839 16.8077C6.58139 16.8647 6.5167 16.9164 6.4597 16.9683C6.33802 17.0719 6.21121 17.1731 6.08953 17.2814C5.96784 17.3898 5.85401 17.5067 5.73215 17.6154C5.60022 17.7269 5.47854 17.8356 5.35156 17.9397V17.9392ZM6.89985 16.9036C6.89985 16.9036 6.0559 17.7296 5.88234 17.8641L6.89985 16.9036Z" fill="#CFB66C"/>
<path fill-rule="evenodd" clip-rule="evenodd" d="M6.89935 16.9036C6.82343 16.9914 6.74203 17.0744 6.65564 17.1521L6.39964 17.3954C6.31687 17.4782 6.23904 17.5611 6.15115 17.6439C6.06052 17.7216 5.97775 17.7975 5.88184 17.8692L6.13033 17.6258C6.21327 17.5431 6.30389 17.4733 6.39196 17.3903L6.64045 17.1469C6.72578 17.0616 6.80873 16.9787 6.89935 16.9036ZM6.93809 17.3514C6.8603 17.5685 6.76863 17.7804 6.66366 17.9858C6.44623 18.4208 6.12009 18.9644 5.97758 19.2415L6.93809 17.3514Z" fill="#CFB66C"/>
<path fill-rule="evenodd" clip-rule="evenodd" d="M6.93842 17.3516C6.93842 17.4473 6.91248 17.5303 6.88142 17.613C6.85114 17.6959 6.81662 17.7771 6.77799 17.8564C6.73908 17.934 6.69505 18.017 6.65102 18.0921C6.60699 18.1672 6.55527 18.2447 6.51636 18.3225L6.2549 18.7833C6.16428 18.9369 6.07621 19.0913 5.98047 19.239C6.04515 19.0732 6.13322 18.9179 6.21616 18.7652C6.30678 18.6116 6.38956 18.458 6.47216 18.2991C6.51249 18.2199 6.54877 18.1388 6.58087 18.0559C6.61962 17.973 6.65836 17.8953 6.68959 17.8202C6.72833 17.7374 6.75939 17.6596 6.7983 17.5847C6.84216 17.5043 6.87852 17.4267 6.93808 17.3516H6.93842Z" fill="#CFB66C"/>
<path fill-rule="evenodd" clip-rule="evenodd" d="M7.86013 19.4744C7.86013 19.4744 7.60413 19.8135 7.62973 20.2432C7.69953 20.0181 7.7876 19.6737 7.86013 19.4744ZM8.1035 19.8143C8.1035 19.8143 8.01288 20.7359 7.93778 21.1891C8.04394 20.6653 8.06459 20.7093 8.1035 19.8143ZM9.79925 21.2435C9.79925 21.2435 9.41611 22.3699 9.40825 22.6829C9.4912 22.361 9.65163 21.7034 9.79925 21.2426V21.2435Z" fill="#DEC270"/>
<path fill-rule="evenodd" clip-rule="evenodd" d="M10.6953 19.4048C10.6953 19.4048 11.3167 20.43 11.7828 21.305C11.6567 20.8647 11.3665 20.0571 10.6953 19.4048Z" fill="#CBAF59"/>
<path fill-rule="evenodd" clip-rule="evenodd" d="M12.3652 20.9141C12.7064 21.5171 13.0141 22.1386 13.2868 22.7755C13.2351 22.3354 13.0952 21.5821 12.3652 20.9141Z" fill="#E3C677"/>
<path fill-rule="evenodd" clip-rule="evenodd" d="M17.2737 22.4254C17.3771 22.3607 17.5817 22.0085 17.7604 21.9206C17.9389 21.8299 18.0736 21.8118 18.2342 21.6332C18.3946 21.4466 18.439 21.3328 18.7907 21.1853C19.2828 20.9729 18.9443 20.6984 18.9443 20.6984C18.9985 20.6452 19.0565 20.5959 19.1177 20.551C19.2447 20.4552 19.3922 20.3387 19.3794 20.134C19.3613 19.7898 19.2966 19.2901 19.0143 19.0001C19.2887 18.9431 19.8142 18.9044 20.1407 18.8216C20.5186 18.7257 20.6921 18.591 20.6921 18.591C20.6921 18.591 20.4747 18.2209 20.8268 17.8481C21.1789 17.4754 21.4663 17.2527 21.6786 16.8357C21.4352 16.8047 21.0642 16.6753 20.1173 17.0351C20.1685 17.0591 20.2178 17.0868 20.265 17.1178C20.265 17.1178 19.6825 17.2784 19.4702 17.4571C19.0998 17.7703 19.0532 18.0266 18.652 18.2183C18.2507 18.41 17.8468 18.3581 17.5129 18.5134C17.1791 18.6687 17.1298 18.8008 17.0079 18.8578C17.0339 18.8888 17.0028 18.9406 17.052 18.9846C17.0209 19.0286 16.8397 19.3237 16.6559 19.3237C16.6739 19.3937 16.8293 19.4454 16.8293 19.4454C16.8293 19.4454 16.7154 19.5283 16.4255 19.549C16.5729 19.7026 16.7129 19.87 17.0986 20.1134C17.0675 20.1781 16.938 20.274 16.9899 20.3957C17.0469 20.5173 17.1947 20.6831 17.7847 20.8177C17.4843 20.8305 17.1324 20.9005 16.6582 20.8358C16.1845 20.7788 16.1068 20.7452 15.8143 20.8177C15.8454 20.8488 15.9281 20.8488 16.0007 20.9316C15.923 20.9367 15.4363 20.8745 15.2705 21.0921C15.0971 21.3173 15.0221 21.6876 15.035 21.9361C14.9444 21.9801 14.8563 22.0578 14.9004 22.2184C14.9444 22.379 15.1748 22.4307 15.3224 22.5316C15.4699 22.6403 15.4829 22.679 15.6228 22.6532C15.7703 22.6222 15.9877 22.4747 16.1147 22.4747C16.2416 22.4747 16.3321 22.5705 16.3321 22.5705C16.3321 22.5705 16.6765 22.4047 16.7101 22.4358C16.7412 22.4669 16.7152 22.6662 16.7489 22.6973C16.783 22.7207 17.1709 22.4903 17.2745 22.4254H17.2737Z" fill="#ECD592"/>
<path fill-rule="evenodd" clip-rule="evenodd" d="M24.8002 12.0648C23.1821 7.88621 19.182 7.11206 19.182 7.11206H7.7697L7.81373 11.3683H10.0865V20.8726H7.76953V25.1212H18.8661C21.5405 25.1212 23.6842 22.4337 23.6842 22.4337C27.1172 17.5613 24.8 12.0648 24.8 12.0648H24.8002ZM18.9257 19.5702C18.9257 19.5702 18.0553 20.826 17.1082 20.826H15.2138L15.169 11.3787H17.6001C17.6001 11.3787 18.7265 11.6143 19.5134 13.8433C19.5134 13.8433 20.5567 17.0348 18.9257 19.5702Z" fill="white" fill-opacity="0.8"/>
</svg>
