<svg width="32" height="32" viewBox="0 0 32 32" fill="none" xmlns="http://www.w3.org/2000/svg">
<path d="M32 24.6107H0C0.512084 19.1868 3.61245 14.5537 8.18985 12.0734L5.53538 7.47507C5.38559 7.21728 5.47268 6.88983 5.73046 6.74003C5.98824 6.59024 6.3157 6.67733 6.46549 6.93511L9.1548 11.5926C11.2066 10.6556 13.5162 10.133 16 10.133C18.4838 10.133 20.7934 10.6556 22.8452 11.5926L25.5345 6.93511C25.6808 6.67733 26.0118 6.59024 26.2661 6.74003C26.5204 6.88983 26.6109 7.21728 26.4611 7.47507L23.8067 12.0734C28.3875 14.5537 31.4879 19.1868 32 24.6107ZM23.3433 20.1169C24.0853 20.1169 24.688 19.5143 24.6845 18.7757C24.6845 18.0372 24.0853 17.4346 23.3433 17.4346C22.6048 17.4346 22.0022 18.0337 22.0022 18.7757C22.0022 19.5143 22.6014 20.1169 23.3433 20.1169ZM8.65317 20.1169C9.39517 20.1169 9.99782 19.5143 9.99434 18.7757C9.99434 18.0372 9.39517 17.4346 8.65317 17.4346C7.91465 17.4346 7.312 18.0337 7.312 18.7757C7.312 19.5143 7.91117 20.1169 8.65317 20.1169Z" fill="#3DDC84"/>
</svg>
