<svg width="32" height="32" viewBox="0 0 32 32" fill="none" xmlns="http://www.w3.org/2000/svg">
<path d="M29.0303 24.9377C28.542 26.0557 27.9639 27.0848 27.2942 28.031C26.3813 29.3208 25.6338 30.2136 25.0578 30.7094C24.1648 31.5232 23.208 31.94 22.1835 31.9637C21.448 31.9637 20.561 31.7563 19.5285 31.3355C18.4926 30.9168 17.5406 30.7094 16.6701 30.7094C15.7572 30.7094 14.7781 30.9168 13.7309 31.3355C12.682 31.7563 11.8371 31.9755 11.1911 31.9973C10.2086 32.0387 9.22929 31.6101 8.2518 30.7094C7.62791 30.1702 6.84755 29.2457 5.91271 27.9361C4.9097 26.5377 4.08509 24.916 3.43908 23.0672C2.74722 21.0702 2.40039 19.1364 2.40039 17.2643C2.40039 15.1197 2.86801 13.2701 3.80464 11.7201C4.54075 10.4751 5.52004 9.49305 6.74569 8.77208C7.97135 8.05112 9.29567 7.68372 10.7218 7.66022C11.5022 7.66022 12.5255 7.89942 13.7972 8.36953C15.0654 8.84122 15.8796 9.08042 16.2366 9.08042C16.5035 9.08042 17.408 8.80072 18.9414 8.24311C20.3915 7.72599 21.6154 7.51188 22.618 7.59622C25.3348 7.8135 27.3759 8.8748 28.7333 10.7868C26.3035 12.2458 25.1016 14.2891 25.1255 16.9105C25.1475 18.9523 25.8949 20.6514 27.364 22.0005C28.0297 22.6267 28.7732 23.1106 29.6004 23.4543C29.421 23.9698 29.2316 24.4637 29.0303 24.9377ZM22.7994 0.640182C22.7994 2.24055 22.2094 3.7348 21.0334 5.11787C19.6142 6.76207 17.8976 7.71216 16.0361 7.56224C16.0124 7.37025 15.9986 7.16818 15.9986 6.95584C15.9986 5.41949 16.6735 3.7753 17.8721 2.43094C18.4704 1.75027 19.2315 1.1843 20.1543 0.73282C21.0752 0.288073 21.9463 0.0421187 22.7655 0C22.7894 0.213944 22.7994 0.427901 22.7994 0.640161V0.640182Z" fill="#FAFAFA"/>
</svg>
