<svg width="24" height="24" viewBox="0 0 24 24" fill="none" xmlns="http://www.w3.org/2000/svg">
<path fill-rule="evenodd" clip-rule="evenodd" d="M12.2578 23.9315C9.90253 23.9315 8.80799 23.5862 6.90543 22.2048C5.70199 23.7588 1.89113 24.9733 1.72492 22.8955C1.72492 21.3358 1.38108 20.0178 0.991393 18.5789C0.527223 16.8062 0 14.832 0 11.9715C0 5.13969 5.58166 0 12.1948 0C18.8137 0 23.9999 5.39294 23.9999 12.0348C24.0221 18.574 18.7687 23.8966 12.2578 23.9315ZM12.3553 5.90517C9.13465 5.73827 6.62461 7.97718 6.06875 11.4881C5.6103 14.3946 6.42405 17.9342 7.11745 18.1184C7.44983 18.199 8.28651 17.5198 8.80799 16.9961C9.6703 17.5944 10.6745 17.9537 11.7192 18.0378C15.0563 18.1991 17.9077 15.6475 18.1317 12.2996C18.2622 8.94459 15.6928 6.10294 12.3553 5.91094V5.90517Z" fill="white"/>
</svg>
