<svg width="26" height="24" viewBox="0 0 26 24" fill="none" xmlns="http://www.w3.org/2000/svg">
<g clip-path="url(#clip0_40002409_449)">
<path d="M15.1163 14.0528H4.50465V9.76603H15.1163C15.736 9.76603 16.1744 9.87169 16.386 10.0679C16.5977 10.2641 16.7337 10.6113 16.7337 11.1396V12.6792C16.7337 13.2226 16.5977 13.5849 16.386 13.7811C16.1744 13.9623 15.736 14.0528 15.1163 14.0528ZM15.8419 5.75094H0V24.0302H4.50465V18.083H12.8035L16.7337 24.0302H21.7826L17.4442 18.0528C19.0465 17.8113 19.757 17.3132 20.3616 16.483C20.9512 15.6679 21.2535 14.3396 21.2535 12.5887V11.2151C21.2535 10.1736 21.1477 9.35848 20.9512 8.72452C20.7547 8.09056 20.4372 7.54716 19.9837 7.04905C19.5 6.58112 18.9558 6.24905 18.3058 6.03773C17.6558 5.8566 16.8395 5.73584 15.8419 5.75094Z" fill="#100943"/>
<path d="M23 6C24.6507 6 26 4.65652 26 3C26 1.34348 24.6638 0 23 0C21.3493 0 20 1.34348 20 3C20 4.65652 21.3493 6 23 6Z" fill="#ED143B"/>
</g>
<defs>
<clipPath id="clip0_40002409_449">
<rect width="26" height="24" fill="white"/>
</clipPath>
</defs>
</svg>
