<svg width="24" height="24" viewBox="0 0 24 24" fill="none" xmlns="http://www.w3.org/2000/svg">
<g clip-path="url(#clip0_3112_258158)">
<path d="M13.9535 14.0529H4.15814V9.76612H13.9535C14.5256 9.76612 14.9302 9.87178 15.1256 10.068C15.3209 10.2642 15.4465 10.6114 15.4465 11.1397V12.6793C15.4465 13.2227 15.3209 13.585 15.1256 13.7812C14.9302 13.9623 14.5256 14.0529 13.9535 14.0529ZM14.6233 5.75103H0V24.0303H4.15814V18.0831H11.8186L15.4465 24.0303H20.107L16.1023 18.0529C17.5814 17.8114 18.2372 17.3133 18.7953 16.4831C19.3395 15.668 19.6186 14.3397 19.6186 12.5888V11.2152C19.6186 10.1737 19.5209 9.35857 19.3395 8.72461C19.1581 8.09065 18.8651 7.54725 18.4465 7.04914C18 6.58122 17.4977 6.24914 16.8977 6.03782C16.2977 5.85669 15.5442 5.73593 14.6233 5.75103Z" fill="#FAFAFA"/>
<path d="M21.2311 6C22.7548 6 24.0004 4.65652 24.0004 3C24.0004 1.34348 22.7669 0 21.2311 0C19.7075 0 18.4619 1.34348 18.4619 3C18.4619 4.65652 19.7075 6 21.2311 6Z" fill="#ED143B"/>
</g>
<defs>
<clipPath id="clip0_3112_258158">
<rect width="24" height="24" fill="white"/>
</clipPath>
</defs>
</svg>
