<svg width="40" height="40" viewBox="0 0 40 40" fill="none" xmlns="http://www.w3.org/2000/svg">
<g clip-path="url(#clip0_1474_38611)">
<path d="M39.9545 21.7213V0.0078125H9.78226C8.83938 0.0078125 7.92823 0.146803 7.06543 0.40162L39.956 21.7213H39.9545Z" fill="#005546"/>
<path d="M28.5106 10.2498H25.9524V4.31952H23.8672V3.25856C24.5366 3.23539 25.073 3.12574 25.4779 2.93116C25.8829 2.73657 26.1987 2.52654 26.4254 2.30261C26.6898 2.03081 26.8802 1.7312 26.9935 1.39917H28.5091V10.2483L28.5106 10.2498Z" fill="url(#paint0_linear_1474_38611)"/>
<path d="M38.1751 3.27547H32.3576L31.9209 5.82363H31.9965C32.199 5.62287 32.4332 5.44681 32.6976 5.29238C32.9258 5.16265 33.2023 5.04219 33.5317 4.92946C33.8596 4.81672 34.2389 4.76112 34.6695 4.76112C35.3767 4.76112 35.9932 4.87077 36.5175 5.08852C37.0418 5.30628 37.474 5.59661 37.8155 5.9549C38.157 6.31473 38.4123 6.73634 38.5831 7.22126C38.7538 7.70464 38.8384 8.21273 38.8384 8.74398C38.8384 9.38025 38.7281 9.97173 38.506 10.5138C38.2854 11.0559 37.9696 11.5253 37.5586 11.9207C37.1476 12.316 36.652 12.6218 36.0702 12.8411C35.4885 13.0589 34.8327 13.1685 34.0999 13.1685C33.367 13.1685 32.7414 13.0805 32.1476 12.9029C31.5538 12.7253 31.0445 12.472 30.6215 12.1415C30.1984 11.811 29.8659 11.4126 29.6272 10.9462C29.387 10.4798 29.2676 9.95783 29.2676 9.38025H31.8258C31.8258 10.0181 32.0343 10.5138 32.4513 10.8675C32.8684 11.2211 33.4184 11.3987 34.0999 11.3987C34.7436 11.3987 35.2679 11.1717 35.6728 10.7176C36.0763 10.2636 36.2788 9.63507 36.2788 8.83355C36.2788 8.07837 36.0642 7.49152 35.6351 7.073C35.2059 6.65449 34.5985 6.44446 33.8158 6.44446C33.4108 6.44446 33.0572 6.50623 32.755 6.62978C32.4513 6.75332 32.1929 6.89849 31.9784 7.06374C31.7381 7.24134 31.5296 7.44828 31.3528 7.68302H29.458L30.5384 1.40063H38.1751V3.27701V3.27547Z" fill="url(#paint1_linear_1474_38611)"/>
<path d="M40 26.0241V25.9871L39.9864 21.3108C39.6978 18.2422 37.6141 15.9349 35.4004 13.4764C34.3533 12.3119 32.4902 11.4625 29.4515 9.95525C26.913 8.69662 23.35 6.80789 20.6996 5.51836C15.6573 3.06749 10.6286 0.0652906 9.72197 0.0066056C9.40768 0.0143273 7.03989 -0.220413 4.32306 1.70693C4.32004 1.71001 4.31853 1.7131 4.3155 1.71619C1.712 3.51072 0 6.55461 0 10.0062V30.0024C0 35.5234 4.37897 40.0004 9.78241 40.0004H30.1738C35.5757 40.0004 39.9562 35.5249 39.9562 30.0024L40.0015 26.0257C40.0015 26.0257 40.0015 26.0257 40.0015 26.0241H40Z" fill="url(#paint2_linear_1474_38611)"/>
<path d="M9.71777 0.00610352C9.71777 0.00610352 11.4721 0.183703 17.9559 3.97506C22.6326 6.71009 24.7178 7.78032 27.8592 8.96946C34.3309 11.4203 36.2409 14.4689 36.2409 14.4689C36.2409 14.4689 35.0668 12.489 28.1448 10.2713C23.9154 8.91696 11.2832 6.46609 11.2832 6.46609C11.2832 6.46609 13.1357 3.92255 12.4074 2.27629C11.6549 0.572877 9.71777 0.00610352 9.71777 0.00610352Z" fill="url(#paint3_linear_1474_38611)"/>
<path d="M32.3327 14.9986H27.6349L23.1653 20.0007V10.0057H19.5388V12.4272C19.4209 12.2713 19.2955 12.1153 19.1565 11.9639C17.8374 10.537 15.938 9.81421 13.5098 9.81421C10.7008 9.81421 9.10362 11.0991 8.25895 12.1771C7.20879 13.5145 6.74037 15.3414 7.06524 16.8286C7.90537 20.6802 11.4019 21.2964 13.9706 21.6377C15.9985 21.9079 17.9401 22.2832 17.8872 24.1318C17.8328 26.0499 15.7189 26.5209 14.3303 26.5209C10.7144 26.5209 10.592 23.7905 10.592 23.7905H6.7041C6.76152 24.8159 7.06373 26.4622 8.29975 27.8753C9.65212 29.4227 11.6814 30.2088 14.3303 30.2088C16.3626 30.2088 18.2121 29.5324 19.5388 28.3309V29.9818H23.1653V25.2638L24.4481 23.8291L28.1109 29.9818H32.3312L27.0018 20.9705L32.3327 14.9986ZM10.6932 15.9777C10.3729 14.5476 11.7691 13.2813 13.5763 13.2813C15.2036 13.2813 16.8341 13.6534 17.4536 15.9715H19.5388V19.5096C16.9383 17.3259 11.3022 18.6957 10.6932 15.9761V15.9777Z" fill="#005546"/>
</g>
<defs>
<linearGradient id="paint0_linear_1474_38611" x1="33.8294" y1="-7.85762" x2="22.9687" y2="12.0281" gradientUnits="userSpaceOnUse">
<stop offset="0.64" stop-color="#B1EC52"/>
<stop offset="0.67" stop-color="#ADE851"/>
<stop offset="0.7" stop-color="#A1DE50"/>
<stop offset="0.73" stop-color="#8DCE4F"/>
<stop offset="0.76" stop-color="#72B74D"/>
<stop offset="0.79" stop-color="#4F994B"/>
<stop offset="0.81" stop-color="#2D7D49"/>
</linearGradient>
<linearGradient id="paint1_linear_1474_38611" x1="39.9959" y1="-4.48948" x2="29.1352" y2="15.3962" gradientUnits="userSpaceOnUse">
<stop offset="0.64" stop-color="#B1EC52"/>
<stop offset="0.67" stop-color="#ADE851"/>
<stop offset="0.7" stop-color="#A1DE50"/>
<stop offset="0.73" stop-color="#8DCE4F"/>
<stop offset="0.76" stop-color="#72B74D"/>
<stop offset="0.79" stop-color="#4F994B"/>
<stop offset="0.81" stop-color="#2D7D49"/>
</linearGradient>
<linearGradient id="paint2_linear_1474_38611" x1="-22.9435" y1="118.096" x2="39.9034" y2="-19.4019" gradientUnits="userSpaceOnUse">
<stop offset="0.76" stop-color="#ADE851"/>
<stop offset="0.77" stop-color="#A1DE50"/>
<stop offset="0.78" stop-color="#72B74D"/>
<stop offset="0.79" stop-color="#4F994B"/>
<stop offset="0.8" stop-color="#2D7D49"/>
</linearGradient>
<linearGradient id="paint3_linear_1474_38611" x1="17.9937" y1="17.9838" x2="24.8055" y2="3.92947" gradientUnits="userSpaceOnUse">
<stop offset="0.64" stop-color="#B1EC52"/>
<stop offset="0.67" stop-color="#ADE851"/>
<stop offset="0.7" stop-color="#A1DE50"/>
<stop offset="0.73" stop-color="#8DCE4F"/>
<stop offset="0.76" stop-color="#72B74D"/>
<stop offset="0.79" stop-color="#4F994B"/>
<stop offset="0.81" stop-color="#2D7D49"/>
</linearGradient>
<clipPath id="clip0_1474_38611">
<rect width="40" height="40" fill="white"/>
</clipPath>
</defs>
</svg>
