<svg width="24" height="24" viewBox="0 0 24 24" fill="none" xmlns="http://www.w3.org/2000/svg">
<path fill-rule="evenodd" clip-rule="evenodd" d="M2.03705 11.2933C8.23854 8.59141 12.3738 6.81016 14.4429 5.94955C20.3507 3.49233 21.5782 3.06548 22.3783 3.05139C22.5543 3.04829 22.9478 3.0919 23.2027 3.29872C23.4179 3.47334 23.4771 3.70924 23.5054 3.87481C23.5338 4.04038 23.569 4.41755 23.541 4.71225C23.2209 8.076 21.8356 16.2389 21.1309 20.0064C20.8327 21.6005 20.2455 22.135 19.6771 22.1873C18.4417 22.301 17.5036 21.3709 16.3071 20.5866C14.4348 19.3593 13.3771 18.5953 11.5597 17.3977C9.45943 16.0136 10.821 15.2529 12.0179 14.0097C12.3312 13.6843 17.7742 8.7335 17.8795 8.28438C17.8927 8.22821 17.9049 8.01884 17.7806 7.90828C17.6562 7.79772 17.4726 7.83553 17.3401 7.8656C17.1523 7.90822 14.1613 9.88516 8.36707 13.7964C7.51808 14.3794 6.74909 14.6635 6.0601 14.6486C5.30055 14.6322 3.83948 14.2191 2.75332 13.866C1.4211 13.433 0.36228 13.204 0.45448 12.4686C0.502503 12.0855 1.03003 11.6937 2.03705 11.2933Z" fill="url(#paint0_linear_148_51236)"/>
<defs>
<linearGradient id="paint0_linear_148_51236" x1="12.0001" y1="3.05124" x2="12.0001" y2="22.0548" gradientUnits="userSpaceOnUse">
<stop stop-color="#2AABEE"/>
<stop offset="1" stop-color="#229ED9"/>
</linearGradient>
</defs>
</svg>
