<svg width="24" height="24" viewBox="0 0 24 24" fill="none" xmlns="http://www.w3.org/2000/svg">
<g clip-path="url(#clip0_3112_258153)">
<path fill-rule="evenodd" clip-rule="evenodd" d="M12.0508 0.41626C15.1396 0.41626 18.0343 1.61419 20.2119 3.78149C22.3893 5.94868 23.5868 8.8344 23.5869 11.9026C23.5869 18.2334 18.4061 23.384 12.0508 23.384H12.0459C10.1147 23.384 8.21704 22.8991 6.53223 21.9866L0.417969 23.5833L2.05664 17.635C1.04241 15.8956 0.509846 13.9165 0.509766 11.8977C0.515496 5.56704 5.68995 0.416484 12.0508 0.41626ZM7.82227 6.39868C7.6217 6.39868 7.30045 6.47323 7.02539 6.76978C6.75032 7.06635 5.98242 7.78544 5.98242 9.25122C5.9826 10.7112 7.05414 12.1258 7.20312 12.3254C7.35392 12.528 9.2738 15.6223 12.3037 16.8137C14.8245 17.8058 15.3405 17.6063 15.8848 17.5549C16.4291 17.5036 17.65 16.8366 17.9023 16.1409C18.1488 15.4451 18.1487 14.8513 18.0742 14.7258C17.9996 14.6005 17.7988 14.5264 17.501 14.3782C17.2028 14.2298 15.736 13.5111 15.4609 13.4084C15.1859 13.3115 14.9849 13.2603 14.79 13.5569C14.5894 13.8534 14.0168 14.5202 13.8447 14.72C13.6728 14.9196 13.4953 14.9425 13.1973 14.7942C12.899 14.6459 11.936 14.3326 10.7959 13.3176C9.90767 12.5306 9.30668 11.5546 9.13477 11.2581C8.96295 10.9616 9.11666 10.8018 9.26562 10.6536C9.39739 10.5224 9.56393 10.3061 9.71289 10.135C9.86181 9.964 9.91342 9.83835 10.0107 9.63892C10.1082 9.4393 10.0628 9.26767 9.98828 9.11938C9.91341 8.9758 9.32894 7.50544 9.06543 6.91821C8.8421 6.42238 8.60742 6.41025 8.39551 6.40454C8.22367 6.39884 8.02274 6.39868 7.82227 6.39868Z" fill="#FAFAFA"/>
</g>
<defs>
<clipPath id="clip0_3112_258153">
<rect width="24" height="24" fill="white"/>
</clipPath>
</defs>
</svg>
