<svg width="24" height="24" viewBox="0 0 24 24" fill="none" xmlns="http://www.w3.org/2000/svg">
<g clip-path="url(#clip0_3112_258152)">
<path fill-rule="evenodd" clip-rule="evenodd" d="M12 3.6001C12.0227 3.6001 19.5154 3.60055 21.3906 4.11377C22.4184 4.39055 23.229 5.20122 23.5059 6.229C24.0199 8.10708 24 12.022 24 12.022C24 12.0512 23.9982 15.9234 23.5059 17.7944C23.2291 18.8223 22.4185 19.6328 21.3906 19.9097C19.5154 20.4032 12.0227 20.4038 12 20.4038C12 20.4038 4.50723 20.4041 2.60938 19.8901C1.5815 19.6134 0.770951 18.8028 0.494141 17.7749C0.00280988 15.9275 1.69292e-05 12.0479 0 12.0024C0 12.0024 -9.11951e-05 8.10708 0.494141 6.229C0.770994 5.20121 1.60132 4.37101 2.60938 4.09424C4.48746 3.60001 12 3.6001 12 3.6001ZM9.60742 15.6001L15.8545 12.0024L9.60742 8.40381V15.6001Z" fill="white"/>
</g>
<defs>
<clipPath id="clip0_3112_258152">
<rect width="24" height="24" fill="white"/>
</clipPath>
</defs>
</svg>
