<svg width="1681" height="58" viewBox="0 0 1681 58" fill="none" xmlns="http://www.w3.org/2000/svg">
<line x1="0.5" y1="0.5" x2="0.499999" y2="15.5" stroke="black" stroke-opacity="0.17" stroke-linecap="round"/>
<line x1="37.0215" y1="0.5" x2="37.0215" y2="15.5" stroke="black" stroke-opacity="0.17" stroke-linecap="round"/>
<line x1="73.5439" y1="0.5" x2="73.5439" y2="15.5" stroke="black" stroke-opacity="0.17" stroke-linecap="round"/>
<line x1="110.065" y1="0.5" x2="110.065" y2="15.5" stroke="black" stroke-opacity="0.17" stroke-linecap="round"/>
<line x1="146.587" y1="0.5" x2="146.587" y2="15.5" stroke="black" stroke-opacity="0.17" stroke-linecap="round"/>
<line x1="183.108" y1="0.5" x2="183.108" y2="15.5" stroke="black" stroke-opacity="0.17" stroke-linecap="round"/>
<line x1="219.631" y1="0.5" x2="219.631" y2="15.5" stroke="black" stroke-opacity="0.17" stroke-linecap="round"/>
<line x1="256.152" y1="0.5" x2="256.152" y2="15.5" stroke="black" stroke-opacity="0.17" stroke-linecap="round"/>
<line x1="292.674" y1="0.5" x2="292.674" y2="15.5" stroke="black" stroke-opacity="0.17" stroke-linecap="round"/>
<line x1="329.195" y1="0.5" x2="329.195" y2="15.5" stroke="black" stroke-opacity="0.17" stroke-linecap="round"/>
<line x1="365.718" y1="0.5" x2="365.718" y2="15.5" stroke="black" stroke-opacity="0.17" stroke-linecap="round"/>
<line x1="402.239" y1="0.5" x2="402.239" y2="15.5" stroke="black" stroke-opacity="0.17" stroke-linecap="round"/>
<line x1="438.761" y1="0.5" x2="438.761" y2="15.5" stroke="black" stroke-opacity="0.17" stroke-linecap="round"/>
<line x1="475.282" y1="0.5" x2="475.282" y2="15.5" stroke="black" stroke-opacity="0.17" stroke-linecap="round"/>
<line x1="511.805" y1="0.5" x2="511.805" y2="15.5" stroke="black" stroke-opacity="0.17" stroke-linecap="round"/>
<line x1="548.326" y1="0.5" x2="548.326" y2="15.5" stroke="black" stroke-opacity="0.17" stroke-linecap="round"/>
<line x1="584.848" y1="0.5" x2="584.848" y2="15.5" stroke="black" stroke-opacity="0.17" stroke-linecap="round"/>
<line x1="621.369" y1="0.5" x2="621.369" y2="15.5" stroke="black" stroke-opacity="0.17" stroke-linecap="round"/>
<line x1="657.892" y1="0.5" x2="657.892" y2="15.5" stroke="black" stroke-opacity="0.17" stroke-linecap="round"/>
<line x1="694.413" y1="0.5" x2="694.413" y2="15.5" stroke="black" stroke-opacity="0.17" stroke-linecap="round"/>
<line x1="730.935" y1="0.5" x2="730.935" y2="15.5" stroke="black" stroke-opacity="0.17" stroke-linecap="round"/>
<line x1="767.456" y1="0.5" x2="767.456" y2="33.5" stroke="black" stroke-opacity="0.17" stroke-linecap="round"/>
<line x1="803.979" y1="0.5" x2="803.979" y2="45.5" stroke="black" stroke-opacity="0.17" stroke-linecap="round"/>
<line x1="842" y1="2" x2="842" y2="56" stroke="#5369E0" stroke-width="4" stroke-linecap="round"/>
<line x1="877.021" y1="0.5" x2="877.021" y2="45.5" stroke="black" stroke-opacity="0.17" stroke-linecap="round"/>
<line x1="913.543" y1="0.5" x2="913.543" y2="33.5" stroke="black" stroke-opacity="0.17" stroke-linecap="round"/>
<line x1="950.065" y1="0.5" x2="950.065" y2="15.5" stroke="black" stroke-opacity="0.17" stroke-linecap="round"/>
<line x1="986.587" y1="0.5" x2="986.587" y2="15.5" stroke="black" stroke-opacity="0.17" stroke-linecap="round"/>
<line x1="1023.11" y1="0.5" x2="1023.11" y2="15.5" stroke="black" stroke-opacity="0.17" stroke-linecap="round"/>
<line x1="1059.63" y1="0.5" x2="1059.63" y2="15.5" stroke="black" stroke-opacity="0.17" stroke-linecap="round"/>
<line x1="1096.15" y1="0.5" x2="1096.15" y2="15.5" stroke="black" stroke-opacity="0.17" stroke-linecap="round"/>
<line x1="1132.67" y1="0.5" x2="1132.67" y2="15.5" stroke="black" stroke-opacity="0.17" stroke-linecap="round"/>
<line x1="1169.2" y1="0.5" x2="1169.2" y2="15.5" stroke="black" stroke-opacity="0.17" stroke-linecap="round"/>
<line x1="1205.72" y1="0.5" x2="1205.72" y2="15.5" stroke="black" stroke-opacity="0.17" stroke-linecap="round"/>
<line x1="1242.24" y1="0.5" x2="1242.24" y2="15.5" stroke="black" stroke-opacity="0.17" stroke-linecap="round"/>
<line x1="1278.76" y1="0.5" x2="1278.76" y2="15.5" stroke="black" stroke-opacity="0.17" stroke-linecap="round"/>
<line x1="1315.28" y1="0.5" x2="1315.28" y2="15.5" stroke="black" stroke-opacity="0.17" stroke-linecap="round"/>
<line x1="1351.8" y1="0.5" x2="1351.8" y2="15.5" stroke="black" stroke-opacity="0.17" stroke-linecap="round"/>
<line x1="1388.33" y1="0.5" x2="1388.33" y2="15.5" stroke="black" stroke-opacity="0.17" stroke-linecap="round"/>
<line x1="1424.85" y1="0.5" x2="1424.85" y2="15.5" stroke="black" stroke-opacity="0.17" stroke-linecap="round"/>
<line x1="1461.37" y1="0.5" x2="1461.37" y2="15.5" stroke="black" stroke-opacity="0.17" stroke-linecap="round"/>
<line x1="1497.89" y1="0.5" x2="1497.89" y2="15.5" stroke="black" stroke-opacity="0.17" stroke-linecap="round"/>
<line x1="1534.41" y1="0.5" x2="1534.41" y2="15.5" stroke="black" stroke-opacity="0.17" stroke-linecap="round"/>
<line x1="1570.93" y1="0.5" x2="1570.93" y2="15.5" stroke="black" stroke-opacity="0.17" stroke-linecap="round"/>
<line x1="1607.46" y1="0.5" x2="1607.46" y2="15.5" stroke="black" stroke-opacity="0.17" stroke-linecap="round"/>
<line x1="1643.98" y1="0.5" x2="1643.98" y2="15.5" stroke="black" stroke-opacity="0.17" stroke-linecap="round"/>
<line x1="1680.5" y1="0.5" x2="1680.5" y2="15.5" stroke="black" stroke-opacity="0.17" stroke-linecap="round"/>
</svg>
