<svg width="25" height="49" viewBox="0 0 25 49" fill="none" xmlns="http://www.w3.org/2000/svg">
<path d="M24.6755 47.781C24.6245 48.0236 24.3577 48.1612 24.0796 48.0884C24.0796 48.0884 23.2816 47.9053 21.9228 47.4438C20.5697 46.9729 18.6622 46.172 16.5745 44.8279C14.4784 43.5079 12.2374 41.5948 10.2538 39.1563C8.2665 36.7231 6.59499 33.7269 5.51402 30.5055C4.42275 27.2864 3.94854 23.854 4.03671 20.6566C4.07019 19.0563 4.25931 17.5162 4.53253 16.0792C4.79722 14.6392 5.16829 13.3042 5.57838 12.0988C6.40301 9.68544 7.4153 7.81385 8.18348 6.55874C8.57093 5.93115 8.8973 5.45391 9.12333 5.13102C9.3466 4.80626 9.47729 4.64206 9.47729 4.64206C9.65308 4.40516 9.9452 4.33955 10.1301 4.49569C10.3148 4.65182 10.3274 4.96286 10.1584 5.19056C10.1584 5.19056 10.0318 5.34924 9.81603 5.6635C9.59742 5.97574 9.28187 6.43727 8.90718 7.04415C8.16429 8.25802 7.18543 10.0676 6.38781 12.402C5.99121 13.568 5.6319 14.8599 5.37593 16.2537C5.11156 17.6444 4.92824 19.1342 4.89613 20.6819C4.81102 23.774 5.26941 27.0929 6.32497 30.2069C7.37061 33.3228 8.98751 36.2223 10.9103 38.576C12.8297 40.9347 14.9966 42.7855 17.0238 44.0615C19.0425 45.3615 20.8872 46.1362 22.1963 46.5916C23.5109 47.0378 24.2833 47.2152 24.2833 47.2152C24.5509 47.2852 24.7265 47.5384 24.6755 47.781Z" fill="white" fill-opacity="0.48"/>
<path d="M4.77056 17.242C4.77056 17.242 4.78904 17.1209 4.81038 16.8967C4.8399 16.6737 4.88154 16.3494 4.91254 15.9374C4.97279 15.1118 5.05156 13.953 5.09224 12.5494C5.13544 11.1489 4.94297 9.99095 4.71982 9.21295C4.49544 8.43521 4.20892 8.04359 4.12645 8.22917C4.04619 8.41192 3.73917 9.22302 3.51474 10.3418C3.29901 11.4624 3.18593 12.8897 3.3992 14.2145C3.50528 14.8767 3.63804 15.4018 3.7831 15.822C3.9222 16.2406 4.05361 16.5498 4.17093 16.779C4.42051 17.2388 4.58403 17.3781 4.58403 17.3781L4.77056 17.242Z" fill="white" fill-opacity="0.48"/>
<path d="M4.43026 23.7558C4.43026 23.7558 4.41861 23.6333 4.39719 23.4083C4.37524 23.1834 4.33638 22.8568 4.26889 22.4472C4.20613 22.0372 4.14371 21.5433 4.03022 20.9805C3.95112 20.4186 3.80665 19.7847 3.6814 19.0951C3.6147 18.75 3.52336 18.4112 3.41511 18.0809C3.32111 17.7526 3.20946 17.4325 3.08717 17.1246C2.8326 16.5071 2.58191 15.9454 2.32402 15.4709C1.80439 14.5204 1.36682 13.9516 1.31207 14.1541C1.26114 14.3527 1.1745 15.3908 1.24573 16.7035C1.30174 18.0154 1.59541 19.5995 2.07581 20.8578C2.33523 21.4885 2.59832 21.9945 2.85116 22.3991C3.11794 22.8033 3.36457 23.1069 3.57449 23.3335C3.98887 23.7861 4.28168 23.9353 4.28168 23.9353L4.43026 23.7558Z" fill="white" fill-opacity="0.48"/>
<path d="M5.82639 30.456C5.82639 30.456 5.78504 30.332 5.69569 30.1095C5.6144 29.8841 5.49408 29.5571 5.31977 29.1532C5.13773 28.7512 4.95538 28.2564 4.68855 27.7077C4.45712 27.1501 4.14199 26.535 3.83167 25.8545C3.16627 24.5083 2.2342 23.3077 1.42806 22.441C0.652044 21.5787 0 21.0885 0 21.3173C0.000616019 21.4297 0.0409776 21.7648 0.121799 22.2439C0.208141 22.7226 0.362195 23.3444 0.554541 24.0259C0.967717 25.3897 1.66306 26.972 2.51908 28.1444C2.96636 28.7263 3.36995 29.1796 3.76031 29.522C4.15126 29.8643 4.49492 30.1064 4.77947 30.279C5.35996 30.6188 5.70784 30.687 5.70784 30.687L5.82639 30.456Z" fill="white" fill-opacity="0.48"/>
<path d="M9.4776 37.6057C9.4776 37.6057 9.39722 37.4884 9.23641 37.2834C9.06952 37.0826 8.84847 36.7751 8.54095 36.4086C7.92826 35.6718 7.0489 34.6511 5.94076 33.434C4.83335 32.2261 3.41225 31.2682 2.28981 30.5884C1.14938 29.9216 0.305216 29.5884 0.362086 29.8394C0.391483 29.9619 0.523089 30.315 0.767107 30.8024C0.886196 31.047 1.02773 31.3266 1.18856 31.63C1.35883 31.93 1.55492 32.2514 1.76476 32.586C2.61393 33.9228 3.84632 35.3928 5.14681 36.3429C6.45878 37.2891 7.54108 37.6531 8.27372 37.8074C9.01847 37.9508 9.41329 37.8973 9.41329 37.8973L9.4776 37.6057Z" fill="white" fill-opacity="0.48"/>
<path d="M15.7813 43.9126C15.7813 43.9126 15.2533 43.5465 14.3249 42.9795C13.3997 42.4029 12.0714 41.6316 10.4321 40.6933C8.7958 39.7672 6.91009 39.1862 5.43071 38.805C4.68451 38.6255 4.04757 38.5079 3.61931 38.4674C3.18665 38.4292 2.95515 38.477 3.02932 38.6059C3.10841 38.7304 3.35541 39.096 3.78872 39.5641C4.00162 39.8005 4.25123 40.0688 4.53021 40.3568C4.82036 40.6368 5.14327 40.9342 5.4876 41.2397C6.87934 42.4544 8.76626 43.658 10.5532 44.2161C10.9933 44.3646 11.4138 44.4657 11.8071 44.5356C12.1994 44.6066 12.5533 44.6606 12.8876 44.6808C13.5589 44.7173 14.1007 44.6865 14.5321 44.6238C15.4048 44.4798 15.8168 44.2587 15.8168 44.2587L15.7813 43.9126Z" fill="white" fill-opacity="0.48"/>
<path d="M4.77539 17.2427C4.77539 17.2427 4.79059 17.121 4.83091 16.9002C4.87945 16.6809 4.96239 16.364 5.08148 15.9735C5.31648 15.1939 5.76388 14.1247 6.51984 13.0475C7.27961 11.9697 8.1773 11.4112 8.85073 11.1737C9.52416 10.9342 9.96151 10.9844 9.89979 11.1254C9.83715 11.2699 9.506 11.8446 9.01104 12.6011C8.52522 13.3626 7.88671 14.3142 7.1348 15.2091C6.75875 15.6566 6.43369 16.0248 6.16666 16.3237C5.89356 16.6212 5.65852 16.845 5.47144 17.0098C5.11203 17.343 4.91703 17.4303 4.91703 17.4303L4.77539 17.2427Z" fill="white" fill-opacity="0.48"/>
<path d="M6.57814 10.6666C6.57814 10.6666 6.612 10.5792 6.67417 10.4186C6.7368 10.2583 6.82295 10.023 6.91799 9.721C7.11482 9.11951 7.36857 8.26601 7.61719 7.22309C8.12191 5.15566 7.68762 3.60896 7.50202 3.84725C7.32907 4.07842 6.17896 6.096 6.08281 8.15529C6.02294 9.1732 6.12993 9.81848 6.21878 10.2042C6.31468 10.5918 6.4145 10.7305 6.4145 10.7305L6.57814 10.6666Z" fill="white" fill-opacity="0.48"/>
<path d="M6.57812 10.6662C6.57812 10.6662 6.60814 10.5769 6.68539 10.4235C6.76153 10.2695 6.87712 10.0479 7.03437 9.77857C7.35446 9.24406 7.86758 8.5266 8.60813 7.8416C8.97767 7.49895 9.3528 7.25386 9.70891 7.08912C10.0575 6.91895 10.3851 6.82786 10.6604 6.78631C11.207 6.70106 11.5347 6.79978 11.4659 6.90048C11.3181 7.10638 10.1294 8.49293 8.70881 9.58843C7.98654 10.1317 7.48537 10.4611 7.14326 10.6322C6.80672 10.8075 6.64936 10.8346 6.64936 10.8346L6.57812 10.6662Z" fill="white" fill-opacity="0.48"/>
<path d="M9.57428 5.24981C9.57428 5.24981 9.75724 5.00998 10.0135 4.56769C10.2749 4.12845 10.6237 3.49906 10.9859 2.71264C11.3517 1.93098 11.4971 1.22083 11.5351 0.723031C11.5695 0.222011 11.483 -0.0699359 11.3982 0.0144306C11.2311 0.17389 10.037 1.56878 9.61817 3.17115C9.39894 3.95982 9.37324 4.49322 9.37509 4.81528C9.37925 5.13827 9.43356 5.26841 9.43356 5.26841L9.57428 5.24981Z" fill="white" fill-opacity="0.48"/>
<path d="M9.56543 5.24987C9.56543 5.24987 9.74262 5.00363 10.0869 4.63607C10.4349 4.27295 10.9659 3.80014 11.6666 3.38065C12.372 2.96466 13.0259 2.85786 13.4798 2.87775C13.9309 2.89398 14.1805 3.02309 14.1093 3.09442C13.9608 3.24028 12.7797 4.18044 11.4531 4.79772C10.7785 5.09817 10.3249 5.26636 10.0223 5.33571C9.72084 5.40722 9.59187 5.39779 9.59187 5.39779L9.56543 5.24987Z" fill="white" fill-opacity="0.48"/>
<path d="M4.67397 23.7337C4.67397 23.7337 4.65679 23.6127 4.65696 23.3882C4.65445 23.1643 4.6577 22.8377 4.68077 22.431C4.70861 22.0242 4.78561 21.5361 4.88514 20.9952C5.01921 20.4555 5.16178 19.8598 5.42004 19.248C5.54509 18.9418 5.69259 18.653 5.85463 18.3852C6.03103 18.119 6.22104 17.8737 6.41684 17.651C6.79835 17.2038 7.24794 16.8565 7.63848 16.5987C8.41572 16.0825 9.07193 15.9372 9.03095 16.081C8.99175 16.2291 8.70005 16.9278 8.28929 17.8481C7.86557 18.7669 7.39473 19.9251 6.84196 20.9542C6.58555 21.4681 6.32621 21.9105 6.08783 22.2836C5.86333 22.6563 5.64982 22.9599 5.46521 23.1976C5.0904 23.6747 4.85569 23.8795 4.85569 23.8795L4.67397 23.7337Z" fill="white" fill-opacity="0.48"/>
<path d="M6.05567 30.3697C6.05567 30.3697 6.0112 30.2481 5.94326 30.0205C5.88338 29.7902 5.80882 29.4506 5.73423 29.0231C5.65208 28.5981 5.62342 28.0689 5.5957 27.4828C5.60324 26.8885 5.61251 26.2335 5.74271 25.5319C5.95708 24.1277 6.78312 22.9436 7.50908 22.2255C8.26524 21.4999 8.91841 21.1943 8.91903 21.349C8.91977 21.4283 8.88313 21.6629 8.80797 22.0067C8.73839 22.3504 8.65685 22.8029 8.53426 23.3235C8.31952 24.3612 8.06232 25.6696 7.72462 26.8767C7.57552 27.4738 7.3898 28.0058 7.23432 28.4551C7.07928 28.9043 6.92 29.2809 6.77649 29.5814C6.50137 30.1797 6.28865 30.4659 6.28865 30.4659L6.05567 30.3697Z" fill="white" fill-opacity="0.48"/>
<path d="M9.67416 37.4518C9.67416 37.4518 9.59103 37.3382 9.45213 37.1198C9.30746 36.906 9.13308 36.5679 8.92908 36.1401C8.52487 35.2858 8.07599 34.0032 7.9415 32.4438C7.80203 30.8791 8.35983 29.3724 9.00443 28.3803C9.62745 27.3864 10.3062 26.86 10.34 27.02C10.3589 27.1021 10.372 27.3568 10.397 27.7294C10.4066 27.9167 10.4135 28.1352 10.4161 28.3801C10.4281 28.6218 10.4423 28.8875 10.4484 29.1753C10.4839 30.3198 10.5497 31.7698 10.5186 33.151C10.4968 34.5229 10.3751 35.6064 10.2377 36.3455C10.1129 37.0777 9.95647 37.468 9.95647 37.468L9.67416 37.4518Z" fill="white" fill-opacity="0.48"/>
<path d="M15.9229 43.6988C15.9229 43.6988 15.3821 43.3487 14.637 42.5634C13.9012 41.7769 12.9587 40.5472 12.3023 38.8847C11.6358 37.2182 11.808 35.3531 12.2329 34.0504C12.4328 33.3996 12.6878 32.8756 12.9058 32.5307C13.1198 32.189 13.2868 32.0293 13.3325 32.1087C13.384 32.1855 13.4576 32.4627 13.5941 32.8526C13.6587 33.0499 13.7294 33.2823 13.8028 33.5451C13.8873 33.7996 13.9778 34.0823 14.0677 34.3914C14.4416 35.6128 14.9579 37.1534 15.3766 38.6596C15.476 39.0435 15.5688 39.4018 15.6553 39.7362C15.7407 40.0735 15.8064 40.4046 15.8721 40.7033C16.0061 41.2967 16.089 41.8269 16.1438 42.2592C16.2666 43.1083 16.2376 43.6007 16.2376 43.6007L15.9229 43.6988Z" fill="white" fill-opacity="0.48"/>
</svg>
