<svg width="25" height="49" viewBox="0 0 25 49" fill="none" xmlns="http://www.w3.org/2000/svg">
<path d="M0.00906181 47.781C0.0600433 48.0236 0.326828 48.1612 0.604948 48.0884C0.604948 48.0884 1.40294 47.9053 2.76178 47.4438C4.11486 46.9729 6.0224 46.172 8.11009 44.8279C10.2062 43.5079 12.4471 41.5948 14.4308 39.1563C16.4181 36.7231 18.0896 33.7269 19.1705 30.5055C20.2618 27.2864 20.736 23.854 20.6479 20.6566C20.6144 19.0563 20.4253 17.5162 20.152 16.0792C19.8873 14.6392 19.5163 13.3042 19.1062 12.0988C18.2816 9.68544 17.2693 7.81385 16.5011 6.55874C16.1136 5.93115 15.7873 5.45391 15.5612 5.13102C15.338 4.80626 15.2073 4.64206 15.2073 4.64206C15.0315 4.40516 14.7394 4.33955 14.5545 4.49569C14.3698 4.65182 14.3572 4.96286 14.5262 5.19056C14.5262 5.19056 14.6528 5.34924 14.8685 5.6635C15.0872 5.97574 15.4027 6.43727 15.7774 7.04415C16.5203 8.25802 17.4991 10.0676 18.2968 12.402C18.6934 13.568 19.0527 14.8599 19.3086 16.2537C19.573 17.6444 19.7563 19.1342 19.7884 20.6819C19.8736 23.774 19.4152 27.0929 18.3596 30.2069C17.314 33.3228 15.6971 36.2223 13.7742 38.576C11.8548 40.9347 9.68796 42.7855 7.66076 44.0615C5.64204 45.3615 3.79734 46.1362 2.48832 46.5916C1.17366 47.0378 0.401243 47.2152 0.401243 47.2152C0.133694 47.2852 -0.0419216 47.5384 0.00906181 47.781Z" fill="white" fill-opacity="0.48"/>
<path d="M19.913 17.242C19.913 17.242 19.8946 17.1209 19.8732 16.8967C19.8437 16.6737 19.8021 16.3494 19.7711 15.9374C19.7108 15.1118 19.632 13.953 19.5913 12.5494C19.5482 11.1489 19.7406 9.99095 19.9638 9.21295C20.1881 8.43521 20.4747 8.04359 20.5571 8.22917C20.6374 8.41192 20.9444 9.22302 21.1689 10.3418C21.3846 11.4624 21.4977 12.8897 21.2844 14.2145C21.1783 14.8767 21.0455 15.4018 20.9005 15.822C20.7614 16.2406 20.63 16.5498 20.5127 16.779C20.2631 17.2388 20.0996 17.3781 20.0996 17.3781L19.913 17.242Z" fill="white" fill-opacity="0.48"/>
<path d="M20.2543 23.7558C20.2543 23.7558 20.266 23.6333 20.2874 23.4083C20.3093 23.1834 20.3482 22.8568 20.4157 22.4472C20.4784 22.0372 20.5409 21.5433 20.6544 20.9805C20.7334 20.4186 20.8779 19.7847 21.0032 19.0951C21.0699 18.75 21.1612 18.4112 21.2695 18.0809C21.3635 17.7526 21.4751 17.4325 21.5974 17.1246C21.852 16.5071 22.1027 15.9454 22.3606 15.4709C22.8802 14.5204 23.3178 13.9516 23.3725 14.1541C23.4234 14.3527 23.5101 15.3908 23.4388 16.7035C23.3828 18.0154 23.0892 19.5995 22.6088 20.8578C22.3493 21.4885 22.0863 21.9945 21.8334 22.3991C21.5666 22.8033 21.32 23.1069 21.1101 23.3335C20.6957 23.7861 20.4029 23.9353 20.4029 23.9353L20.2543 23.7558Z" fill="white" fill-opacity="0.48"/>
<path d="M18.8582 30.456C18.8582 30.456 18.8995 30.332 18.9889 30.1095C19.0702 29.8841 19.1905 29.5571 19.3648 29.1532C19.5468 28.7512 19.7292 28.2564 19.996 27.7077C20.2274 27.1501 20.5426 26.535 20.8529 25.8545C21.5183 24.5083 22.4504 23.3077 23.2565 22.441C24.0325 21.5787 24.6846 21.0885 24.6846 21.3173C24.684 21.4297 24.6436 21.7648 24.5628 22.2439C24.4764 22.7226 24.3224 23.3444 24.13 24.0259C23.7169 25.3897 23.0215 26.972 22.1655 28.1444C21.7182 28.7263 21.3146 29.1796 20.9243 29.522C20.5333 29.8643 20.1896 30.1064 19.9051 30.279C19.3246 30.6188 18.9767 30.687 18.9767 30.687L18.8582 30.456Z" fill="white" fill-opacity="0.48"/>
<path d="M15.207 37.6057C15.207 37.6057 15.2873 37.4884 15.4482 37.2834C15.615 37.0826 15.8361 36.7751 16.1436 36.4086C16.7563 35.6718 17.6357 34.6511 18.7438 33.434C19.8512 32.2261 21.2723 31.2682 22.3948 30.5884C23.5352 29.9216 24.3794 29.5884 24.3225 29.8394C24.2931 29.9619 24.1615 30.315 23.9175 30.8024C23.7984 31.047 23.6568 31.3266 23.496 31.63C23.3257 31.93 23.1296 32.2514 22.9198 32.586C22.0706 33.9228 20.8383 35.3928 19.5378 36.3429C18.2258 37.2891 17.1435 37.6531 16.4108 37.8074C15.6661 37.9508 15.2713 37.8973 15.2713 37.8973L15.207 37.6057Z" fill="white" fill-opacity="0.48"/>
<path d="M8.90228 43.9126C8.90228 43.9126 9.4303 43.5465 10.3587 42.9795C11.2839 42.4029 12.6122 41.6316 14.2515 40.6933C15.8878 39.7672 17.7735 39.1862 19.2529 38.805C19.9991 38.6255 20.636 38.5079 21.0643 38.4674C21.4969 38.4292 21.7284 38.477 21.6543 38.6059C21.5752 38.7304 21.3282 39.096 20.8949 39.5641C20.682 39.8005 20.4324 40.0688 20.1534 40.3568C19.8632 40.6368 19.5403 40.9342 19.196 41.2397C17.8043 42.4544 15.9173 43.658 14.1304 44.2161C13.6903 44.3646 13.2698 44.4657 12.8765 44.5356C12.4842 44.6066 12.1303 44.6606 11.796 44.6808C11.1247 44.7173 10.5829 44.6865 10.1515 44.6238C9.27876 44.4798 8.86682 44.2587 8.86682 44.2587L8.90228 43.9126Z" fill="white" fill-opacity="0.48"/>
<path d="M19.9092 17.2427C19.9092 17.2427 19.894 17.121 19.8537 16.9002C19.8051 16.6809 19.7222 16.364 19.6031 15.9735C19.3681 15.1939 18.9207 14.1247 18.1647 13.0475C17.405 11.9697 16.5073 11.4112 15.8338 11.1737C15.1604 10.9342 14.7231 10.9844 14.7848 11.1254C14.8474 11.2699 15.1786 11.8446 15.6735 12.6011C16.1593 13.3626 16.7979 14.3142 17.5498 15.2091C17.9258 15.6566 18.2509 16.0248 18.5179 16.3237C18.791 16.6212 19.0261 16.845 19.2131 17.0098C19.5725 17.343 19.7675 17.4303 19.7675 17.4303L19.9092 17.2427Z" fill="white" fill-opacity="0.48"/>
<path d="M18.1064 10.6666C18.1064 10.6666 18.0726 10.5792 18.0104 10.4186C17.9478 10.2583 17.8616 10.023 17.7666 9.721C17.5698 9.11951 17.316 8.26601 17.0674 7.22309C16.5627 5.15566 16.997 3.60896 17.1825 3.84725C17.3555 4.07842 18.5056 6.096 18.6018 8.15529C18.6616 9.1732 18.5546 9.81848 18.4658 10.2042C18.3699 10.5918 18.2701 10.7305 18.2701 10.7305L18.1064 10.6666Z" fill="white" fill-opacity="0.48"/>
<path d="M18.1064 10.6662C18.1064 10.6662 18.0764 10.5769 17.9992 10.4235C17.923 10.2695 17.8075 10.0479 17.6502 9.77857C17.3301 9.24406 16.817 8.5266 16.0764 7.8416C15.7069 7.49895 15.3318 7.25386 14.9757 7.08912C14.6271 6.91895 14.2995 6.82786 14.0242 6.78631C13.4776 6.70106 13.1499 6.79978 13.2187 6.90048C13.3665 7.10638 14.5552 8.49293 15.9758 9.58843C16.698 10.1317 17.1992 10.4611 17.5413 10.6322C17.8779 10.8075 18.0352 10.8346 18.0352 10.8346L18.1064 10.6662Z" fill="white" fill-opacity="0.48"/>
<path d="M15.1113 5.24981C15.1113 5.24981 14.9283 5.00998 14.672 4.56769C14.4107 4.12845 14.0618 3.49906 13.6996 2.71264C13.3338 1.93098 13.1884 1.22083 13.1505 0.723031C13.116 0.222011 13.2025 -0.0699359 13.2873 0.0144306C13.4545 0.17389 14.6485 1.56878 15.0674 3.17115C15.2866 3.95982 15.3123 4.49322 15.3105 4.81528C15.3063 5.13827 15.252 5.26841 15.252 5.26841L15.1113 5.24981Z" fill="white" fill-opacity="0.48"/>
<path d="M15.1191 5.24987C15.1191 5.24987 14.9419 5.00363 14.5977 4.63607C14.2497 4.27295 13.7187 3.80014 13.018 3.38065C12.3126 2.96466 11.6587 2.85786 11.2047 2.87775C10.7536 2.89398 10.5041 3.02309 10.5753 3.09442C10.7238 3.24028 11.9048 4.18044 13.2315 4.79772C13.9061 5.09817 14.3596 5.26636 14.6622 5.33571C14.9637 5.40722 15.0927 5.39779 15.0927 5.39779L15.1191 5.24987Z" fill="white" fill-opacity="0.48"/>
<path d="M20.0106 23.7337C20.0106 23.7337 20.0278 23.6127 20.0276 23.3882C20.0301 23.1643 20.0269 22.8377 20.0038 22.431C19.976 22.0242 19.899 21.5361 19.7994 20.9952C19.6654 20.4555 19.5228 19.8598 19.2645 19.248C19.1395 18.9418 18.992 18.653 18.8299 18.3852C18.6535 18.119 18.4635 17.8737 18.2677 17.651C17.8862 17.2038 17.4366 16.8565 17.0461 16.5987C16.2689 16.0825 15.6126 15.9372 15.6536 16.081C15.6928 16.2291 15.9845 16.9278 16.3953 17.8481C16.819 18.7669 17.2898 19.9251 17.8426 20.9542C18.099 21.4681 18.3584 21.9105 18.5967 22.2836C18.8212 22.6563 19.0348 22.9599 19.2194 23.1976C19.5942 23.6747 19.8289 23.8795 19.8289 23.8795L20.0106 23.7337Z" fill="white" fill-opacity="0.48"/>
<path d="M18.6289 30.3697C18.6289 30.3697 18.6734 30.2481 18.7413 30.0205C18.8012 29.7902 18.8757 29.4506 18.9503 29.0231C19.0325 28.5981 19.0611 28.0689 19.0889 27.4828C19.0813 26.8885 19.0721 26.2335 18.9419 25.5319C18.7275 24.1277 17.9015 22.9436 17.1755 22.2255C16.4193 21.4999 15.7662 21.1943 15.7655 21.349C15.7648 21.4283 15.8014 21.6629 15.8766 22.0067C15.9462 22.3504 16.0277 22.8029 16.1503 23.3235C16.3651 24.3612 16.6223 25.6696 16.96 26.8767C17.1091 27.4738 17.2948 28.0058 17.4503 28.4551C17.6053 28.9043 17.7646 29.2809 17.9081 29.5814C18.1832 30.1797 18.3959 30.4659 18.3959 30.4659L18.6289 30.3697Z" fill="white" fill-opacity="0.48"/>
<path d="M15.0114 37.4518C15.0114 37.4518 15.0945 37.3382 15.2334 37.1198C15.3781 36.906 15.5525 36.5679 15.7565 36.1401C16.1607 35.2858 16.6096 34.0032 16.744 32.4438C16.8835 30.8791 16.3257 29.3724 15.6811 28.3803C15.0581 27.3864 14.3794 26.86 14.3455 27.02C14.3266 27.1021 14.3136 27.3568 14.2885 27.7294C14.279 27.9167 14.272 28.1352 14.2695 28.3801C14.2574 28.6218 14.2433 28.8875 14.2372 29.1753C14.2017 30.3198 14.1359 31.7698 14.167 33.151C14.1887 34.5229 14.3104 35.6064 14.4479 36.3455C14.5727 37.0777 14.7291 37.468 14.7291 37.468L15.0114 37.4518Z" fill="white" fill-opacity="0.48"/>
<path d="M8.76261 43.6988C8.76261 43.6988 9.30345 43.3487 10.0486 42.5634C10.7843 41.7769 11.7268 40.5472 12.3833 38.8847C13.0497 37.2182 12.8776 35.3531 12.4527 34.0504C12.2528 33.3996 11.9977 32.8756 11.7798 32.5307C11.5657 32.189 11.3988 32.0293 11.353 32.1087C11.3016 32.1855 11.2279 32.4627 11.0914 32.8526C11.0268 33.0499 10.9561 33.2823 10.8828 33.5451C10.7982 33.7996 10.7078 34.0823 10.6179 34.3914C10.244 35.6128 9.72767 37.1534 9.30892 38.6596C9.20952 39.0435 9.11675 39.4018 9.03023 39.7362C8.94488 40.0735 8.87911 40.4046 8.81347 40.7033C8.6794 41.2967 8.59658 41.8269 8.54178 42.2592C8.41895 43.1083 8.4479 43.6007 8.4479 43.6007L8.76261 43.6988Z" fill="white" fill-opacity="0.48"/>
</svg>
