<svg width="64" height="64" viewBox="0 0 64 64" fill="none" xmlns="http://www.w3.org/2000/svg">
<rect width="64" height="64" rx="32" fill="#1A1A1A" fill-opacity="0.16"/>
<path d="M26 24.0003V40.0003C25.9999 40.1782 26.0474 40.3529 26.1374 40.5064C26.2274 40.6599 26.3567 40.7866 26.512 40.8734C26.6673 40.9602 26.843 41.0041 27.0209 41.0003C27.1988 40.9966 27.3725 40.9455 27.524 40.8523L40.524 32.8523C40.6696 32.7628 40.7898 32.6375 40.8733 32.4884C40.9567 32.3392 41.0005 32.1712 41.0005 32.0003C41.0005 31.8294 40.9567 31.6613 40.8733 31.5122C40.7898 31.363 40.6696 31.2378 40.524 31.1483L27.524 23.1483C27.3725 23.055 27.1988 23.0039 27.0209 23.0002C26.843 22.9965 26.6673 23.0403 26.512 23.1271C26.3567 23.214 26.2274 23.3407 26.1374 23.4941C26.0474 23.6476 25.9999 23.8224 26 24.0003Z" fill="white"/>
<path d="M32 5.4C32 4.6268 31.3727 3.99635 30.6005 4.03499C25.5538 4.2875 20.6599 5.90191 16.444 8.71885C11.8395 11.7955 8.25063 16.1685 6.13137 21.2849C4.01212 26.4012 3.45763 32.0311 4.53801 37.4625C5.6184 42.894 8.28514 47.8831 12.201 51.799C16.1169 55.7149 21.106 58.3816 26.5375 59.462C31.9689 60.5424 37.5988 59.9879 42.7151 57.8686C47.8315 55.7494 52.2045 52.1605 55.2812 47.556C58.0981 43.3401 59.7125 38.4462 59.965 33.3995C60.0037 32.6273 59.3732 32 58.6 32C57.8268 32 57.2041 32.6273 57.1611 33.3993C56.9113 37.8919 55.4623 42.245 52.953 46.0004C50.184 50.1445 46.2483 53.3744 41.6436 55.2818C37.0389 57.1891 31.972 57.6881 27.0837 56.7158C22.1954 55.7434 17.7052 53.3434 14.1809 49.8191C10.6566 46.2948 8.25656 41.8046 7.28421 36.9163C6.31186 32.028 6.81091 26.9611 8.71824 22.3564C10.6256 17.7517 13.8555 13.816 17.9996 11.047C21.755 8.53773 26.1081 7.08868 30.6007 6.83887C31.3727 6.79594 32 6.1732 32 5.4Z" fill="white"/>
</svg>
